<svg width="22" height="24" viewBox="0 0 22 24" fill="none" xmlns="http://www.w3.org/2000/svg">
<path fill-rule="evenodd" clip-rule="evenodd" d="M0.65527 3.51493V6.15108H1.09466C1.82261 6.15108 2.41274 5.56096 2.41274 4.83301C2.41274 4.10505 1.82261 3.51493 1.09466 3.51493H0.65527ZM1.09466 1.75749H1.09349C1.68239 0.708669 2.80532 0 4.09377 0H18.4134C20.3125 0 21.8519 1.53947 21.8519 3.4385V20.2869C21.8519 22.1859 20.3125 23.7254 18.4134 23.7254H4.09377C2.80535 23.7254 1.68244 23.0168 1.09353 21.968H1.09464C2.7932 21.968 4.17016 20.591 4.17016 18.8925C4.17016 17.1939 2.7932 15.817 1.09464 15.817H0.65527V14.9383H1.09464C2.7932 14.9383 4.17016 13.5614 4.17016 11.8628C4.17016 10.1643 2.7932 8.78731 1.09464 8.78731H0.65527V7.90852H1.09466C2.79322 7.90852 4.17017 6.53157 4.17017 4.83301C4.17017 3.13445 2.79322 1.75749 1.09466 1.75749ZM1.09464 20.2105H0.65527V17.5744H1.09464C1.8226 17.5744 2.41272 18.1645 2.41272 18.8925C2.41272 19.6204 1.8226 20.2105 1.09464 20.2105ZM1.09464 13.1809H0.65527V10.5448H1.09464C1.8226 10.5448 2.41272 11.1349 2.41272 11.8628C2.41272 12.5908 1.8226 13.1809 1.09464 13.1809ZM7.90473 3.95423C7.2981 3.95423 6.80633 4.446 6.80633 5.05263C6.80633 5.65926 7.2981 6.15103 7.90473 6.15103H17.1313C17.7379 6.15103 18.2297 5.65926 18.2297 5.05263C18.2297 4.446 17.7379 3.95423 17.1313 3.95423H7.90473ZM6.80633 10.3249C6.80633 9.71831 7.2981 9.22654 7.90473 9.22654H17.1313C17.7379 9.22654 18.2297 9.71831 18.2297 10.3249C18.2297 10.9316 17.7379 11.4233 17.1313 11.4233H7.90473C7.2981 11.4233 6.80633 10.9316 6.80633 10.3249ZM7.90473 14.4989C7.2981 14.4989 6.80633 14.9906 6.80633 15.5973C6.80633 16.2039 7.2981 16.6957 7.90473 16.6957H14.4951C15.1017 16.6957 15.5935 16.2039 15.5935 15.5973C15.5935 14.9906 15.1017 14.4989 14.4951 14.4989H7.90473Z" fill="white"/>
</svg>
