<svg width="293" height="262" viewBox="0 0 293 262" fill="none" xmlns="http://www.w3.org/2000/svg">
<g clip-path="url(#clip0_4_4980)">
<g opacity="0.3">
<path d="M147.112 116.403C171.73 116.403 191.687 131.942 191.687 151.11C191.687 170.278 171.73 185.817 147.112 185.817C122.494 185.817 102.537 170.278 102.537 151.11C102.537 131.942 122.494 116.403 147.112 116.403Z" fill="#AFAFAF"/>
</g>
<path d="M163.683 165.413L160.235 163.133" stroke="#F49000" stroke-width="13.0375" stroke-linecap="round"/>
<path d="M130.17 165.413L135.844 156.963" stroke="#F49000" stroke-width="13.0375" stroke-linecap="round"/>
<path d="M115.141 110.566C110.901 117.928 93.3351 142.129 93.0135 145.182C92.7759 147.438 93.6439 151.883 101.403 152.701C104.014 152.976 106.248 152.342 108.052 151.343C110.537 149.968 111.441 148.385 112.939 146.559C114.437 144.735 114.966 143.613 115.862 142.189C116.759 140.766 118.984 115.431 115.141 110.566Z" fill="#58CC02"/>
<path d="M179.027 140.44C179.706 141.316 180.916 142.455 182.537 143.409C184.803 144.742 187.926 145.604 191.442 144.671C198.933 142.658 199.148 138.086 198.5 135.892C197.635 132.932 185.42 120.08 179.172 113.123C179.172 113.123 171.488 112.574 177.422 133.902" fill="#58CC02"/>
<mask id="mask0_4_4980" style="mask-type:alpha" maskUnits="userSpaceOnUse" x="102" y="75" width="82" height="95">
<mask id="mask1_4_4980" style="mask-type:luminance" maskUnits="userSpaceOnUse" x="3" y="-10" width="284" height="283">
<path d="M3.78891 12.802L263.572 -9.63848L286.012 250.144L26.2294 272.585L3.78891 12.802Z" fill="white"/>
</mask>
<g mask="url(#mask1_4_4980)">
<path d="M134.73 82.6139C139.797 81.7468 143.839 80.4091 147.261 78.8285C150.485 77.3415 153.83 75.8234 158.535 75.4547C163.573 75.0314 167.806 76.7963 171.117 79.459C173.3 81.2147 175.084 83.3618 176.435 85.5288C178.232 88.4121 179.265 91.3324 179.46 93.4169L182.933 124.559C186.463 156.651 161.311 168.187 148.898 169.878C136.415 170.925 109.367 165.128 105.837 133.036L102.362 101.872C101.175 90.9155 120.264 84.8852 134.73 82.6139ZM131.348 80.8635C135.178 81.6525 140.282 82.4279 145.195 81.8892C157.727 80.5147 178.4 83.7344 179.461 93.4155L182.933 124.559C186.463 156.65 161.311 168.187 148.898 169.878C136.415 170.925 109.36 165.128 105.837 133.036L102.362 101.872C102.038 99.3592 102.592 95.467 104.334 91.6444C105.487 89.115 107.162 86.6147 109.447 84.565C111.933 82.335 115.143 80.6344 119.193 80.0085C124.436 79.1387 127.695 80.1162 131.348 80.8635Z" fill="#58CC02"/>
<path d="M131.348 80.8634C135.178 81.6524 140.282 82.4279 145.195 81.8891C157.727 80.5146 178.399 83.7343 179.461 93.4155L182.933 124.559C186.463 156.65 161.311 168.187 148.898 169.878C136.415 170.925 109.36 165.128 105.837 133.036L102.362 101.872C102.038 99.3591 102.592 95.467 104.334 91.6444C105.487 89.115 107.162 86.6147 109.447 84.565C111.933 82.335 115.143 80.6344 119.193 80.0085C124.436 79.1387 127.695 80.1162 131.348 80.8634Z" fill="#58CC02"/>
</g>
</mask>
<g mask="url(#mask0_4_4980)">
<path d="M225.51 28.0607L242.465 224.341L70.4794 239.197L53.5244 42.9171L225.51 28.0607Z" fill="#58CC02"/>
<path d="M165.657 100.913C162.668 101.736 161.342 118.402 151.68 119.987C142.362 121.485 135.511 109.1 132.068 108.174C128.889 107.3 128.577 111.683 128.888 114.244C127.66 113.229 125.708 111.526 124.264 111.583C122.973 111.592 122.235 114.18 122.357 115.599C122.406 116.172 122.527 116.873 123.044 118.288C121.539 119.871 117.253 123.232 118.45 132.948C119.549 142.229 122.484 146.983 126.451 149.873C130.091 152.534 134.614 153.106 138.594 152.547C145.104 151.627 148.57 146.032 149.222 143.706L158.337 141.712C159.539 143.262 163.761 146.119 170.127 144.798C175.396 143.885 178.422 140.36 179.884 135.321C181.054 131.291 181.226 126.29 180.755 120.88C180.08 113.116 175.771 109.928 174.296 108.93C174.416 108.677 174.472 108.296 174.31 106.412C174.108 104.058 172.994 101.876 172.1 102.107C170.961 102.462 170.164 104.305 169.131 105.998C168.593 102.883 167.78 100.441 165.657 100.913Z" fill="#89E219"/>
</g>
<path d="M152.542 160.187C152.3 159.253 145.392 159.708 142.84 160.368C140.464 160.983 144.713 164.218 148.511 163.236C152.119 162.302 152.702 160.804 152.542 160.187ZM159.66 158.345C159.418 157.412 165.68 154.459 168.232 153.799C170.608 153.184 168.462 158.074 164.663 159.057C161.055 159.99 159.819 158.963 159.66 158.345ZM153.977 163.798C152.723 163.9 152.246 164.366 152.422 165.047C152.715 166.18 155.757 166.024 157.796 165.497C159.835 164.969 162.307 163.336 162.102 162.542C161.937 161.908 161.33 161.844 160.972 161.988C159.074 162.756 155.095 163.707 153.977 163.798Z" fill="#89E219"/>
<path d="M146.524 132.865C145.859 125.192 139.948 119.789 131.885 120.862C126.08 121.623 122.828 125.421 123.263 130.439C123.559 133.856 123.638 134.764 123.97 137.267C124.647 142.884 129.281 147.298 136.775 147.666C143.157 148.002 147.081 144.004 146.97 139.388C146.904 137.847 146.751 135.475 146.524 132.865Z" fill="white"/>
<path d="M159.432 127.88C159.253 120.55 163.687 114.021 170.434 113.374C175.248 112.952 178.051 116.042 178.338 121.069C178.498 124.185 178.446 126.035 178.438 128.652C178.126 132.736 175.844 139.685 169.093 141.007C163.444 142.177 159.951 138.444 159.739 135.76C159.65 133.961 159.472 130.226 159.432 127.88Z" fill="white"/>
<mask id="mask2_4_4980" style="mask-type:alpha" maskUnits="userSpaceOnUse" x="132" y="122" width="39" height="23">
<mask id="mask3_4_4980" style="mask-type:luminance" maskUnits="userSpaceOnUse" x="7" y="-21" width="297" height="297">
<path d="M7.57904 3.12988L280.35 -20.4325L303.912 252.338L31.1414 275.9L7.57904 3.12988Z" fill="white"/>
</mask>
<g mask="url(#mask3_4_4980)">
<path d="M143.636 136.489C143.165 131.037 140.684 128.844 136.958 129.843C131.956 131.168 132.554 134.424 132.881 138.196C133.027 139.885 133.481 141.251 134.159 142.281C135.43 144.211 137.487 144.958 139.782 144.41C141.319 144.08 142.472 143.285 143.12 141.761C143.644 140.528 143.838 138.819 143.636 136.489Z" fill="#4B4B4B"/>
<path d="M161.428 132.067C161.418 125.702 162.898 123.485 165.884 122.928C170.457 121.94 170.208 126.742 170.202 129.368C170.198 131.404 169.901 132.716 169.436 133.916C168.493 136.353 166.793 137.292 165.105 137.652C163.913 137.877 162.956 137.487 162.317 136.425C161.735 135.459 161.431 134.19 161.428 132.067Z" fill="#4B4B4B"/>
</g>
</mask>
<g mask="url(#mask2_4_4980)">
<path d="M238.251 66.4648L248.265 182.392L76.773 197.206L66.759 81.2786L238.251 66.4648Z" fill="#4B4B4B"/>
<path d="M133.669 128.235C135.555 128.072 137.216 129.47 137.379 131.357C137.542 133.244 136.145 134.906 134.259 135.069C132.373 135.232 130.712 133.834 130.549 131.947C130.386 130.06 131.783 128.398 133.669 128.235Z" fill="white"/>
<path d="M161.863 121.374C159.976 121.537 158.578 123.199 158.741 125.086C158.904 126.973 160.567 128.371 162.454 128.208C164.341 128.045 165.739 126.383 165.576 124.496C165.413 122.608 163.75 121.211 161.863 121.374Z" fill="white"/>
</g>
<path d="M155.526 137.788C158.691 137.469 161.497 139.845 161.775 143.065C162.053 146.285 159.753 149.178 156.538 149.462C153.367 149.741 150.573 147.354 150.295 144.134C150.017 140.914 152.364 138.106 155.526 137.788Z" fill="#F49000"/>
<path d="M155.997 140.855C157.422 140.732 158.679 141.809 158.805 143.262C158.93 144.714 157.876 145.991 156.451 146.114C155.026 146.237 153.769 145.16 153.643 143.707C153.518 142.255 154.571 140.978 155.997 140.855Z" fill="#B06800"/>
<path d="M163.641 141.548C163.42 139.194 159.61 136.483 155.702 136.885C151.172 137.343 148.784 141.08 148.95 143C149.05 144.158 154.904 147.312 156.852 147.111C158.772 146.923 163.699 142.175 163.641 141.548Z" fill="#FFC200"/>
<path d="M154.277 140.58C154.8 140.195 156.203 139.644 157.539 140.168" stroke="#FFDE00" stroke-width="3.39336" stroke-linecap="round"/>
</g>
<defs>
<clipPath id="clip0_4_4980">
<rect width="293" height="260.75" fill="white" transform="translate(0 0.953125)"/>
</clipPath>
</defs>
</svg>
