<svg width="22" height="22" viewBox="0 0 22 22" fill="none" xmlns="http://www.w3.org/2000/svg">
<path d="M1.50067 21.6669H6.16734C6.32088 21.6678 6.47308 21.6384 6.61523 21.5803C6.75737 21.5223 6.88666 21.4367 6.99567 21.3286L20.9957 7.32859C21.105 7.22013 21.1918 7.0911 21.251 6.94893C21.3103 6.80676 21.3408 6.65427 21.3408 6.50026C21.3408 6.34624 21.3103 6.19375 21.251 6.05158C21.1918 5.90941 21.105 5.78038 20.9957 5.67192L16.329 1.00525C16.2205 0.895904 16.0915 0.809111 15.9493 0.749881C15.8072 0.690651 15.6547 0.660156 15.5007 0.660156C15.3467 0.660156 15.1942 0.690651 15.052 0.749881C14.9098 0.809111 14.7808 0.895904 14.6723 1.00525L0.672337 15.0053C0.564209 15.1143 0.478663 15.2436 0.420604 15.3857C0.362545 15.5278 0.333116 15.6801 0.334004 15.8336V20.5003C0.334004 20.8097 0.45692 21.1064 0.675713 21.3252C0.894505 21.544 1.19125 21.6669 1.50067 21.6669ZM2.66734 16.3119L15.5007 3.47859L18.5223 6.50026L5.689 19.3336H2.66734V16.3119Z" fill="#A3A3A3"/>
</svg>
