<svg width="24" height="24" viewBox="0 0 24 24" fill="none" xmlns="http://www.w3.org/2000/svg">
<path fill-rule="evenodd" clip-rule="evenodd" d="M6.71994 5.66443V4.08043C6.71994 3.3803 6.9977 2.70869 7.49296 2.21448C7.98822 1.71922 8.65981 1.44043 9.35994 1.44043H14.6399C15.3401 1.44043 16.0106 1.71922 16.5059 2.21448C17.0012 2.70869 17.2799 3.3803 17.2799 4.08043V5.66443H19.9199C20.6201 5.66443 21.2906 5.94322 21.7859 6.43848C22.2812 6.93269 22.5599 7.6043 22.5599 8.30443V19.9204C22.5599 20.6206 22.2812 21.2922 21.7859 21.7874C21.2906 22.2827 20.6201 22.5604 19.9199 22.5604C16.3401 22.5604 7.65978 22.5604 4.07994 22.5604C3.37981 22.5604 2.70822 22.2827 2.21296 21.7874C1.7177 21.2922 1.43994 20.6206 1.43994 19.9204V8.30443C1.43994 7.6043 1.7177 6.93269 2.21296 6.43848C2.70822 5.94322 3.37981 5.66443 4.07994 5.66443H6.71994ZM3.55194 12.4102V19.9204C3.55194 20.0609 3.60685 20.195 3.70611 20.2943C3.80538 20.3935 3.93949 20.4484 4.07994 20.4484H19.9199C20.0593 20.4484 20.1934 20.3935 20.2927 20.2943C20.392 20.195 20.4479 20.0609 20.4479 19.9204V12.4841L12.3252 15.1177C12.1108 15.1864 11.8796 15.1864 11.6652 15.1146L3.55194 12.4102ZM20.4479 10.2633V8.30443C20.4479 8.16504 20.392 8.03092 20.2927 7.93166C20.1934 7.8324 20.0593 7.77643 19.9199 7.77643C16.3401 7.77643 7.65978 7.77643 4.07994 7.77643C3.93949 7.77643 3.80538 7.8324 3.70611 7.93166C3.60685 8.03092 3.55194 8.16504 3.55194 8.30443V10.1841L12.0042 13.0015L20.4479 10.2633ZM15.1679 5.66443V4.08043C15.1679 3.94104 15.112 3.80693 15.0127 3.70766C14.9134 3.6084 14.7793 3.55243 14.6399 3.55243C13.1299 3.55243 10.869 3.55243 9.35994 3.55243C9.21949 3.55243 9.08538 3.6084 8.98611 3.70766C8.88685 3.80693 8.83194 3.94104 8.83194 4.08043V5.66443H15.1679Z" fill="#A3A3A3"/>
</svg>
