<svg width="24" height="24" viewBox="0 0 24 24" fill="none" xmlns="http://www.w3.org/2000/svg">
<path d="M19.0005 3H5.00049C3.30049 3 2.00049 4.3 2.00049 6V18C2.00049 19.7 3.30049 21 5.00049 21H19.0005C20.7005 21 22.0005 19.7 22.0005 18V6C22.0005 4.3 20.7005 3 19.0005 3ZM19.0005 5C19.2005 5 19.3005 5.1 19.4005 5.1L12.0005 12.6L4.50049 5.1C4.70049 5.1 4.80049 5 5.00049 5H19.0005ZM20.0005 18C20.0005 18.6 19.6005 19 19.0005 19H5.00049C4.40049 19 4.00049 18.6 4.00049 18V7.4L11.3005 14.7C11.7005 15.1 12.3005 15.1 12.7005 14.7L20.0005 7.4V18Z" fill="#A3A3A3"/>
</svg>
