<svg width="24" height="24" viewBox="0 0 24 24" fill="none" xmlns="http://www.w3.org/2000/svg">
<path d="M12.0002 18.9993C12.6445 18.9993 13.1668 18.477 13.1668 17.8327C13.1668 17.1883 12.6445 16.666 12.0002 16.666C11.3558 16.666 10.8335 17.1883 10.8335 17.8327C10.8335 18.477 11.3558 18.9993 12.0002 18.9993Z" fill="#A3A3A3"/>
<path d="M12.0002 0.333008C5.5835 0.333008 0.333496 5.58301 0.333496 11.9997C0.333496 18.4163 5.5835 23.6663 12.0002 23.6663C18.4168 23.6663 23.6668 18.4163 23.6668 11.9997C23.6668 5.58301 18.4168 0.333008 12.0002 0.333008ZM12.0002 21.333C6.86683 21.333 2.66683 17.133 2.66683 11.9997C2.66683 6.86634 6.86683 2.66634 12.0002 2.66634C17.1335 2.66634 21.3335 6.86634 21.3335 11.9997C21.3335 17.133 17.1335 21.333 12.0002 21.333Z" fill="#A3A3A3"/>
<path d="M12.5829 4.99987C11.6495 4.8832 10.5995 5.11654 9.78288 5.69987C9.08288 6.39987 8.61621 7.3332 8.61621 8.26654C8.61621 8.96654 9.08288 9.43321 9.78288 9.43321C10.4829 9.43321 10.9495 8.96654 10.9495 8.26654C10.9495 7.91654 11.0662 7.6832 11.2995 7.44987C11.6495 7.3332 11.8829 7.3332 12.2329 7.3332C12.5829 7.44987 12.9329 7.6832 13.0495 8.14987C13.0495 8.49987 13.0495 8.7332 12.8162 8.96654C11.6495 10.2499 10.9495 11.9999 10.8329 13.7499V14.3332C10.8329 15.0332 11.2995 15.4999 11.9995 15.4999C12.6995 15.4999 13.1662 15.0332 13.1662 14.3332V13.7499C13.2829 12.5832 13.7495 11.4165 14.5662 10.4832C15.2662 9.66654 15.4995 8.7332 15.2662 7.6832C15.0329 6.39987 13.9829 5.2332 12.5829 4.99987Z" fill="#A3A3A3"/>
</svg>
