<svg width="207" height="107" viewBox="0 0 207 107" fill="none" xmlns="http://www.w3.org/2000/svg">
<g clip-path="url(#clip0_6910_28188)">
<path d="M7.64184 83.3761C7.64184 85.6901 8.16134 87.551 9.20037 88.9593C10.2394 90.3675 11.7812 91.072 13.8257 91.072C14.496 91.072 15.1161 91.0551 15.6859 91.0216C16.2555 90.9545 16.7248 90.8875 17.0936 90.8204V77.1895C16.6243 76.8876 16.0043 76.636 15.2334 76.4349C14.496 76.2337 13.7419 76.1331 12.971 76.1331C9.41822 76.1331 7.64184 78.5475 7.64184 83.3761ZM24.5845 95.9509C23.9144 96.1519 23.1435 96.3532 22.272 96.5544C21.4005 96.7221 20.4789 96.8732 19.507 97.0071C18.5682 97.1412 17.5964 97.2418 16.5909 97.3089C15.6188 97.4095 14.6804 97.4599 13.7754 97.4599C11.5968 97.4599 9.65284 97.1412 7.94349 96.5042C6.23412 95.867 4.79289 94.9616 3.61981 93.7879C2.44672 92.5809 1.54177 91.139 0.904945 89.4624C0.301628 87.7523 0 85.8408 0 83.7284C0 81.5823 0.268124 79.6541 0.804404 77.944C1.34065 76.2002 2.11156 74.7248 3.11707 73.5178C4.12256 72.3104 5.34593 71.3883 6.78715 70.751C8.26189 70.1142 9.93772 69.7956 11.8147 69.7956C12.8537 69.7956 13.7754 69.8962 14.5798 70.0974C15.4177 70.2985 16.2555 70.5836 17.0936 70.9522V58.9812L24.5845 57.7741V95.9509ZM39.0899 96.806H31.5989V70.3487H39.0899V96.806ZM39.7937 62.7032C39.7937 64.0782 39.341 65.1678 38.4361 65.9729C37.5646 66.7442 36.5258 67.1296 35.319 67.1296C34.1126 67.1296 33.0567 66.7442 32.1518 65.9729C31.2803 65.1678 30.8447 64.0782 30.8447 62.7032C30.8447 61.3284 31.2803 60.2553 32.1518 59.4844C33.0567 58.6793 34.1126 58.277 35.319 58.277C36.5258 58.277 37.5646 58.6793 38.4361 59.4844C39.341 60.2553 39.7937 61.3284 39.7937 62.7032ZM52.5164 82.7222C52.5164 86.9139 54.2092 89.0095 57.5941 89.0095C58.3652 89.0095 59.0856 88.9089 59.7561 88.7077C60.4264 88.5066 60.9962 88.2719 61.4655 88.0035V76.0325C61.0967 75.9657 60.6608 75.9151 60.1582 75.8818C59.6555 75.8147 59.069 75.7812 58.3985 75.7812C56.4211 75.7812 54.9464 76.4349 53.9744 77.7428C53.0023 79.0506 52.5164 80.7105 52.5164 82.7222ZM68.9565 93.4863C68.9565 97.8118 67.8505 101.014 65.6383 103.093C63.4596 105.206 60.0743 106.262 55.4827 106.262C53.8738 106.262 52.2651 106.111 50.6562 105.81C49.0474 105.541 47.556 105.172 46.1819 104.703L47.4889 98.4153C48.6619 98.8849 49.8854 99.2539 51.1588 99.5223C52.4662 99.7903 53.9409 99.9245 55.5833 99.9245C57.7282 99.9245 59.2367 99.4551 60.1081 98.5159C61.0129 97.5773 61.4655 96.3702 61.4655 94.8945V93.9389C60.6608 94.3076 59.8232 94.5927 58.9517 94.7939C58.1137 94.9616 57.192 95.0455 56.1865 95.0455C52.5333 95.0455 49.7345 93.9724 47.7904 91.8264C45.8465 89.6469 44.8745 86.612 44.8745 82.7222C44.8745 80.7776 45.176 79.0171 45.7796 77.4411C46.3828 75.8312 47.2543 74.4565 48.3938 73.3166C49.5668 72.1763 50.9915 71.3045 52.6674 70.7009C54.3432 70.0636 56.2367 69.7452 58.3485 69.7452C59.2532 69.7452 60.1749 69.7956 61.1135 69.8962C62.0855 69.963 63.0408 70.0636 63.979 70.198C64.9178 70.332 65.806 70.4997 66.6436 70.7009C67.5151 70.8687 68.286 71.0528 68.9565 71.2541V93.4863ZM83.4734 96.806H75.9824V70.3487H83.4734V96.806ZM84.1772 62.7032C84.1772 64.0782 83.7249 65.1678 82.8197 65.9729C81.9482 66.7442 80.9094 67.1296 79.7029 67.1296C78.4961 67.1296 77.4406 66.7442 76.5353 65.9729C75.6638 65.1678 75.2283 64.0782 75.2283 62.7032C75.2283 61.3284 75.6638 60.2553 76.5353 59.4844C77.4406 58.6793 78.4961 58.277 79.7029 58.277C80.9094 58.277 81.9482 58.6793 82.8197 59.4844C83.7249 60.2553 84.1772 61.3284 84.1772 62.7032Z" fill="#FF9500"/>
<path d="M100.622 91.5749C101.359 91.5749 102.063 91.558 102.733 91.5245C103.404 91.4911 103.94 91.4407 104.342 91.3739V85.6901C104.041 85.623 103.588 85.5557 102.985 85.4889C102.382 85.4217 101.829 85.3883 101.326 85.3883C100.622 85.3883 99.9517 85.4385 99.3149 85.5389C98.7115 85.6062 98.1752 85.7569 97.7061 85.9918C97.2368 86.2265 96.8681 86.5449 96.5999 86.9472C96.332 87.35 96.1976 87.8529 96.1976 88.4564C96.1976 89.6301 96.5832 90.4514 97.3541 90.921C98.1584 91.3568 99.2476 91.5749 100.622 91.5749ZM100.019 69.6446C102.231 69.6446 104.074 69.8962 105.549 70.3991C107.024 70.9022 108.197 71.6229 109.068 72.5621C109.973 73.5007 110.61 74.641 110.979 75.9824C111.347 77.3234 111.532 78.8159 111.532 80.4588V96.0513C110.459 96.2864 108.968 96.5544 107.057 96.8561C105.147 97.1916 102.834 97.3593 100.119 97.3593C98.4099 97.3593 96.8514 97.2083 95.4438 96.9066C94.0695 96.6048 92.8794 96.1186 91.8741 95.4478C90.8686 94.7437 90.0977 93.8385 89.5616 92.7316C89.0251 91.6251 88.7568 90.2671 88.7568 88.6576C88.7568 87.1149 89.0585 85.8073 89.6621 84.7343C90.2988 83.6612 91.1368 82.8061 92.1756 82.1691C93.2148 81.5318 94.4047 81.0793 95.7453 80.8109C97.0858 80.5092 98.477 80.3582 99.9181 80.3582C100.89 80.3582 101.745 80.4086 102.482 80.5092C103.253 80.5764 103.873 80.677 104.342 80.8109V80.1068C104.342 78.8326 103.957 77.8097 103.186 77.0385C102.415 76.2674 101.074 75.8818 99.1641 75.8818C97.8905 75.8818 96.6335 75.9824 95.3933 76.1835C94.1532 76.3511 93.0809 76.6027 92.1756 76.9378L91.2207 70.9022C91.6562 70.7681 92.1923 70.6338 92.8294 70.4997C93.4997 70.332 94.2203 70.198 94.9912 70.0974C95.7621 69.963 96.5664 69.8625 97.4044 69.7956C98.2757 69.695 99.1472 69.6446 100.019 69.6446ZM117.049 83.5774C117.049 81.6662 117.35 79.8719 117.954 78.1953C118.59 76.4853 119.495 75.0099 120.668 73.7691C121.841 72.4948 123.266 71.4889 124.942 70.751C126.618 70.0136 128.528 69.6446 130.673 69.6446C132.081 69.6446 133.371 69.7787 134.545 70.0469C135.718 70.2819 136.857 70.6338 137.963 71.1032L136.405 77.0888C135.701 76.8205 134.93 76.5859 134.092 76.3847C133.254 76.1835 132.316 76.0829 131.276 76.0829C129.064 76.0829 127.405 76.7704 126.299 78.1452C125.227 79.52 124.69 81.3307 124.69 83.5774C124.69 85.9581 125.193 87.8025 126.199 89.1105C127.238 90.4181 129.031 91.072 131.578 91.072C132.483 91.072 133.455 90.9882 134.494 90.8204C135.533 90.6527 136.489 90.3843 137.36 90.0157L138.416 96.1519C137.544 96.5209 136.455 96.8393 135.148 97.1077C133.841 97.3761 132.399 97.5101 130.824 97.5101C128.411 97.5101 126.333 97.1583 124.59 96.4538C122.847 95.7162 121.406 94.7269 120.266 93.4863C119.16 92.2454 118.339 90.7869 117.803 89.1105C117.3 87.4 117.049 85.5557 117.049 83.5774ZM140.91 83.5774C140.91 81.6662 141.211 79.8719 141.815 78.1953C142.452 76.4853 143.357 75.0099 144.53 73.7691C145.703 72.4948 147.127 71.4889 148.803 70.751C150.479 70.0136 152.389 69.6446 154.534 69.6446C155.942 69.6446 157.232 69.7787 158.405 70.0469C159.578 70.2819 160.718 70.6338 161.824 71.1032L160.266 77.0888C159.562 76.8205 158.791 76.5859 157.953 76.3847C157.115 76.1835 156.177 76.0829 155.138 76.0829C152.926 76.0829 151.267 76.7704 150.16 78.1452C149.088 79.52 148.552 81.3307 148.552 83.5774C148.552 85.9581 149.054 87.8025 150.06 89.1105C151.099 90.4181 152.892 91.072 155.439 91.072C156.344 91.072 157.316 90.9882 158.355 90.8204C159.394 90.6527 160.35 90.3843 161.221 90.0157L162.277 96.1519C161.405 96.5209 160.316 96.8393 159.009 97.1077C157.702 97.3761 156.261 97.5101 154.685 97.5101C152.272 97.5101 150.194 97.1583 148.451 96.4538C146.708 95.7162 145.267 94.7269 144.127 93.4863C143.021 92.2454 142.2 90.7869 141.664 89.1105C141.161 87.4 140.91 85.5557 140.91 83.5774ZM164.771 83.7786C164.771 81.4312 165.123 79.3857 165.827 77.6423C166.564 75.8647 167.519 74.3893 168.692 73.2156C169.865 72.0422 171.206 71.1535 172.714 70.5499C174.256 69.9464 175.831 69.6446 177.441 69.6446C181.194 69.6446 184.16 70.8016 186.338 73.1152C188.517 75.3955 189.607 78.7655 189.607 83.2255C189.607 83.6612 189.59 84.1474 189.557 84.6838C189.523 85.187 189.49 85.6395 189.455 86.042H172.463C172.631 87.5845 173.351 88.8083 174.625 89.714C175.899 90.6192 177.608 91.072 179.754 91.072C181.127 91.072 182.467 90.9545 183.775 90.7198C185.115 90.4514 186.205 90.133 187.044 89.764L188.048 95.8503C187.646 96.0513 187.109 96.2525 186.44 96.4538C185.769 96.655 185.015 96.8228 184.177 96.9567C183.373 97.1244 182.502 97.2587 181.563 97.3593C180.625 97.4599 179.687 97.5101 178.746 97.5101C176.368 97.5101 174.289 97.1583 172.514 96.4538C170.77 95.7496 169.312 94.7939 168.139 93.5869C167 92.346 166.145 90.8875 165.575 89.2109C165.039 87.5341 164.771 85.7234 164.771 83.7786ZM182.367 80.9115C182.334 80.2743 182.217 79.6541 182.015 79.0506C181.848 78.4469 181.563 77.9103 181.161 77.4411C180.792 76.9715 180.306 76.5859 179.702 76.2841C179.133 75.9824 178.412 75.8313 177.541 75.8313C176.702 75.8313 175.983 75.9824 175.379 76.2841C174.776 76.5521 174.274 76.9211 173.872 77.3907C173.468 77.8601 173.151 78.4132 172.916 79.0506C172.714 79.6541 172.564 80.2743 172.463 80.9115H182.367ZM205.946 97.3089C203.768 97.2754 201.991 97.0406 200.616 96.6048C199.276 96.1687 198.203 95.5652 197.399 94.7939C196.628 93.9892 196.091 93.0334 195.789 91.927C195.522 90.7869 195.388 89.5128 195.388 88.1042V58.9812L202.879 57.7741V86.5953C202.879 87.2661 202.929 87.8696 203.029 88.406C203.129 88.9427 203.314 89.3952 203.583 89.764C203.885 90.133 204.302 90.4349 204.839 90.6694C205.375 90.9043 206.096 91.0551 207.002 91.1222L205.946 97.3089Z" fill="white"/>
<path d="M133.992 9.61374C133.992 4.30421 129.69 0 124.383 0C119.076 0 114.773 4.30421 114.773 9.61374V38.4548C114.773 43.7644 119.076 48.0685 124.383 48.0685C129.69 48.0685 133.992 43.7644 133.992 38.4548V9.61374Z" fill="#FF9500"/>
<path d="M124.386 16.8172C128.366 16.8172 131.593 13.589 131.593 9.60687C131.593 5.62475 128.366 2.39658 124.386 2.39658C120.405 2.39658 117.179 5.62475 117.179 9.60687C117.179 13.589 120.405 16.8172 124.386 16.8172Z" fill="white"/>
<path d="M112.368 24.0472C112.368 18.7376 108.066 14.4334 102.759 14.4334C97.452 14.4334 93.1499 18.7376 93.1499 24.0472V38.4677C93.1499 43.7773 97.452 48.0815 102.759 48.0815C108.066 48.0815 112.368 43.7773 112.368 38.4677V24.0472Z" fill="#FF9500"/>
<path d="M90.7454 38.4705C90.7454 33.1609 86.4433 28.8567 81.1361 28.8567C75.8292 28.8567 71.5269 33.1609 71.5269 38.4705C71.5269 43.7799 75.8292 48.0841 81.1361 48.0841C86.4433 48.0841 90.7454 43.7799 90.7454 38.4705Z" fill="#FF9500"/>
<path d="M102.763 31.2506C106.743 31.2506 109.97 28.0224 109.97 24.0403C109.97 20.0582 106.743 16.83 102.763 16.83C98.7824 16.83 95.5557 20.0582 95.5557 24.0403C95.5557 28.0224 98.7824 31.2506 102.763 31.2506Z" fill="white"/>
<path d="M81.1458 45.6738C85.1261 45.6738 88.3527 42.4457 88.3527 38.4636C88.3527 34.4814 85.1261 31.2533 81.1458 31.2533C77.1656 31.2533 73.939 34.4814 73.939 38.4636C73.939 42.4457 77.1656 45.6738 81.1458 45.6738Z" fill="white"/>
</g>
<defs>
<clipPath id="clip0_6910_28188">
<rect width="207" height="107" fill="white"/>
</clipPath>
</defs>
</svg>
