<svg width="140" height="72" viewBox="0 0 140 72" fill="none" xmlns="http://www.w3.org/2000/svg">
<g clip-path="url(#clip0_6907_15475)">
<path d="M5.14457 56.1035C5.14457 57.6606 5.49431 58.9128 6.1938 59.8604C6.89328 60.8081 7.93122 61.2821 9.30763 61.2821C9.75889 61.2821 10.1763 61.2707 10.5599 61.2482C10.9434 61.203 11.2593 61.1579 11.5076 61.1128V51.9406C11.1917 51.7374 10.7743 51.5681 10.2553 51.4328C9.75889 51.2974 9.25121 51.2297 8.73223 51.2297C6.34046 51.2297 5.14457 52.8544 5.14457 56.1035ZM16.5506 64.5651C16.0994 64.7003 15.5805 64.8358 14.9938 64.9712C14.4071 65.084 13.7866 65.1857 13.1323 65.2758C12.5004 65.366 11.8461 65.4337 11.1692 65.4789C10.5148 65.5466 9.883 65.5805 9.27376 65.5805C7.80711 65.5805 6.49841 65.366 5.34765 64.9374C4.19688 64.5086 3.22663 63.8994 2.4369 63.1096C1.64716 62.2974 1.03794 61.3271 0.60922 60.199C0.20306 59.0482 0 57.762 0 56.3406C0 54.8965 0.180504 53.599 0.541534 52.4483C0.902543 51.2749 1.42152 50.2821 2.09845 49.4699C2.77536 48.6575 3.59894 48.037 4.56919 47.6081C5.562 47.1796 6.69019 46.9652 7.95377 46.9652C8.65325 46.9652 9.27376 47.0329 9.8153 47.1683C10.3794 47.3036 10.9434 47.4955 11.5076 47.7435V39.6882L16.5506 38.876V64.5651ZM26.3158 65.1405H21.2727V47.3374H26.3158V65.1405ZM26.7896 42.1928C26.7896 43.118 26.4849 43.8512 25.8756 44.393C25.289 44.912 24.5896 45.1713 23.7772 45.1713C22.965 45.1713 22.2542 44.912 21.6449 44.393C21.0583 43.8512 20.765 43.118 20.765 42.1928C20.765 41.2677 21.0583 40.5456 21.6449 40.0269C22.2542 39.4851 22.965 39.2144 23.7772 39.2144C24.5896 39.2144 25.289 39.4851 25.8756 40.0269C26.4849 40.5456 26.7896 41.2677 26.7896 42.1928ZM35.3547 55.6635C35.3547 58.4841 36.4942 59.8942 38.773 59.8942C39.2921 59.8942 39.7771 59.8265 40.2285 59.6911C40.6798 59.5558 41.0633 59.3979 41.3793 59.2173V51.162C41.131 51.1171 40.8376 51.0831 40.4992 51.0606C40.1608 51.0155 39.7659 50.9929 39.3146 50.9929C37.9834 50.9929 36.9906 51.4328 36.3362 52.3129C35.6818 53.1929 35.3547 54.3098 35.3547 55.6635ZM46.4224 62.9066C46.4224 65.8173 45.6777 67.9723 44.1885 69.3712C42.7218 70.7928 40.4427 71.5034 37.3516 71.5034C36.2685 71.5034 35.1855 71.4019 34.1023 71.1989C33.0193 71.0183 32.0153 70.7701 31.0902 70.4542L31.9701 66.2234C32.7598 66.5394 33.5835 66.7877 34.4407 66.9682C35.3209 67.1486 36.3137 67.2389 37.4193 67.2389C38.8633 67.2389 39.8788 66.9231 40.4655 66.2911C41.0746 65.6595 41.3793 64.8473 41.3793 63.8542V63.2112C40.8376 63.4593 40.2737 63.6511 39.687 63.7865C39.1228 63.8994 38.5024 63.9558 37.8254 63.9558C35.3661 63.9558 33.4819 63.2338 32.1731 61.7897C30.8644 60.3231 30.21 58.281 30.21 55.6635C30.21 54.355 30.413 53.1704 30.8194 52.1099C31.2255 51.0266 31.8122 50.1015 32.5793 49.3345C33.369 48.5672 34.3281 47.9806 35.4563 47.5745C36.5845 47.1456 37.8592 46.9313 39.2809 46.9313C39.89 46.9313 40.5105 46.9652 41.1423 47.0329C41.7967 47.0779 42.4398 47.1456 43.0714 47.236C43.7034 47.3262 44.3014 47.439 44.8653 47.5745C45.452 47.6873 45.971 47.8112 46.4224 47.9466V62.9066ZM56.1953 65.1405H51.1523V47.3374H56.1953V65.1405ZM56.6691 42.1928C56.6691 43.118 56.3646 43.8512 55.7552 44.393C55.1685 44.912 54.4692 45.1713 53.657 45.1713C52.8445 45.1713 52.1339 44.912 51.5245 44.393C50.9378 43.8512 50.6446 43.118 50.6446 42.1928C50.6446 41.2677 50.9378 40.5456 51.5245 40.0269C52.1339 39.4851 52.8445 39.2144 53.657 39.2144C54.4692 39.2144 55.1685 39.4851 55.7552 40.0269C56.3646 40.5456 56.6691 41.2677 56.6691 42.1928Z" fill="#FF9500"/>
<path d="M67.7397 61.6205C68.2361 61.6205 68.7099 61.6091 69.1612 61.5866C69.6126 61.564 69.9735 61.5301 70.2442 61.4852V57.6606C70.0412 57.6154 69.7367 57.5701 69.3305 57.5252C68.9243 57.48 68.5521 57.4575 68.2136 57.4575C67.7397 57.4575 67.2885 57.4913 66.8597 57.5589C66.4535 57.6042 66.0925 57.7055 65.7767 57.8636C65.4607 58.0215 65.2126 58.2358 65.032 58.5065C64.8516 58.7775 64.7612 59.1159 64.7612 59.522C64.7612 60.3118 65.0207 60.8645 65.5397 61.1805C66.0812 61.4737 66.8145 61.6205 67.7397 61.6205ZM67.3336 46.8636C68.8228 46.8636 70.0639 47.0329 71.0567 47.3713C72.0494 47.7099 72.8392 48.1948 73.4259 48.8268C74.0351 49.4584 74.4638 50.2257 74.7119 51.1283C74.9602 52.0307 75.0844 53.0349 75.0844 54.1405V64.6326C74.3623 64.7908 73.3582 64.9712 72.072 65.1741C70.786 65.3999 69.2289 65.5128 67.4011 65.5128C66.2505 65.5128 65.2013 65.4112 64.2537 65.2082C63.3285 65.0051 62.5273 64.6779 61.8505 64.2265C61.1736 63.7527 60.6546 63.1436 60.2937 62.3988C59.9325 61.6543 59.752 60.7405 59.752 59.6574C59.752 58.6194 59.9551 57.7395 60.3614 57.0175C60.79 56.2954 61.3542 55.72 62.0535 55.2913C62.7531 54.8625 63.5541 54.558 64.4567 54.3774C65.3591 54.1744 66.2957 54.0728 67.2659 54.0728C67.9202 54.0728 68.4957 54.1067 68.9919 54.1744C69.511 54.2196 69.9285 54.2873 70.2442 54.3774V53.9036C70.2442 53.0462 69.9848 52.3579 69.4659 51.8389C68.9469 51.3201 68.0443 51.0606 66.7583 51.0606C65.9009 51.0606 65.0546 51.1283 64.2197 51.2636C63.3848 51.3764 62.663 51.5457 62.0535 51.7712L61.4106 47.7099C61.7039 47.6196 62.0648 47.5293 62.4936 47.439C62.9449 47.3262 63.43 47.236 63.949 47.1683C64.468 47.0779 65.0095 47.0103 65.5736 46.9652C66.1602 46.8975 66.7469 46.8636 67.3336 46.8636ZM78.7983 56.239C78.7983 54.9529 79.0013 53.7455 79.4076 52.6173C79.8362 51.4667 80.4455 50.474 81.2352 49.639C82.0249 48.7815 82.984 48.1047 84.1122 47.6081C85.2403 47.1119 86.5264 46.8636 87.9705 46.8636C88.9183 46.8636 89.787 46.9539 90.5768 47.1343C91.3665 47.2925 92.1335 47.5293 92.8783 47.8451L91.8291 51.8728C91.3552 51.6923 90.8362 51.5344 90.2721 51.399C89.708 51.2636 89.0762 51.1959 88.3766 51.1959C86.8875 51.1959 85.7706 51.6586 85.0261 52.5837C84.304 53.5088 83.9429 54.7272 83.9429 56.239C83.9429 57.841 84.2813 59.082 84.9583 59.9622C85.6577 60.8421 86.8651 61.2821 88.5797 61.2821C89.189 61.2821 89.8434 61.2256 90.5428 61.1128C91.2423 60.9999 91.8856 60.8193 92.472 60.5713L93.1828 64.7003C92.5961 64.9486 91.8628 65.1629 90.9829 65.3435C90.103 65.524 89.1326 65.6143 88.0721 65.6143C86.4475 65.6143 85.0486 65.3775 83.8752 64.9035C82.7018 64.4071 81.7317 63.7415 80.9644 62.9066C80.2199 62.0716 79.6669 61.0902 79.306 59.9622C78.9676 58.8112 78.7983 57.5701 78.7983 56.239ZM94.8619 56.239C94.8619 54.9529 95.0649 53.7455 95.471 52.6173C95.8999 51.4667 96.5091 50.474 97.2988 49.639C98.0886 48.7815 99.0475 48.1047 100.176 47.6081C101.304 47.1119 102.59 46.8636 104.034 46.8636C104.982 46.8636 105.85 46.9539 106.64 47.1343C107.43 47.2925 108.197 47.5293 108.942 47.8451L107.893 51.8728C107.419 51.6923 106.9 51.5344 106.336 51.399C105.772 51.2636 105.14 51.1959 104.44 51.1959C102.951 51.1959 101.834 51.6586 101.089 52.5837C100.367 53.5088 100.006 54.7272 100.006 56.239C100.006 57.841 100.345 59.082 101.022 59.9622C101.721 60.8421 102.928 61.2821 104.643 61.2821C105.252 61.2821 105.907 61.2256 106.606 61.1128C107.306 60.9999 107.949 60.8193 108.536 60.5713L109.247 64.7003C108.66 64.9486 107.926 65.1629 107.047 65.3435C106.166 65.524 105.196 65.6143 104.136 65.6143C102.511 65.6143 101.112 65.3775 99.9388 64.9035C98.7654 64.4071 97.7951 63.7415 97.0281 62.9066C96.2835 62.0716 95.7306 61.0902 95.3697 59.9622C95.0313 58.8112 94.8619 57.5701 94.8619 56.239ZM110.926 56.3744C110.926 54.7948 111.162 53.4184 111.636 52.2453C112.133 51.0491 112.776 50.0564 113.566 49.2666C114.355 48.477 115.258 47.8789 116.273 47.4728C117.311 47.0667 118.371 46.8636 119.455 46.8636C121.982 46.8636 123.978 47.6422 125.445 49.199C126.912 50.7334 127.646 53.001 127.646 56.0022C127.646 56.2954 127.634 56.6225 127.612 56.9835C127.589 57.3221 127.567 57.6266 127.543 57.8974H116.104C116.217 58.9353 116.702 59.7588 117.56 60.3683C118.417 60.9774 119.568 61.2821 121.012 61.2821C121.937 61.2821 122.839 61.203 123.719 61.0451C124.622 60.8645 125.355 60.6502 125.92 60.4019L126.596 64.4973C126.325 64.6326 125.964 64.768 125.513 64.9035C125.062 65.0389 124.554 65.1517 123.99 65.2419C123.449 65.3547 122.862 65.4451 122.23 65.5128C121.599 65.5805 120.967 65.6143 120.334 65.6143C118.733 65.6143 117.333 65.3775 116.138 64.9035C114.964 64.4296 113.983 63.7865 113.193 62.9743C112.426 62.1394 111.851 61.1579 111.467 60.0297C111.106 58.9014 110.926 57.683 110.926 56.3744ZM122.772 54.4451C122.75 54.0164 122.671 53.599 122.535 53.1929C122.422 52.7867 122.23 52.4256 121.96 52.1099C121.711 51.7939 121.384 51.5344 120.977 51.3313C120.594 51.1283 120.109 51.0266 119.522 51.0266C118.958 51.0266 118.474 51.1283 118.067 51.3313C117.661 51.5117 117.323 51.76 117.052 52.076C116.78 52.3918 116.567 52.764 116.409 53.1929C116.273 53.599 116.172 54.0164 116.104 54.4451H122.772ZM138.645 65.4789C137.179 65.4563 135.982 65.2983 135.057 65.0051C134.155 64.7116 133.432 64.3055 132.891 63.7865C132.372 63.245 132.011 62.6019 131.808 61.8574C131.628 61.0902 131.537 60.2329 131.537 59.285V39.6882L136.58 38.876V58.2697C136.58 58.7211 136.614 59.1272 136.682 59.4881C136.749 59.8493 136.873 60.1538 137.054 60.4019C137.258 60.6502 137.539 60.8533 137.9 61.0112C138.261 61.1692 138.746 61.2707 139.356 61.3159L138.645 65.4789Z" fill="#0B00AE"/>
<path d="M90.2047 6.46906C90.2047 2.89629 87.3084 0 83.7356 0C80.1629 0 77.2666 2.89629 77.2666 6.46906V25.8761C77.2666 29.4489 80.1629 32.3452 83.7356 32.3452C87.3084 32.3452 90.2047 29.4489 90.2047 25.8761V6.46906Z" fill="#0B00AE"/>
<path d="M83.738 11.3162C86.4175 11.3162 88.5899 9.144 88.5899 6.46443C88.5899 3.78487 86.4175 1.61264 83.738 1.61264C81.0584 1.61264 78.8862 3.78487 78.8862 6.46443C78.8862 9.144 81.0584 11.3162 83.738 11.3162Z" fill="#FF9500"/>
<path d="M75.6475 16.1813C75.6475 12.6085 72.7513 9.71219 69.1786 9.71219C65.6057 9.71219 62.7095 12.6085 62.7095 16.1813V25.8848C62.7095 29.4576 65.6057 32.3539 69.1786 32.3539C72.7513 32.3539 75.6475 29.4576 75.6475 25.8848V16.1813Z" fill="#0B00AE"/>
<path d="M61.091 25.8867C61.091 22.3138 58.1947 19.4176 54.6219 19.4176C51.0492 19.4176 48.1528 22.3138 48.1528 25.8867C48.1528 29.4594 51.0492 32.3556 54.6219 32.3556C58.1947 32.3556 61.091 29.4594 61.091 25.8867Z" fill="#0B00AE"/>
<path d="M69.181 21.0284C71.8605 21.0284 74.0327 18.8562 74.0327 16.1767C74.0327 13.4971 71.8605 11.3249 69.181 11.3249C66.5014 11.3249 64.3291 13.4971 64.3291 16.1767C64.3291 18.8562 66.5014 21.0284 69.181 21.0284Z" fill="#FF9500"/>
<path d="M54.6286 30.7338C57.3082 30.7338 59.4804 28.5616 59.4804 25.882C59.4804 23.2025 57.3082 21.0303 54.6286 21.0303C51.949 21.0303 49.7769 23.2025 49.7769 25.882C49.7769 28.5616 51.949 30.7338 54.6286 30.7338Z" fill="#FF9500"/>
</g>
<defs>
<clipPath id="clip0_6907_15475">
<rect width="139.355" height="72" fill="white"/>
</clipPath>
</defs>
</svg>
