<svg width="24" height="24" viewBox="0 0 24 24" fill="none" xmlns="http://www.w3.org/2000/svg">
<path d="M8.71049 8.71C8.80317 8.61656 8.87649 8.50574 8.92626 8.38391C8.97602 8.26207 9.00125 8.13161 9.00049 8V4C9.00049 3.73478 8.89513 3.48043 8.70759 3.29289C8.52006 3.10536 8.2657 3 8.00049 3H4.00049C3.73527 3 3.48092 3.10536 3.29338 3.29289C3.10585 3.48043 3.00049 3.73478 3.00049 4C3.00049 8.50868 4.79155 12.8327 7.97967 16.0208C11.1678 19.2089 15.4918 21 20.0005 21C20.2657 21 20.5201 20.8946 20.7076 20.7071C20.8951 20.5196 21.0005 20.2652 21.0005 20V16C21.0005 15.7348 20.8951 15.4804 20.7076 15.2929C20.5201 15.1054 20.2657 15 20.0005 15H16.0005C15.8689 14.9992 15.7384 15.0245 15.6166 15.0742C15.4947 15.124 15.3839 15.1973 15.2905 15.29L13.2905 17.29L13.2205 17.38C10.3803 15.93 8.07051 13.6202 6.62049 10.78L6.71049 10.71L8.71049 8.71ZM16.4105 17H19.0005V19C17.7063 18.912 16.429 18.6566 15.2005 18.24L16.4105 17ZM5.79049 8.8C5.3637 7.57289 5.09814 6.29553 5.00049 5H7.00049V7.59L5.79049 8.8Z" fill="#A3A3A3"/>
</svg>
