<svg width="39" height="23" viewBox="0 0 39 23" fill="none" xmlns="http://www.w3.org/2000/svg">
<path d="M106.251 -55.5352L116.265 60.3923L-55.227 75.206L-65.241 -40.7214L106.251 -55.5352Z" fill="#4B4B4B"/>
<path d="M1.66867 6.23466C3.55469 6.07174 5.21592 7.46967 5.37894 9.35684C5.54196 11.244 4.14505 12.9061 2.25904 13.069C0.373019 13.2319 -1.28822 11.834 -1.45123 9.94684C-1.61425 8.05967 -0.217344 6.39758 1.66867 6.23466Z" fill="white"/>
<path d="M29.8633 -0.62648C27.9761 -0.463463 26.5783 1.19871 26.7413 3.08588C26.9043 4.97305 28.5665 6.37089 30.4537 6.20787C32.3408 6.04485 33.7387 4.38268 33.5757 2.49551C33.4127 0.608346 31.7505 -0.789497 29.8633 -0.62648Z" fill="white"/>
</svg>
