<svg width="70" height="66" viewBox="0 0 70 66" fill="none" xmlns="http://www.w3.org/2000/svg">
<g filter="url(#filter0_dd_4_5067)">
<rect y="0.03125" width="70" height="57" rx="28.5" fill="#E5E5E5"/>
</g>
<path d="M56 20.0236C56 18.0214 54.3329 16.3982 52.2765 16.3982H43.9359C38.4521 16.3982 34.0066 20.7266 34.0066 26.066V43.3714C34.0066 44.0388 34.5686 44.5951 35.2481 44.5066C39.129 44.0009 37.7034 41.049 44.4323 41.049C46.3039 41.049 50.1106 41.049 52.2776 41.049C54.3341 41.049 56 39.4258 56 37.4236V20.0236Z" fill="#AFAFAF"/>
<path d="M14 20.0236C14 18.0214 15.6671 16.3982 17.7235 16.3982H26.0641C31.5479 16.3982 35.9934 20.7266 35.9934 26.066V43.3714C35.9934 44.0388 35.4313 44.5907 34.749 44.5261C29.97 44.074 32.3992 40.9218 25.5676 40.9218C23.696 40.9218 19.8893 40.9218 17.7223 40.9218C15.6659 40.9218 14 39.2986 14 37.2963V20.0236Z" fill="#AFAFAF"/>
<path d="M50.8864 15.4318C50.8864 13.83 49.5527 12.5315 47.9076 12.5315H41.95C37.563 12.5315 34.0066 15.9942 34.0066 20.2657V37.6678C34.0066 38.2017 34.4591 38.6534 34.9949 38.5395C37.3482 38.0391 37.1355 35.7342 42.4465 35.7342C43.9718 35.7342 46.1481 35.7342 47.9087 35.7342C49.5538 35.7342 50.8864 34.4357 50.8864 32.8339V15.4318Z" fill="#D8D8D8"/>
<path d="M19.1132 15.4318C19.1132 13.83 20.4468 12.5315 22.0919 12.5315H28.0495C32.4366 12.5315 35.9929 15.9942 35.9929 20.2657V37.6678C35.9929 38.2017 35.5445 38.6497 35.0036 38.562C32.236 38.113 32.9484 35.7342 27.5531 35.7342C26.0277 35.7342 23.8514 35.7342 22.0908 35.7342C20.4457 35.7342 19.1132 34.4357 19.1132 32.8339V15.4318Z" fill="#D8D8D8"/>
<path opacity="0.4" fill-rule="evenodd" clip-rule="evenodd" d="M33.5113 14.6502C34.0999 15.1931 34.6032 15.8228 34.9995 16.5183C35.3964 15.8219 35.9005 15.1915 36.4901 14.6481V37.8272C36.2659 37.9958 36.0336 38.1499 35.769 38.2772C35.5866 38.4896 35.3098 38.6119 35.0034 38.5621C34.9797 38.5583 34.9563 38.5543 34.9332 38.5502C34.7276 38.5778 34.5368 38.5228 34.3824 38.4135C34.0419 38.302 33.7625 38.1548 33.5113 37.9865V14.6502Z" fill="#AFAFAF"/>
<defs>
<filter id="filter0_dd_4_5067" x="0" y="0.03125" width="70" height="65" filterUnits="userSpaceOnUse" color-interpolation-filters="sRGB">
<feFlood flood-opacity="0" result="BackgroundImageFix"/>
<feColorMatrix in="SourceAlpha" type="matrix" values="0 0 0 0 0 0 0 0 0 0 0 0 0 0 0 0 0 0 127 0" result="hardAlpha"/>
<feOffset dy="8"/>
<feComposite in2="hardAlpha" operator="out"/>
<feColorMatrix type="matrix" values="0 0 0 0 0.898039 0 0 0 0 0.898039 0 0 0 0 0.898039 0 0 0 1 0"/>
<feBlend mode="normal" in2="BackgroundImageFix" result="effect1_dropShadow_4_5067"/>
<feColorMatrix in="SourceAlpha" type="matrix" values="0 0 0 0 0 0 0 0 0 0 0 0 0 0 0 0 0 0 127 0" result="hardAlpha"/>
<feOffset dy="8"/>
<feComposite in2="hardAlpha" operator="out"/>
<feColorMatrix type="matrix" values="0 0 0 0 0 0 0 0 0 0 0 0 0 0 0 0 0 0 0.2 0"/>
<feBlend mode="normal" in2="effect1_dropShadow_4_5067" result="effect2_dropShadow_4_5067"/>
<feBlend mode="normal" in="SourceGraphic" in2="effect2_dropShadow_4_5067" result="shape"/>
</filter>
</defs>
</svg>
