<svg width="70" height="66" viewBox="0 0 70 66" fill="none" xmlns="http://www.w3.org/2000/svg">
<g filter="url(#filter0_dd_4_5061)">
<rect y="0.03125" width="70" height="57" rx="28.5" fill="#E5E5E5"/>
</g>
<g clip-path="url(#clip0_4_5061)">
<path fill-rule="evenodd" clip-rule="evenodd" d="M28.0867 12.1876C25.241 10.9642 21.9718 13.0353 21.9718 16.1929V24.9403C21.9718 31.3416 26.3546 36.6957 32.2181 38.0339C33.2287 38.4139 33.5393 38.9251 33.5793 39.3325V39.4211V39.4269V39.5071C33.5687 39.7591 33.4591 40.1013 33.1536 40.3783H29.9409C29.1526 40.3783 28.5136 41.0173 28.5136 41.8056C28.5136 41.9662 28.5401 42.1205 28.5889 42.2645H27.0182C26.2272 42.2645 25.5859 42.9058 25.5859 43.6969C25.5859 44.488 26.2272 45.1292 27.0182 45.1292H42.7601C43.5512 45.1292 44.1925 44.488 44.1925 43.6969C44.1925 42.9058 43.5512 42.2645 42.7601 42.2645H41.4615C41.5103 42.1205 41.5368 41.9662 41.5368 41.8056C41.5368 41.0173 40.8978 40.3783 40.1095 40.3783H36.8507C36.5685 40.1553 36.4241 39.8811 36.3681 39.6445V39.3621C36.4457 38.9038 36.8765 38.3362 38.2268 37.9687C43.9533 36.5292 48.2011 31.2422 48.2011 24.9403V16.1929C48.2011 13.0353 44.9319 10.9642 42.0862 12.1876C39.4325 13.3284 36.5919 14.3728 35.0864 14.3728C33.581 14.3728 30.7403 13.3284 28.0867 12.1876ZM18.3501 27.906C16.6223 26.9976 15.6822 24.9797 16.2003 23.0199C16.3068 22.6171 16.7187 22.3806 17.1203 22.4917L17.2599 22.5303C18.4603 22.8624 19.4022 23.681 19.93 24.7153C20.2782 24.9178 20.5097 25.2975 20.5026 25.7289C20.4863 26.7309 20.6509 28.4387 21.2087 30.1797C21.7689 31.9279 22.6856 33.5877 24.0855 34.6532C24.5909 35.0378 24.6887 35.7593 24.3041 36.2647C24.2195 36.3758 24.1187 36.4672 24.0075 36.5381C23.0562 38.3753 20.8665 39.2317 18.8871 38.459C18.506 38.3103 18.3129 37.8789 18.4559 37.4955L18.5711 37.1868C19.0073 36.0175 19.9108 35.1686 20.9883 34.7713C20.6797 34.3691 20.4044 33.9476 20.1588 33.5159C18.2609 33.8723 16.3212 32.8674 15.5567 30.9997C15.3991 30.6148 15.5813 30.17 15.9637 30.0062L16.1139 29.9419C16.9626 29.5784 17.86 29.5161 18.6894 29.7074C18.5379 29.0815 18.4273 28.4735 18.3501 27.906ZM49.6154 24.7771C49.3208 24.9897 49.1315 25.3381 49.1379 25.7289C49.1542 26.7309 48.9896 28.4387 48.4318 30.1797C47.8717 31.9279 46.9549 33.5877 45.555 34.6532C45.0496 35.0378 44.9518 35.7593 45.3364 36.2647C45.4351 36.3944 45.556 36.4973 45.6897 36.572C46.6503 38.3858 48.8252 39.2269 50.7924 38.459C51.1735 38.3103 51.3666 37.8789 51.2236 37.4955L51.1084 37.1868C50.6681 36.0065 49.7516 35.1526 48.6608 34.7602C48.9786 34.3446 49.2612 33.9086 49.5122 33.4621C51.4859 33.9574 53.5623 32.948 54.3598 30.9997C54.5174 30.6148 54.3352 30.17 53.9528 30.0062L53.8026 29.9419C52.852 29.5347 51.8405 29.5055 50.9317 29.7871C51.0997 29.1068 51.2193 28.4464 51.3 27.8347C53.0398 26.8685 53.9272 24.7739 53.3135 22.808C53.1894 22.4104 52.7679 22.193 52.372 22.3223L52.2291 22.369C51.0073 22.7681 50.0835 23.6726 49.6154 24.7771Z" fill="#AFAFAF"/>
</g>
<defs>
<filter id="filter0_dd_4_5061" x="0" y="0.03125" width="70" height="65" filterUnits="userSpaceOnUse" color-interpolation-filters="sRGB">
<feFlood flood-opacity="0" result="BackgroundImageFix"/>
<feColorMatrix in="SourceAlpha" type="matrix" values="0 0 0 0 0 0 0 0 0 0 0 0 0 0 0 0 0 0 127 0" result="hardAlpha"/>
<feOffset dy="8"/>
<feComposite in2="hardAlpha" operator="out"/>
<feColorMatrix type="matrix" values="0 0 0 0 0.898039 0 0 0 0 0.898039 0 0 0 0 0.898039 0 0 0 1 0"/>
<feBlend mode="normal" in2="BackgroundImageFix" result="effect1_dropShadow_4_5061"/>
<feColorMatrix in="SourceAlpha" type="matrix" values="0 0 0 0 0 0 0 0 0 0 0 0 0 0 0 0 0 0 127 0" result="hardAlpha"/>
<feOffset dy="8"/>
<feComposite in2="hardAlpha" operator="out"/>
<feColorMatrix type="matrix" values="0 0 0 0 0 0 0 0 0 0 0 0 0 0 0 0 0 0 0.2 0"/>
<feBlend mode="normal" in2="effect1_dropShadow_4_5061" result="effect2_dropShadow_4_5061"/>
<feBlend mode="normal" in="SourceGraphic" in2="effect2_dropShadow_4_5061" result="shape"/>
</filter>
<clipPath id="clip0_4_5061">
<rect width="42" height="34" fill="white" transform="translate(14 11.5312)"/>
</clipPath>
</defs>
</svg>
