<svg width="130" height="115" viewBox="0 0 130 115" fill="none" xmlns="http://www.w3.org/2000/svg">
<g filter="url(#filter0_dd_4_4729)">
<rect x="30" y="49.7812" width="70" height="57" rx="28.5" fill="#00CD9C"/>
</g>
<path fill-rule="evenodd" clip-rule="evenodd" d="M66.0423 76.2801C67.4698 77.1561 67.4698 79.2303 66.0423 80.1062L52.9184 88.1595C51.4229 89.0772 49.5 88.0011 49.5 86.2465V70.1399C49.5 68.3852 51.4229 67.3091 52.9184 68.2268L66.0423 76.2801Z" fill="white"/>
<path fill-rule="evenodd" clip-rule="evenodd" d="M79.4535 76.2801C80.881 77.1561 80.881 79.2303 79.4535 80.1062L66.3296 88.1595C64.8341 89.0772 62.9112 88.0011 62.9112 86.2465V70.1399C62.9112 68.3852 64.8341 67.3091 66.3296 68.2268L79.4535 76.2801Z" fill="white"/>
<rect x="1.5" y="1.75708" width="127" height="43" rx="9" fill="white"/>
<rect x="1.5" y="1.75708" width="127" height="43" rx="9" stroke="#E5E5E5" stroke-width="2"/>
<path d="M20.997 17.348H23.2769V24.9545C23.2769 25.6576 23.1188 26.2684 22.8028 26.7869C22.4903 27.3054 22.0553 27.7049 21.4977 27.9854C20.9402 28.266 20.2921 28.4062 19.5535 28.4062C18.8965 28.4062 18.2999 28.2908 17.7637 28.06C17.2311 27.8256 16.8085 27.4705 16.496 26.9947C16.1835 26.5152 16.029 25.9133 16.0325 25.1889H18.3284C18.3355 25.4765 18.3941 25.7233 18.5041 25.9293C18.6178 26.1317 18.7722 26.288 18.9676 26.3981C19.1664 26.5046 19.4008 26.5579 19.6707 26.5579C19.9548 26.5579 20.1945 26.4975 20.3898 26.3768C20.5887 26.2525 20.7396 26.0714 20.8426 25.8334C20.9455 25.5955 20.997 25.3025 20.997 24.9545V17.348ZM32.4321 17.348H34.7386V24.4325C34.7386 25.228 34.5486 25.924 34.1686 26.5206C33.7922 27.1172 33.2648 27.5824 32.5866 27.9162C31.9083 28.2464 31.1182 28.4116 30.2162 28.4116C29.3107 28.4116 28.5188 28.2464 27.8405 27.9162C27.1622 27.5824 26.6349 27.1172 26.2585 26.5206C25.882 25.924 25.6938 25.228 25.6938 24.4325V17.348H28.0003V24.2354C28.0003 24.6509 28.0908 25.0202 28.272 25.3434C28.4566 25.6665 28.7158 25.9204 29.0496 26.1051C29.3835 26.2898 29.7723 26.3821 30.2162 26.3821C30.6636 26.3821 31.0525 26.2898 31.3827 26.1051C31.7166 25.9204 31.974 25.6665 32.1551 25.3434C32.3398 25.0202 32.4321 24.6509 32.4321 24.2354V17.348ZM37.1462 17.348H39.9907L42.9949 24.6775H43.1228L46.127 17.348H48.9715V28.2571H46.7343V21.1566H46.6437L43.8206 28.2038H42.2971L39.474 21.1299H39.3834V28.2571H37.1462V17.348ZM51.3818 28.2571V17.348H55.6858C56.5132 17.348 57.2181 17.506 57.8005 17.8221C58.3829 18.1346 58.8268 18.5696 59.1321 19.1271C59.4411 19.6811 59.5956 20.3203 59.5956 21.0447C59.5956 21.7692 59.4393 22.4084 59.1268 22.9623C58.8143 23.5163 58.3616 23.9478 57.7685 24.2567C57.179 24.5657 56.4652 24.7201 55.6272 24.7201H52.8839V22.8718H55.2543C55.6982 22.8718 56.064 22.7954 56.3516 22.6427C56.6428 22.4865 56.8594 22.2716 57.0015 21.9982C57.1471 21.7212 57.2199 21.4034 57.2199 21.0447C57.2199 20.6825 57.1471 20.3665 57.0015 20.0966C56.8594 19.8231 56.6428 19.6118 56.3516 19.4627C56.0604 19.31 55.6911 19.2336 55.2437 19.2336H53.6883V28.2571H51.3818ZM65.5854 28.2571V17.348H67.8919V21.8491H72.574V17.348H74.8752V28.2571H72.574V23.7507H67.8919V28.2571H65.5854ZM77.2868 28.2571V17.348H84.6376V19.2496H79.5933V21.8491H84.2595V23.7507H79.5933V26.3554H84.659V28.2571H77.2868ZM86.9814 28.2571V17.348H91.2853C92.1092 17.348 92.8123 17.4954 93.3947 17.7901C93.9807 18.0813 94.4263 18.495 94.7317 19.0312C95.0407 19.5639 95.1951 20.1907 95.1951 20.9116C95.1951 21.636 95.0389 22.2592 94.7264 22.7812C94.4139 23.2997 93.9611 23.6974 93.3681 23.9744C92.7786 24.2514 92.0648 24.3899 91.2267 24.3899H88.345V22.5362H90.8539C91.2942 22.5362 91.66 22.4758 91.9512 22.3551C92.2424 22.2344 92.459 22.0532 92.601 21.8118C92.7466 21.5703 92.8194 21.2702 92.8194 20.9116C92.8194 20.5493 92.7466 20.2439 92.601 19.9954C92.459 19.7468 92.2406 19.5586 91.9459 19.4307C91.6547 19.2993 91.2871 19.2336 90.8432 19.2336H89.2878V28.2571H86.9814ZM92.8727 23.2926L95.584 28.2571H93.0378L90.3851 23.2926H92.8727ZM97.3351 28.2571V17.348H104.686V19.2496H99.6416V21.8491H104.308V23.7507H99.6416V26.3554H104.707V28.2571H97.3351ZM108.937 24.9865V24.8054C108.94 24.1839 108.995 23.6885 109.102 23.3192C109.212 22.9499 109.372 22.6516 109.581 22.4243C109.791 22.1971 110.043 21.9911 110.338 21.8064C110.558 21.6644 110.755 21.517 110.929 21.3643C111.103 21.2116 111.241 21.0429 111.344 20.8583C111.447 20.6701 111.499 20.4606 111.499 20.2297C111.499 19.9847 111.44 19.7699 111.323 19.5852C111.206 19.4005 111.048 19.2585 110.849 19.1591C110.654 19.0596 110.437 19.0099 110.199 19.0099C109.968 19.0099 109.75 19.0614 109.544 19.1644C109.338 19.2638 109.169 19.413 109.038 19.6118C108.906 19.8072 108.835 20.0504 108.825 20.3416H106.651C106.669 19.6314 106.84 19.0454 107.163 18.5838C107.486 18.1186 107.914 17.7723 108.447 17.5451C108.979 17.3143 109.567 17.1988 110.21 17.1988C110.916 17.1988 111.541 17.316 112.085 17.5504C112.628 17.7812 113.054 18.1168 113.363 18.5572C113.672 18.9975 113.827 19.5284 113.827 20.1498C113.827 20.5653 113.757 20.9346 113.619 21.2578C113.484 21.5774 113.294 21.8615 113.049 22.1101C112.804 22.3551 112.514 22.577 112.181 22.7759C111.9 22.9428 111.669 23.1168 111.488 23.2979C111.311 23.479 111.177 23.6885 111.089 23.9265C111.003 24.1644 110.959 24.4574 110.955 24.8054V24.9865H108.937ZM109.991 28.3956C109.636 28.3956 109.333 28.2713 109.08 28.0227C108.832 27.7706 108.709 27.4687 108.713 27.1172C108.709 26.7692 108.832 26.4709 109.08 26.2223C109.333 25.9737 109.636 25.8494 109.991 25.8494C110.329 25.8494 110.625 25.9737 110.881 26.2223C111.137 26.4709 111.266 26.7692 111.27 27.1172C111.266 27.3515 111.204 27.5664 111.083 27.7617C110.966 27.9535 110.812 28.1079 110.62 28.2251C110.428 28.3388 110.219 28.3956 109.991 28.3956Z" fill="#00CD9C"/>
<defs>
<filter id="filter0_dd_4_4729" x="30" y="49.7812" width="70" height="65" filterUnits="userSpaceOnUse" color-interpolation-filters="sRGB">
<feFlood flood-opacity="0" result="BackgroundImageFix"/>
<feColorMatrix in="SourceAlpha" type="matrix" values="0 0 0 0 0 0 0 0 0 0 0 0 0 0 0 0 0 0 127 0" result="hardAlpha"/>
<feOffset dy="8"/>
<feComposite in2="hardAlpha" operator="out"/>
<feColorMatrix type="matrix" values="0 0 0 0 0 0 0 0 0 0.803922 0 0 0 0 0.611765 0 0 0 1 0"/>
<feBlend mode="normal" in2="BackgroundImageFix" result="effect1_dropShadow_4_4729"/>
<feColorMatrix in="SourceAlpha" type="matrix" values="0 0 0 0 0 0 0 0 0 0 0 0 0 0 0 0 0 0 127 0" result="hardAlpha"/>
<feOffset dy="8"/>
<feComposite in2="hardAlpha" operator="out"/>
<feColorMatrix type="matrix" values="0 0 0 0 0 0 0 0 0 0 0 0 0 0 0 0 0 0 0.2 0"/>
<feBlend mode="normal" in2="effect1_dropShadow_4_4729" result="effect2_dropShadow_4_4729"/>
<feBlend mode="normal" in="SourceGraphic" in2="effect2_dropShadow_4_4729" result="shape"/>
</filter>
</defs>
</svg>
