<svg width="130" height="115" viewBox="0 0 130 115" fill="none" xmlns="http://www.w3.org/2000/svg">
<g filter="url(#filter0_dd_4_4954)">
<rect x="30" y="49.625" width="70" height="57" rx="28.5" fill="#CE82FF"/>
</g>
<path fill-rule="evenodd" clip-rule="evenodd" d="M66.0423 76.1239C67.4698 76.9999 67.4698 79.0741 66.0423 79.95L52.9184 88.0033C51.4229 88.921 49.5 87.8449 49.5 86.0903V69.9837C49.5 68.229 51.4229 67.1529 52.9184 68.0706L66.0423 76.1239Z" fill="white"/>
<path fill-rule="evenodd" clip-rule="evenodd" d="M79.4535 76.1239C80.881 76.9999 80.881 79.0741 79.4535 79.95L66.3296 88.0033C64.8341 88.921 62.9112 87.8449 62.9112 86.0903V69.9837C62.9112 68.229 64.8341 67.1529 66.3296 68.0706L79.4535 76.1239Z" fill="white"/>
<rect x="1.5" y="1.60071" width="127" height="43" rx="9" fill="white"/>
<rect x="1.5" y="1.60071" width="127" height="43" rx="9" stroke="#E5E5E5" stroke-width="2"/>
<path d="M20.997 17.1916H23.2769V24.7982C23.2769 25.5013 23.1188 26.1121 22.8028 26.6305C22.4903 27.149 22.0553 27.5485 21.4977 27.829C20.9402 28.1096 20.2921 28.2499 19.5535 28.2499C18.8965 28.2499 18.2999 28.1344 17.7637 27.9036C17.2311 27.6692 16.8085 27.3141 16.496 26.8383C16.1835 26.3589 16.029 25.757 16.0325 25.0325H18.3284C18.3355 25.3202 18.3941 25.567 18.5041 25.7729C18.6178 25.9754 18.7722 26.1316 18.9676 26.2417C19.1664 26.3482 19.4008 26.4015 19.6707 26.4015C19.9548 26.4015 20.1945 26.3411 20.3898 26.2204C20.5887 26.0961 20.7396 25.915 20.8426 25.6771C20.9455 25.4391 20.997 25.1462 20.997 24.7982V17.1916ZM32.4321 17.1916H34.7386V24.2761C34.7386 25.0716 34.5486 25.7676 34.1686 26.3642C33.7922 26.9608 33.2648 27.426 32.5866 27.7598C31.9083 28.0901 31.1182 28.2552 30.2162 28.2552C29.3107 28.2552 28.5188 28.0901 27.8405 27.7598C27.1622 27.426 26.6349 26.9608 26.2585 26.3642C25.882 25.7676 25.6938 25.0716 25.6938 24.2761V17.1916H28.0003V24.079C28.0003 24.4945 28.0908 24.8638 28.272 25.187C28.4566 25.5102 28.7158 25.7641 29.0496 25.9487C29.3835 26.1334 29.7723 26.2257 30.2162 26.2257C30.6636 26.2257 31.0525 26.1334 31.3827 25.9487C31.7166 25.7641 31.974 25.5102 32.1551 25.187C32.3398 24.8638 32.4321 24.4945 32.4321 24.079V17.1916ZM37.1462 17.1916H39.9907L42.9949 24.5212H43.1228L46.127 17.1916H48.9715V28.1007H46.7343V21.0002H46.6437L43.8206 28.0474H42.2971L39.474 20.9736H39.3834V28.1007H37.1462V17.1916ZM51.3818 28.1007V17.1916H55.6858C56.5132 17.1916 57.2181 17.3496 57.8005 17.6657C58.3829 17.9782 58.8268 18.4132 59.1321 18.9707C59.4411 19.5247 59.5956 20.1639 59.5956 20.8883C59.5956 21.6128 59.4393 22.252 59.1268 22.806C58.8143 23.3599 58.3616 23.7914 57.7685 24.1004C57.179 24.4093 56.4652 24.5638 55.6272 24.5638H52.8839V22.7154H55.2543C55.6982 22.7154 56.064 22.6391 56.3516 22.4864C56.6428 22.3301 56.8594 22.1153 57.0015 21.8418C57.1471 21.5648 57.2199 21.247 57.2199 20.8883C57.2199 20.5261 57.1471 20.2101 57.0015 19.9402C56.8594 19.6668 56.6428 19.4555 56.3516 19.3063C56.0604 19.1536 55.6911 19.0773 55.2437 19.0773H53.6883V28.1007H51.3818ZM65.5854 28.1007V17.1916H67.8919V21.6927H72.574V17.1916H74.8752V28.1007H72.574V23.5943H67.8919V28.1007H65.5854ZM77.2868 28.1007V17.1916H84.6376V19.0933H79.5933V21.6927H84.2595V23.5943H79.5933V26.1991H84.659V28.1007H77.2868ZM86.9814 28.1007V17.1916H91.2853C92.1092 17.1916 92.8123 17.339 93.3947 17.6337C93.9807 17.9249 94.4263 18.3386 94.7317 18.8749C95.0407 19.4075 95.1951 20.0343 95.1951 20.7552C95.1951 21.4796 95.0389 22.1028 94.7264 22.6249C94.4139 23.1433 93.9611 23.541 93.3681 23.818C92.7786 24.095 92.0648 24.2335 91.2267 24.2335H88.345V22.3798H90.8539C91.2942 22.3798 91.66 22.3195 91.9512 22.1987C92.2424 22.078 92.459 21.8969 92.601 21.6554C92.7466 21.4139 92.8194 21.1138 92.8194 20.7552C92.8194 20.393 92.7466 20.0876 92.601 19.839C92.459 19.5904 92.2406 19.4022 91.9459 19.2744C91.6547 19.143 91.2871 19.0773 90.8432 19.0773H89.2878V28.1007H86.9814ZM92.8727 23.1362L95.584 28.1007H93.0378L90.3851 23.1362H92.8727ZM97.3351 28.1007V17.1916H104.686V19.0933H99.6416V21.6927H104.308V23.5943H99.6416V26.1991H104.707V28.1007H97.3351ZM108.937 24.8301V24.649C108.94 24.0276 108.995 23.5322 109.102 23.1629C109.212 22.7935 109.372 22.4952 109.581 22.268C109.791 22.0407 110.043 21.8347 110.338 21.6501C110.558 21.508 110.755 21.3607 110.929 21.208C111.103 21.0553 111.241 20.8866 111.344 20.7019C111.447 20.5137 111.499 20.3042 111.499 20.0734C111.499 19.8283 111.44 19.6135 111.323 19.4288C111.206 19.2442 111.048 19.1021 110.849 19.0027C110.654 18.9033 110.437 18.8535 110.199 18.8535C109.968 18.8535 109.75 18.905 109.544 19.008C109.338 19.1075 109.169 19.2566 109.038 19.4555C108.906 19.6508 108.835 19.894 108.825 20.1852H106.651C106.669 19.475 106.84 18.8891 107.163 18.4274C107.486 17.9622 107.914 17.616 108.447 17.3887C108.979 17.1579 109.567 17.0425 110.21 17.0425C110.916 17.0425 111.541 17.1597 112.085 17.394C112.628 17.6249 113.054 17.9604 113.363 18.4008C113.672 18.8411 113.827 19.372 113.827 19.9935C113.827 20.4089 113.757 20.7783 113.619 21.1014C113.484 21.421 113.294 21.7051 113.049 21.9537C112.804 22.1987 112.514 22.4207 112.181 22.6195C111.9 22.7864 111.669 22.9604 111.488 23.1415C111.311 23.3227 111.177 23.5322 111.089 23.7701C111.003 24.008 110.959 24.301 110.955 24.649V24.8301H108.937ZM109.991 28.2392C109.636 28.2392 109.333 28.1149 109.08 27.8663C108.832 27.6142 108.709 27.3124 108.713 26.9608C108.709 26.6128 108.832 26.3145 109.08 26.0659C109.333 25.8173 109.636 25.693 109.991 25.693C110.329 25.693 110.625 25.8173 110.881 26.0659C111.137 26.3145 111.266 26.6128 111.27 26.9608C111.266 27.1952 111.204 27.41 111.083 27.6053C110.966 27.7971 110.812 27.9516 110.62 28.0687C110.428 28.1824 110.219 28.2392 109.991 28.2392Z" fill="#CE82FF"/>
<defs>
<filter id="filter0_dd_4_4954" x="30" y="49.625" width="70" height="65" filterUnits="userSpaceOnUse" color-interpolation-filters="sRGB">
<feFlood flood-opacity="0" result="BackgroundImageFix"/>
<feColorMatrix in="SourceAlpha" type="matrix" values="0 0 0 0 0 0 0 0 0 0 0 0 0 0 0 0 0 0 127 0" result="hardAlpha"/>
<feOffset dy="8"/>
<feComposite in2="hardAlpha" operator="out"/>
<feColorMatrix type="matrix" values="0 0 0 0 0.807843 0 0 0 0 0.509804 0 0 0 0 1 0 0 0 1 0"/>
<feBlend mode="normal" in2="BackgroundImageFix" result="effect1_dropShadow_4_4954"/>
<feColorMatrix in="SourceAlpha" type="matrix" values="0 0 0 0 0 0 0 0 0 0 0 0 0 0 0 0 0 0 127 0" result="hardAlpha"/>
<feOffset dy="8"/>
<feComposite in2="hardAlpha" operator="out"/>
<feColorMatrix type="matrix" values="0 0 0 0 0 0 0 0 0 0 0 0 0 0 0 0 0 0 0.2 0"/>
<feBlend mode="normal" in2="effect1_dropShadow_4_4954" result="effect2_dropShadow_4_4954"/>
<feBlend mode="normal" in="SourceGraphic" in2="effect2_dropShadow_4_4954" result="shape"/>
</filter>
</defs>
</svg>
