<svg width="81" height="91" viewBox="0 0 81 91" fill="none" xmlns="http://www.w3.org/2000/svg">
<g clip-path="url(#clip0_4_5078)">
<path opacity="0.3" d="M76.125 38.1875H4.125C1.91586 38.1875 0.125 39.9784 0.125 42.1875V74.1875C0.125 76.3966 1.91586 78.1875 4.125 78.1875H76.125C78.3341 78.1875 80.125 76.3966 80.125 74.1875V42.1875C80.125 39.9784 78.3341 38.1875 76.125 38.1875Z" fill="#AFAFAF"/>
<path d="M8.41382 39.9241C8.41382 34.3876 12.902 29.8994 18.4385 29.8994H60.8807C66.4172 29.8994 70.9054 34.3876 70.9054 39.9241V66.5078C70.9054 68.7224 69.1101 70.5177 66.8955 70.5177H12.4237C10.2091 70.5177 8.41382 68.7224 8.41382 66.5078V39.9241Z" fill="#9A9A9A"/>
<path d="M6.24695 25.4149C6.24695 19.8784 10.7352 15.3902 16.2717 15.3902H63.3878C68.9243 15.3902 73.4126 19.8784 73.4126 25.4149V55.2385H6.24695V25.4149Z" fill="#9A9A9A"/>
<path d="M77.0435 42.9591H3.23456V54.4875H77.0435V42.9591Z" fill="#D8D8D8"/>
<path d="M67.1459 25.6645H75.0424C76.1497 25.6645 77.0473 26.5621 77.0473 27.6694V45.9645H67.1459V25.6645Z" fill="#D8D8D8"/>
<path d="M3.23456 27.6694C3.23456 26.5621 4.1322 25.6645 5.2395 25.6645H11.6322C12.7395 25.6645 13.6372 26.5621 13.6372 27.6694V43.9596C13.6372 45.0669 12.7395 45.9645 11.6322 45.9645H5.2395C4.1322 45.9645 3.23456 45.0669 3.23456 43.9596V27.6694Z" fill="#D8D8D8"/>
<path d="M6.24695 14.1924C6.24695 13.0851 7.14459 12.1875 8.25189 12.1875H18.7778C19.8851 12.1875 20.7828 13.0851 20.7828 14.1924V34.6902H6.24695V14.1924Z" fill="#D8D8D8"/>
<path d="M58.8774 14.1924C58.8774 13.0851 59.7751 12.1875 60.8824 12.1875H71.4083C72.5156 12.1875 73.4133 13.0851 73.4133 14.1924V34.6902H58.8774V14.1924Z" fill="#D8D8D8"/>
<path d="M6.37878 24.3321L20.7269 20.7598V33.4097L6.37878 33.2339V24.3321Z" fill="#EDEDED"/>
<path d="M6.24695 31.9125H20.7828V46.4072H6.24695V31.9125Z" fill="#BFBFBF"/>
<path d="M6.24695 52.7311C6.24695 51.6238 7.14459 50.7261 8.25189 50.7261H18.7778C19.8851 50.7261 20.7828 51.6238 20.7828 52.7311V70.5778C20.7828 71.6851 19.8851 72.5828 18.7778 72.5828H8.25189C7.14459 72.5828 6.24695 71.6851 6.24695 70.5778V52.7311Z" fill="#BFBFBF"/>
<path d="M57.5598 52.7311C57.5598 51.6238 58.4575 50.7261 59.5648 50.7261H70.0907C71.198 50.7261 72.0957 51.6238 72.0957 52.7311V70.5778C72.0957 71.6851 71.198 72.5828 70.0907 72.5828H59.5648C58.4575 72.5828 57.5598 71.6851 57.5598 70.5778V52.7311Z" fill="#BFBFBF"/>
<path d="M73.4132 31.9125H58.8774V46.4072H73.4132V31.9125Z" fill="#BFBFBF"/>
<path d="M42.5871 50.1003H37.0735V59.8117H42.5871V50.1003Z" fill="#C4C4C4"/>
<path d="M20.7827 55.4954H6.24695V60.3825H20.7827V55.4954Z" fill="#9A9A9A"/>
<path d="M72.0956 55.4954H57.5598V60.3825H72.0956V55.4954Z" fill="#9A9A9A"/>
<path d="M57.5563 64.0055H20.7781V66.637H57.5563V64.0055Z" fill="#898989"/>
<path d="M58.872 23.827H20.7781V26.4585H58.872V23.827Z" fill="#898989"/>
<path opacity="0.92" d="M57.5563 55.4954H20.7781V60.3825H57.5563V55.4954Z" fill="#888888"/>
<path opacity="0.92" d="M58.872 35.4922H20.7781V42.9579H58.872V35.4922Z" fill="#898989"/>
<path d="M3.23456 46.4034H77.0435V55.4883C77.0435 56.5956 76.1458 57.4933 75.0385 57.4933H5.2395C4.1322 57.4933 3.23456 56.5956 3.23456 55.4883V46.4034Z" fill="#BFBFBF"/>
<path d="M46.9695 38.5705H32.0577C30.3968 38.5705 29.0503 39.917 29.0503 41.5779V53.7638C29.0503 55.4247 30.3968 56.7712 32.0577 56.7712H46.9695C48.6304 56.7712 49.9769 55.4247 49.9769 53.7638V41.5779C49.9769 39.917 48.6304 38.5705 46.9695 38.5705Z" fill="#D8D8D8"/>
<path d="M33.7262 38.5705H32.0577C30.3968 38.5705 29.0503 39.9169 29.0503 41.5779V53.7638C29.0503 55.4247 30.3968 56.7712 32.0577 56.7712H33.0617C33.5871 56.7712 34.0098 56.3393 33.9985 55.814L33.7262 43.1604V38.5705Z" fill="#EDEDED"/>
<path d="M46.9695 43.0506H32.0577C30.3968 43.0506 29.0503 44.3971 29.0503 46.058V57.9839C29.0503 59.6448 30.3968 60.9913 32.0577 60.9913H46.9695C48.6304 60.9913 49.9769 59.6448 49.9769 57.9839V46.058C49.9769 44.3971 48.6304 43.0506 46.9695 43.0506Z" fill="#BFBFBF"/>
<path d="M39.1686 53.438C41.3486 53.438 43.1158 51.8509 43.1158 49.8932C43.1158 47.9355 41.3486 46.3485 39.1686 46.3485C36.9886 46.3485 35.2214 47.9355 35.2214 49.8932C35.2214 51.8509 36.9886 53.438 39.1686 53.438Z" fill="#8A8A8A"/>
<path d="M38.272 51.7908C38.6414 51.052 39.6958 51.052 40.0652 51.7908L41.8615 55.3832C42.1948 56.0497 41.7102 56.834 40.9649 56.834H37.3723C36.6271 56.834 36.1424 56.0497 36.4757 55.3832L38.272 51.7908Z" fill="#8A8A8A"/>
<path d="M58.9105 16.5723L73.3812 13.0806V21.0453L58.9105 24.5371V16.5723Z" fill="#EDEDED"/>
<path d="M29.0521 42.5455H20.6098V46.3485H29.0521V42.5455Z" fill="#EDEDED"/>
</g>
<defs>
<clipPath id="clip0_4_5078">
<rect width="80" height="90" fill="white" transform="translate(0.125 0.1875)"/>
</clipPath>
</defs>
</svg>
