<svg width="124" height="176" viewBox="0 0 124 176" fill="none" xmlns="http://www.w3.org/2000/svg">
<path d="M39.9588 143.549C38.6698 142.631 38.4857 137.675 43.8258 136.757C47.1403 136.206 56.3474 139.51 60.5827 141.713C60.951 143.549 61.1351 145.201 60.0303 146.669C58.7413 148.138 56.5316 148.321 54.6902 148.138C51.1915 147.771 42.1685 145.201 39.9588 143.549Z" fill="#D58F77"/>
<path d="M65.7389 139.51C64.0816 138.042 64.8182 132.902 69.0534 132.718C72.1838 132.718 76.9715 138.776 80.8385 141.162C81.0226 142.814 81.0226 144.466 79.7336 145.751C78.4447 147.036 76.4191 146.853 74.5777 146.486C71.4473 145.935 67.5803 141.346 65.7389 139.51Z" fill="#D58F77"/>
<path d="M40.1428 142.08C38.8538 141.162 38.4855 137.124 43.8256 136.389C47.1402 135.839 56.3473 138.225 60.5826 140.428C60.9508 142.263 61.135 143.915 60.0301 145.384C58.7411 146.853 56.5314 147.036 54.69 146.853C51.1913 146.118 42.3525 143.732 40.1428 142.08Z" fill="#263045"/>
<path d="M65.7385 137.674C64.6336 136.573 64.6336 132.901 69.7896 132.718C72.92 132.534 77.1553 137.123 80.8381 139.51C81.0223 141.162 81.0223 142.814 79.7333 144.099C78.4443 145.384 76.4187 145.2 74.5773 144.833C71.4469 144.099 67.5799 139.51 65.7385 137.674Z" fill="#263045"/>
<path d="M61.3194 110.507C59.1097 111.424 57.4524 113.26 57.0841 115.463C54.5062 125.926 50.8233 138.959 50.8233 140.978C50.6392 142.814 53.2172 144.283 54.8744 144.65C58.3731 145.384 59.2938 144.833 60.3987 143.548C60.9511 142.814 69.4216 122.622 72.1838 105.55C68.6851 108.12 65.0022 109.038 61.3194 110.507Z" fill="#1E2940"/>
<path d="M71.9996 103.347C72.3679 119.685 70.8948 138.959 71.4472 140.978C72.5521 143.732 80.1019 144.283 80.6543 141.896C80.8385 140.795 84.3372 120.419 84.153 98.9419C79.9178 101.328 76.0508 100.41 71.9996 103.347Z" fill="#1F2A40"/>
<path d="M112.511 125.191L72.1837 101.879L71.9995 45.8911L112.327 69.2039L112.511 125.191Z" fill="#C6C6C6"/>
<path d="M40.3271 105.183L0 81.8701L77.7079 37.2637L118.035 60.3929L40.3271 105.183Z" fill="white"/>
<path d="M40.3271 166.494L0.184142 143.365L0 81.8701L40.3271 105.183V166.494Z" fill="#EBECF3"/>
<path d="M118.035 60.3931V121.887L112.511 125.192L112.327 69.2042L45.8514 107.386L46.0355 163.373L40.3271 166.494V105.183L118.035 60.3931Z" fill="#DDDDE1"/>
<path d="M92.4392 66.8174L75.1299 56.9049V54.5186L92.4392 64.6147V66.8174Z" fill="#3A4B8F"/>
<path d="M92.8923 63.5353L75.583 53.6227L88.204 46.2583L105.513 56.1708L92.8923 63.5353Z" fill="#5971CF"/>
<path d="M92.4392 64.615L75.1299 54.7025C75.1299 54.3353 75.4982 53.7846 75.8665 53.6011L93.1758 63.5136C92.6234 63.6972 92.4392 64.0643 92.4392 64.615Z" fill="#4C61B4"/>
<path d="M92.9915 67.1848C92.6232 67.3684 92.2549 67.1848 92.2549 66.8177V64.4313C92.2549 64.0642 92.6232 63.5135 92.9915 63.33L105.513 56.1709V56.538L105.145 56.7216L104.408 58.3737L105.145 59.6586L105.513 59.8422V60.0258L92.9915 67.1848Z" fill="#4F63A3"/>
<path d="M92.6231 66.8178C92.6231 67.0013 92.6231 67.0013 92.6231 67.0013H92.8073L105.329 59.8423L104.961 59.6587L104.224 58.5573L104.961 56.7217L92.9914 63.6972C92.8072 63.6972 92.6231 63.8807 92.6231 64.0643C92.439 64.2479 92.439 64.4314 92.439 64.615L92.6231 66.8178Z" fill="#5E71BA"/>
<path d="M105.145 56.7217L93.1755 63.6972C92.9913 63.6972 92.8072 63.8807 92.8072 64.0643C92.6231 64.2479 92.623 64.4314 92.623 64.615V66.8178L105.145 59.6587V56.7217Z" fill="#FFFFFA"/>
<path d="M92.8074 62.5958L75.498 52.4997V50.2969L92.8074 60.2094V62.5958Z" fill="#7735B5"/>
<path d="M93.5442 59.1082L76.2349 49.1956L88.5724 41.853L105.882 51.9491L93.5442 59.1082Z" fill="#AD56FF"/>
<path d="M92.8074 60.2097L75.498 50.2972C75.498 49.9301 75.8663 49.3794 76.2346 49.1958L93.544 59.1083C93.1757 59.2919 92.8074 59.8426 92.8074 60.2097Z" fill="#913FDD"/>
<path d="M93.5442 62.9631C93.1759 63.1467 92.8076 62.9631 92.8076 62.596V60.2097C92.8076 59.8425 93.1759 59.2918 93.5442 59.1083L106.066 51.9492V52.3164L105.698 52.4999L104.961 54.152L105.698 55.437L106.066 55.6205V55.8041L93.5442 62.9631Z" fill="#7735B5"/>
<path d="M92.9918 62.5961C92.9918 62.7797 92.9918 62.7797 92.9918 62.7797H93.1759L105.698 55.6206L105.329 55.437L104.593 54.3357L105.329 52.5L93.36 59.4755C93.1759 59.4755 92.9918 59.6591 92.9918 59.8426C92.8076 60.0262 92.8076 60.2098 92.8076 60.3933L92.9918 62.5961Z" fill="#7735B5"/>
<path d="M105.513 52.3164L93.5436 59.2919C93.3595 59.2919 93.1753 59.4755 93.1753 59.659C92.9912 59.8426 92.9912 60.0262 92.9912 60.2097V62.4125L105.513 55.2535V52.3164Z" fill="#FFFFFA"/>
<path d="M83.7847 48.6451L88.02 46.2588L87.8359 46.0752L83.6006 48.4615L83.7847 48.6451Z" fill="#E9BFE1"/>
<path d="M83.7848 50.1131L90.4139 46.2582L90.0456 45.8911L83.4165 49.746L83.7848 50.1131Z" fill="#E9BFE1"/>
<path d="M84.8898 50.6639L91.5189 46.8091L91.1506 46.6255L84.5215 50.4804L84.8898 50.6639Z" fill="#E9BFE1"/>
<path d="M85.6261 69.0212L77.3397 64.2485C77.1556 64.0649 76.7873 64.0649 76.6032 64.2485L50.8233 79.1173C50.6392 79.1173 50.6392 79.3009 50.6392 79.3009V80.4023C50.6392 80.4023 50.6392 80.5858 50.8233 80.5858L59.1097 85.3585C59.2938 85.5421 59.6621 85.5421 59.8463 85.3585L85.6261 70.4897C85.8103 70.4897 85.8103 70.3062 85.8103 70.3062V69.3883C85.6261 69.0212 85.6261 69.0212 85.6261 69.0212Z" fill="#172030"/>
<path d="M58.9256 74.3442L50.6392 79.1169C50.4551 79.1169 50.4551 79.3005 50.4551 79.3005V80.4019C50.4551 80.4019 50.4551 80.5855 50.6392 80.5855L58.9256 85.3582V74.3442Z" fill="#172030"/>
<path d="M85.626 69.3878L59.8461 84.2566C59.662 84.4402 59.2937 84.4402 59.1095 84.2566L50.8232 79.4839C50.639 79.3004 50.639 79.1168 50.8232 78.9332L76.603 64.0644C76.7872 63.8809 77.1555 63.8809 77.3396 64.0644L85.626 68.8371C85.8101 69.0207 85.8101 69.2043 85.626 69.3878Z" fill="#1E2A3D"/>
<path opacity="0.9" d="M54.138 79.4841L53.0331 80.0348C52.849 80.0348 52.6648 80.0348 52.6648 80.0348L51.56 79.4841C51.3758 79.4841 51.3758 79.3006 51.56 79.3006L52.6648 78.7499C52.849 78.7499 53.0331 78.7499 53.0331 78.7499L53.9538 79.3006C54.138 79.3006 54.138 79.3006 54.138 79.4841ZM55.9794 78.1992L55.0587 77.6485C54.8745 77.6485 54.6904 77.6485 54.6904 77.6485L53.4014 78.1992C53.2173 78.1992 53.2173 78.3828 53.4014 78.3828L54.3221 78.9335C54.5063 78.9335 54.6904 78.9335 54.6904 78.9335L55.7952 78.3828C55.9794 78.3828 55.9794 78.1992 55.9794 78.1992ZM57.6367 77.0978L56.716 76.5471C56.5318 76.5471 56.3477 76.5471 56.3477 76.5471L55.2428 77.2814C55.0587 77.2814 55.0587 77.4649 55.2428 77.4649L56.1635 78.0156C56.3477 78.0156 56.5318 78.0156 56.5318 78.0156L57.6367 77.4649C57.8208 77.2814 57.8208 77.0978 57.6367 77.0978ZM59.4781 76.18L58.5574 75.6293C58.3732 75.6293 58.1891 75.6293 58.1891 75.6293L57.0842 76.18C56.9001 76.18 56.9001 76.3635 57.0842 76.3635L58.0049 76.9142C58.1891 76.9142 58.3732 76.9142 58.3732 76.9142L59.4781 76.3635C59.6622 76.18 59.6622 76.18 59.4781 76.18ZM61.3195 75.0786L60.3988 74.5279C60.2146 74.5279 60.0305 74.5279 60.0305 74.5279L58.9257 75.0786C58.7415 75.0786 58.7415 75.2621 58.9257 75.2621L59.8464 75.8128C60.0305 75.8128 60.2147 75.8128 60.2147 75.8128L61.3195 75.2621V75.0786ZM63.1609 73.9772L62.2402 73.4265C62.0561 73.4265 61.8719 73.4265 61.8719 73.4265L60.7671 73.9772C60.5829 73.9772 60.5829 74.1608 60.7671 74.1608L61.6878 74.7115C61.8719 74.7115 62.0561 74.7115 62.0561 74.7115L63.1609 74.1608C63.1609 74.1608 63.1609 74.1608 63.1609 73.9772ZM64.8182 73.0594L63.8975 72.5087C63.7133 72.5087 63.5292 72.5087 63.5292 72.5087L62.4244 73.0594C62.2402 73.0594 62.2402 73.2429 62.4244 73.2429L63.3451 73.7936C63.5292 73.7936 63.7133 73.7936 63.7133 73.7936L64.8182 73.2429C65.0023 73.0594 65.0023 73.0594 64.8182 73.0594ZM66.6596 71.958L65.7389 71.4073C65.5548 71.4073 65.3706 71.4073 65.3706 71.4073L64.2658 71.958C64.0816 71.958 64.0816 72.1415 64.2658 72.1415L65.1865 72.6922C65.3706 72.6922 65.5548 72.6922 65.5548 72.6922L66.6596 72.1415C66.8438 72.1415 66.8438 71.958 66.6596 71.958ZM68.501 70.8566L67.5803 70.3059C67.3962 70.3059 67.212 70.3059 67.212 70.3059L66.1072 70.8566C65.9231 70.8566 65.9231 71.0401 66.1072 71.0401L67.0279 71.5908C67.212 71.5908 67.3962 71.5908 67.3962 71.5908L68.501 71.0401C68.6852 71.0401 68.6852 71.0401 68.501 70.8566ZM70.8949 69.5716L69.9742 69.0209C69.79 69.0209 69.6059 69.0209 69.6059 69.0209L67.9486 69.9387C67.7645 69.9387 67.7645 70.1223 67.9486 70.1223L68.8693 70.673C69.0535 70.673 69.2376 70.673 69.2376 70.673L70.8949 69.7552V69.5716ZM78.6288 70.8566L77.7081 70.3059C77.524 70.3059 77.3398 70.3059 77.3398 70.3059L76.235 70.8566C76.0509 70.8566 76.0509 71.0401 76.235 71.0401L77.1557 71.5908C77.3398 71.5908 77.524 71.5908 77.524 71.5908L78.6288 71.0401C78.6288 70.8566 78.6288 70.8566 78.6288 70.8566ZM80.4703 69.7552L79.5495 69.2045C79.3654 69.2045 79.1813 69.2045 79.1813 69.2045L77.8923 69.7552C77.7081 69.7552 77.7081 69.9387 77.8923 69.9387L78.813 70.4894C78.9971 70.4894 79.1813 70.4894 79.1813 70.4894L80.2861 69.9387C80.4703 69.9387 80.4703 69.7552 80.4703 69.7552ZM82.1275 68.6538L81.2068 68.1031C81.0227 68.1031 80.8385 68.1031 80.8385 68.1031L79.7337 68.6538C79.5495 68.6538 79.5495 68.8374 79.7337 68.8374L80.6544 69.3881C80.8385 69.3881 81.0227 69.3881 81.0227 69.3881L82.1275 68.8374C82.3117 68.8374 82.3117 68.8374 82.1275 68.6538ZM80.2861 71.7744L79.3654 71.2237C79.1813 71.2237 78.9971 71.2237 78.9971 71.2237L77.8923 71.7744C77.7081 71.7744 77.7081 71.958 77.8923 71.958L78.813 72.5087C78.9971 72.5087 79.1813 72.5087 79.1813 72.5087L80.2861 71.958V71.7744ZM82.1275 70.673L81.0227 70.1223C80.8385 70.1223 80.6544 70.1223 80.6544 70.1223L79.5495 70.673C79.3654 70.673 79.3654 70.8566 79.5495 70.8566L80.4703 71.4073C80.6544 71.4073 80.8385 71.4073 80.8385 71.4073L81.9434 70.8566C82.1275 70.8566 82.1275 70.673 82.1275 70.673ZM83.7848 69.5716L82.8641 69.0209C82.68 69.0209 82.4958 69.0209 82.4958 69.0209L81.391 69.7552C81.2068 69.7552 81.2068 69.9387 81.391 69.9387L82.3117 70.4894C82.4958 70.4894 82.68 70.4894 82.68 70.4894L83.7848 69.9387C83.969 69.7552 83.969 69.7552 83.7848 69.5716ZM56.3477 79.8513L55.427 79.3006C55.2428 79.3006 55.0587 79.3006 55.0587 79.3006L53.4014 80.2184C53.2173 80.2184 53.2173 80.402 53.4014 80.402L54.3221 80.9527C54.5063 80.9527 54.6904 80.9527 54.6904 80.9527L56.3477 80.0348C56.5318 80.0348 56.5318 79.8513 56.3477 79.8513ZM58.1891 78.7499L57.2684 78.1992C57.0842 78.1992 56.9001 78.1992 56.9001 78.1992L55.7952 78.9335C55.6111 78.9335 55.6111 79.117 55.7952 79.117L56.716 79.6677C56.9001 79.6677 57.0842 79.6677 57.0842 79.6677L58.1891 79.117C58.1891 78.9335 58.1891 78.7499 58.1891 78.7499ZM60.0305 77.6485L58.9257 77.0978C58.7415 77.0978 58.5574 77.0978 58.5574 77.0978L57.4525 77.6485C57.2684 77.6485 57.2684 77.8321 57.4525 77.8321L58.3732 78.3828C58.5574 78.3828 58.7415 78.3828 58.7415 78.3828L59.8464 77.8321C60.0305 77.8321 60.0305 77.8321 60.0305 77.6485ZM61.6878 76.7307L60.7671 76.18C60.5829 76.18 60.3988 76.18 60.3988 76.18L59.2939 76.7307C59.1098 76.7307 59.1098 76.9142 59.2939 76.9142L60.2147 77.4649C60.3988 77.4649 60.5829 77.4649 60.5829 77.4649L61.6878 76.9142C61.8719 76.9142 61.8719 76.7307 61.6878 76.7307ZM63.5292 75.6293L62.6085 75.0786C62.4244 75.0786 62.2402 75.0786 62.2402 75.0786L61.1354 75.6293C60.9512 75.6293 60.9512 75.8128 61.1354 75.8128L62.0561 76.3635C62.2402 76.3635 62.4244 76.3635 62.4244 76.3635L63.5292 75.8128C63.7133 75.8128 63.7133 75.6293 63.5292 75.6293ZM65.3706 74.7115L64.4499 74.1608C64.2658 74.1608 64.0816 74.1608 64.0816 74.1608L62.9768 74.7115C62.7926 74.7115 62.7926 74.895 62.9768 74.895L63.8975 75.4457C64.0816 75.4457 64.2658 75.4457 64.2658 75.4457L65.3706 74.895C65.3706 74.7114 65.3706 74.7115 65.3706 74.7115ZM67.212 73.6101L66.2913 73.0594C66.1072 73.0594 65.923 73.0594 65.923 73.0594L64.8182 73.6101C64.6341 73.6101 64.6341 73.7936 64.8182 73.7936L65.7389 74.3443C65.923 74.3443 66.1072 74.3443 66.1072 74.3443L67.212 73.7936V73.6101ZM68.8693 72.5087L67.9486 71.958C67.7645 71.958 67.5803 71.958 67.5803 71.958L66.4755 72.5087C66.2913 72.5087 66.2913 72.6922 66.4755 72.6922L67.3962 73.2429C67.5803 73.2429 67.7645 73.2429 67.7645 73.2429L68.8693 72.6922C69.0535 72.6922 69.0535 72.6922 68.8693 72.5087ZM70.7107 71.5908L69.79 71.0401C69.6059 71.0401 69.4217 71.0401 69.4217 71.0401L68.3169 71.5908C68.1327 71.5908 68.1327 71.7744 68.3169 71.7744L69.2376 72.3251C69.4217 72.3251 69.6059 72.3251 69.6059 72.3251L70.7107 71.7744C70.8949 71.5908 70.8949 71.5908 70.7107 71.5908ZM72.5522 70.4894L71.6314 69.9387C71.4473 69.9387 71.2632 69.9387 71.2632 69.9387L70.1583 70.4894C69.9742 70.4894 69.9742 70.673 70.1583 70.673L71.079 71.2237C71.2632 71.2237 71.4473 71.2237 71.4473 71.2237L72.5522 70.673C72.7363 70.673 72.7363 70.4894 72.5522 70.4894ZM57.4525 81.1362L56.5318 80.5855C56.3477 80.5855 56.1635 80.5855 56.1635 80.5855L55.0587 81.1362C54.8745 81.1362 54.8745 81.3198 55.0587 81.3198L55.9794 81.8705C56.1635 81.8705 56.3477 81.8705 56.3477 81.8705L57.4525 81.3198V81.1362ZM59.1098 80.0348L58.1891 79.4841C58.0049 79.4841 57.8208 79.4841 57.8208 79.4841L56.716 80.0348C56.5318 80.0348 56.5318 80.2184 56.716 80.2184L57.6367 80.7691C57.8208 80.7691 58.0049 80.7691 58.0049 80.7691L59.1098 80.2184C59.2939 80.2184 59.2939 80.0348 59.1098 80.0348ZM60.9512 78.9335L60.0305 78.3828C59.8464 78.3828 59.6622 78.3828 59.6622 78.3828L58.5574 78.9335C58.3732 78.9335 58.3732 79.117 58.5574 79.117L59.4781 79.6677C59.6622 79.6677 59.8464 79.6677 59.8464 79.6677L60.9512 79.117C61.1354 79.117 61.1354 79.117 60.9512 78.9335ZM62.7926 78.0156L61.8719 77.4649C61.6878 77.4649 61.5036 77.4649 61.5036 77.4649L60.3988 78.0156C60.2146 78.0156 60.2146 78.1992 60.3988 78.1992L61.3195 78.7499C61.5036 78.7499 61.6878 78.7499 61.6878 78.7499L62.7926 78.1992V78.0156ZM60.5829 82.9719L59.6622 82.4212C59.4781 82.4212 59.2939 82.4212 59.2939 82.4212L58.1891 82.9719C58.0049 82.9719 58.0049 83.1555 58.1891 83.1555L59.1098 83.7062C59.2939 83.7062 59.4781 83.7062 59.4781 83.7062L60.5829 83.1555C60.7671 83.1555 60.7671 82.9719 60.5829 82.9719ZM62.4244 81.8705L61.5036 81.3198C61.3195 81.3198 61.1354 81.3198 61.1354 81.3198L60.0305 81.8705C59.8464 81.8705 59.8464 82.0541 60.0305 82.0541L60.9512 82.6048C61.1354 82.6048 61.3195 82.6048 61.3195 82.6048L62.4244 82.0541C62.6085 82.0541 62.6085 82.0541 62.4244 81.8705ZM64.2658 80.9527L63.3451 80.402C63.1609 80.402 62.9768 80.402 62.9768 80.402L61.8719 80.9527C61.6878 80.9527 61.6878 81.1362 61.8719 81.1362L62.7926 81.6869C62.9768 81.6869 63.1609 81.6869 63.1609 81.6869L64.2658 81.1362V80.9527ZM66.1072 79.8513L65.1865 79.3006C65.0023 79.3006 64.8182 79.3006 64.8182 79.3006L63.7133 79.8513C63.5292 79.8513 63.5292 80.0348 63.7133 80.0348L64.4499 80.7691C64.6341 80.7691 64.8182 80.7691 64.8182 80.7691L65.923 80.2184C66.1072 80.0348 66.1072 79.8513 66.1072 79.8513ZM77.3398 73.2429L76.4191 72.6922C76.235 72.6922 76.0508 72.6922 76.0508 72.6922L74.3936 73.6101C74.2094 73.6101 74.2094 73.7936 74.3936 73.7936L75.3143 74.3443C75.4984 74.3443 75.6826 74.3443 75.6826 74.3443L77.3398 73.4265C77.524 73.4265 77.524 73.4265 77.3398 73.2429ZM64.6341 76.9142L63.7133 76.3635C63.5292 76.3635 63.3451 76.3635 63.3451 76.3635L62.0561 77.0978C61.8719 77.0978 61.8719 77.2814 62.0561 77.2814L62.9768 77.8321C63.1609 77.8321 63.3451 77.8321 63.3451 77.8321L64.4499 77.2814C64.6341 77.0978 64.6341 76.9142 64.6341 76.9142ZM66.2913 75.8128L65.3706 75.2621C65.1865 75.2621 65.0023 75.2621 65.0023 75.2621L63.8975 75.8128C63.7133 75.8128 63.7133 75.9964 63.8975 75.9964L64.8182 76.5471C65.0023 76.5471 65.1865 76.5471 65.1865 76.5471L66.2913 75.9964C66.4755 75.9964 66.4755 75.9964 66.2913 75.8128ZM68.1328 74.895L67.212 74.3443C67.0279 74.3443 66.8438 74.3443 66.8438 74.3443L65.7389 74.895C65.5548 74.895 65.5548 75.0786 65.7389 75.0786L66.6596 75.6293C66.8438 75.6293 67.0279 75.6293 67.0279 75.6293L68.1328 75.0786C68.3169 75.0786 68.3169 74.895 68.1328 74.895ZM69.9742 73.7936L69.0535 73.2429C68.8693 73.2429 68.6852 73.2429 68.6852 73.2429L67.5803 73.7936C67.3962 73.7936 67.3962 73.9772 67.5803 73.9772L68.501 74.5279C68.6852 74.5279 68.8693 74.5279 68.8693 74.5279L69.9742 73.9772C69.9742 73.9772 69.9742 73.9772 69.9742 73.7936ZM71.8156 72.8758L70.8949 72.3251C70.7107 72.3251 70.5266 72.3251 70.5266 72.3251L69.4217 72.8758C69.2376 72.8758 69.2376 73.0594 69.4217 73.0594L70.3425 73.6101C70.5266 73.6101 70.7107 73.6101 70.7107 73.6101L71.8156 73.0594C71.8156 72.8758 71.8156 72.8758 71.8156 72.8758ZM74.2094 71.4073L73.2887 70.8566C73.1046 70.8566 72.9204 70.8566 72.9204 70.8566L71.2632 71.7744C71.079 71.7744 71.079 71.958 71.2632 71.958L72.1839 72.5087C72.368 72.5087 72.5522 72.5087 72.5522 72.5087L74.2094 71.5908V71.4073ZM59.6622 81.6869L58.7415 81.1362C58.5574 81.1362 58.3732 81.1362 58.3732 81.1362L56.716 82.0541C56.5318 82.0541 56.5318 82.2376 56.716 82.2376L57.6367 82.7883C57.8208 82.7883 58.0049 82.7883 58.0049 82.7883L59.6622 81.8705V81.6869ZM61.5036 80.5855L60.5829 80.0348C60.3988 80.0348 60.2147 80.0348 60.2147 80.0348L58.9257 80.7691C58.7415 80.7691 58.7415 80.9527 58.9257 80.9527L59.8464 81.5034C60.0305 81.5034 60.2147 81.5034 60.2147 81.5034L61.3195 80.9527C61.5036 80.7691 61.5036 80.7691 61.5036 80.5855ZM63.1609 79.6677L62.2402 79.117C62.0561 79.117 61.8719 79.117 61.8719 79.117L60.7671 79.6677C60.5829 79.6677 60.5829 79.8513 60.7671 79.8513L61.6878 80.402C61.8719 80.402 62.0561 80.402 62.0561 80.402L63.1609 79.8513C63.3451 79.8513 63.3451 79.6677 63.1609 79.6677ZM65.0023 78.5663L64.0816 78.0156C63.8975 78.0156 63.7133 78.0156 63.7133 78.0156L62.6085 78.7499C62.4244 78.7499 62.4244 78.9335 62.6085 78.9335L63.5292 79.4841C63.7133 79.4841 63.8975 79.4841 63.8975 79.4841L65.0023 78.9335C65.1865 78.7499 65.1865 78.5663 65.0023 78.5663ZM66.8438 77.4649L65.923 76.9142C65.7389 76.9142 65.5548 76.9142 65.5548 76.9142L64.4499 77.6485C64.2658 77.6485 64.2658 77.8321 64.4499 77.8321L65.3706 78.3828C65.5548 78.3828 65.7389 78.3828 65.7389 78.3828L66.8438 77.8321C66.8438 77.6485 66.8438 77.6485 66.8438 77.4649ZM75.1301 74.7115L74.2094 74.1608C74.0253 74.1608 73.8411 74.1608 73.8411 74.1608L65.3706 78.9335C65.1865 78.9335 65.1865 79.117 65.3706 79.117L66.2913 79.6677C66.4755 79.6677 66.6596 79.6677 66.6596 79.6677L74.946 74.895C75.1301 74.895 75.1301 74.7115 75.1301 74.7115ZM68.6852 76.5471L67.7645 75.9964C67.5803 75.9964 67.3962 75.9964 67.3962 75.9964L66.2913 76.5471C66.1072 76.5471 66.1072 76.7307 66.2913 76.7307L67.212 77.2814C67.3962 77.2814 67.5803 77.2814 67.5803 77.2814L68.6852 76.7307V76.5471ZM70.3425 75.4457L69.4217 74.895C69.2376 74.895 69.0535 74.895 69.0535 74.895L67.9486 75.4457C67.7645 75.4457 67.7645 75.6293 67.9486 75.6293L68.8693 76.18C69.0535 76.18 69.2376 76.18 69.2376 76.18L70.3425 75.6293C70.5266 75.6293 70.5266 75.4457 70.3425 75.4457ZM72.1839 74.3443L71.2632 73.7936C71.079 73.7936 70.8949 73.7936 70.8949 73.7936L69.79 74.3443C69.6059 74.3443 69.6059 74.5279 69.79 74.5279L70.7107 75.0786C70.8949 75.0786 71.079 75.0786 71.079 75.0786L72.1839 74.5279C72.368 74.5279 72.368 74.5279 72.1839 74.3443ZM74.0253 73.4265L73.1046 72.8758C72.9204 72.8758 72.7363 72.8758 72.7363 72.8758L71.6314 73.4265C71.4473 73.4265 71.4473 73.6101 71.6314 73.6101L72.5522 74.1608C72.7363 74.1608 72.9204 74.1608 72.9204 74.1608L74.0253 73.6101C74.2094 73.6101 74.2094 73.4265 74.0253 73.4265ZM75.8667 72.3251L74.946 71.7744C74.7619 71.7744 74.5777 71.7744 74.5777 71.7744L73.4729 72.3251C73.2887 72.3251 73.2887 72.5087 73.4729 72.5087L74.3936 73.0594C74.5777 73.0594 74.7619 73.0594 74.7619 73.0594L75.8667 72.5087C75.8667 72.5087 75.8667 72.5087 75.8667 72.3251ZM73.657 67.9195L72.7363 67.3688C72.5522 67.3688 72.368 67.3688 72.368 67.3688L71.2632 67.9195C71.079 67.9195 71.079 68.1031 71.2632 68.1031L72.1839 68.6538C72.368 68.6538 72.5522 68.6538 72.5522 68.6538L73.657 68.1031C73.8411 68.1031 73.8411 67.9195 73.657 67.9195ZM75.4984 66.8181L74.5777 66.2674C74.3936 66.2674 74.2094 66.2674 74.2094 66.2674L73.1046 66.8181C72.9204 66.8181 72.9204 67.0017 73.1046 67.0017L74.0253 67.5524C74.2094 67.5524 74.3936 67.5524 74.3936 67.5524L75.4984 67.0017C75.4984 67.0017 75.4984 67.0017 75.4984 66.8181ZM77.3398 65.9003L76.4191 65.3496C76.235 65.3496 76.0508 65.3496 76.0508 65.3496L74.946 65.9003C74.7619 65.9003 74.7619 66.0839 74.946 66.0839L75.8667 66.6346C76.0509 66.6346 76.235 66.6346 76.235 66.6346L77.3398 66.0839V65.9003ZM78.9971 66.8181L78.0764 66.2674C77.8923 66.2674 77.7081 66.2674 77.7081 66.2674L76.6033 66.8181C76.4191 66.8181 76.4191 67.0017 76.6033 67.0017L77.524 67.5524C77.7081 67.5524 77.8923 67.5524 77.8923 67.5524L78.9971 67.0017V66.8181ZM80.4703 67.736L79.5495 67.1853C79.5495 67.1853 79.3654 67.1853 79.1813 67.1853L77.524 68.1031H77.3398L76.0508 67.3688C75.8667 67.3688 75.6826 67.3688 75.4984 67.3688L72.7363 69.0209C72.5522 69.0209 72.5522 69.2045 72.7363 69.3881L75.1301 70.8566C75.3143 70.8566 75.4984 70.8566 75.6826 70.8566L80.2861 68.1031C80.6544 67.9195 80.6544 67.736 80.4703 67.736Z" fill="#263144"/>
<path d="M54.138 79.3006L53.0331 79.8512C52.849 79.8512 52.6648 79.8512 52.6648 79.8512L51.56 79.3006C51.3758 79.3006 51.3758 79.117 51.56 79.117L52.6648 78.5663C52.849 78.5663 53.0331 78.5663 53.0331 78.5663L53.9538 79.117C54.138 79.117 54.138 79.117 54.138 79.3006ZM55.9794 78.0156L55.0587 77.4649C54.8745 77.4649 54.6904 77.4649 54.6904 77.4649L53.4014 78.0156C53.2173 78.0156 53.2173 78.1992 53.4014 78.1992L54.3221 78.7499C54.5063 78.7499 54.6904 78.7499 54.6904 78.7499L55.7952 78.1992C55.9794 78.1992 55.9794 78.0156 55.9794 78.0156ZM57.6367 76.9142L56.716 76.3635C56.5318 76.3635 56.3477 76.3635 56.3477 76.3635L55.2428 77.0978C55.0587 77.0978 55.0587 77.2813 55.2428 77.2813L56.1635 77.832C56.3477 77.832 56.5318 77.832 56.5318 77.832L57.6367 77.2813C57.8208 77.0978 57.8208 77.0978 57.6367 76.9142ZM59.4781 75.9964L58.5574 75.4457C58.3732 75.4457 58.1891 75.4457 58.1891 75.4457L57.0842 75.9964C56.9001 75.9964 56.9001 76.1799 57.0842 76.1799L58.0049 76.7306C58.1891 76.7306 58.3732 76.7306 58.3732 76.7306L59.4781 76.1799C59.6622 76.1799 59.6622 75.9964 59.4781 75.9964ZM61.3195 74.895L60.3988 74.3443C60.2146 74.3443 60.0305 74.3443 60.0305 74.3443L58.9257 75.0786C58.7415 75.0786 58.7415 75.2621 58.9257 75.2621L59.8464 75.8128C60.0305 75.8128 60.2147 75.8128 60.2147 75.8128L61.3195 75.2621C61.3195 75.0785 61.3195 74.895 61.3195 74.895ZM63.1609 73.7936L62.2402 73.2429C62.0561 73.2429 61.8719 73.2429 61.8719 73.2429L60.7671 73.7936C60.5829 73.7936 60.5829 73.9772 60.7671 73.9772L61.6878 74.5278C61.8719 74.5278 62.0561 74.5278 62.0561 74.5278L63.1609 73.9772C63.1609 73.9772 63.1609 73.9772 63.1609 73.7936ZM64.8182 72.8758L63.8975 72.3251C63.7133 72.3251 63.5292 72.3251 63.5292 72.3251L62.4244 72.8758C62.2402 72.8758 62.2402 73.0593 62.4244 73.0593L63.3451 73.61C63.5292 73.61 63.7133 73.61 63.7133 73.61L64.8182 73.0593C65.0023 73.0593 65.0023 72.8758 64.8182 72.8758ZM66.6596 71.7744L65.7389 71.2237C65.5548 71.2237 65.3706 71.2237 65.3706 71.2237L64.2658 71.7744C64.0816 71.7744 64.0816 71.9579 64.2658 71.9579L65.1865 72.5086C65.3706 72.5086 65.5548 72.5086 65.5548 72.5086L66.6596 71.9579C66.8438 71.9579 66.8438 71.7744 66.6596 71.7744ZM68.501 70.673L67.5803 70.1223C67.3962 70.1223 67.212 70.1223 67.212 70.1223L66.1072 70.673C65.9231 70.673 65.9231 70.8565 66.1072 70.8565L67.0279 71.4072C67.212 71.4072 67.3962 71.4072 67.3962 71.4072L68.501 70.8565C68.6852 70.8565 68.6852 70.8565 68.501 70.673ZM70.8949 69.388L69.9742 68.8373C69.79 68.8373 69.6059 68.8373 69.6059 68.8373L67.7645 69.7552C67.5803 69.7552 67.5803 69.9387 67.7645 69.9387L68.6852 70.4894C68.8693 70.4894 69.0535 70.4894 69.0535 70.4894L70.7107 69.5716C70.8949 69.5716 70.8949 69.388 70.8949 69.388ZM78.6288 70.673L77.7081 70.1223C77.524 70.1223 77.3398 70.1223 77.3398 70.1223L76.235 70.673C76.0509 70.673 76.0509 70.8565 76.235 70.8565L77.1557 71.4072C77.3398 71.4072 77.524 71.4072 77.524 71.4072L78.6288 70.8565V70.673ZM80.4703 69.5716L79.5495 69.0209C79.3654 69.0209 79.1813 69.0209 79.1813 69.0209L77.8923 69.7552C77.7081 69.7552 77.7081 69.9387 77.8923 69.9387L78.813 70.4894C78.9971 70.4894 79.1813 70.4894 79.1813 70.4894L80.2861 69.9387C80.4703 69.7551 80.4703 69.5716 80.4703 69.5716ZM82.1275 68.4702L81.2068 67.9195C81.0227 67.9195 80.8385 67.9195 80.8385 67.9195L79.7337 68.4702C79.5495 68.4702 79.5495 68.6538 79.7337 68.6538L80.6544 69.2045C80.8385 69.2045 81.0227 69.2045 81.0227 69.2045L82.1275 68.6538C82.3117 68.6538 82.3117 68.6538 82.1275 68.4702ZM80.2861 71.5908L79.3654 71.0401C79.1813 71.0401 78.9971 71.0401 78.9971 71.0401L77.7081 71.5908C77.524 71.5908 77.524 71.7744 77.7081 71.7744L78.6288 72.3251C78.813 72.3251 78.9971 72.3251 78.9971 72.3251L80.102 71.7744C80.2861 71.7744 80.2861 71.5908 80.2861 71.5908ZM82.1275 70.4894L81.0227 69.9387C80.8385 69.9387 80.6544 69.9387 80.6544 69.9387L79.5495 70.4894C79.3654 70.4894 79.3654 70.673 79.5495 70.673L80.4703 71.2237C80.6544 71.2237 80.8385 71.2237 80.8385 71.2237L81.9434 70.673C82.1275 70.673 82.1275 70.673 82.1275 70.4894ZM83.7848 69.5716L82.8641 69.0209C82.68 69.0209 82.4958 69.0209 82.4958 69.0209L81.391 69.5716C81.2068 69.5716 81.2068 69.7552 81.391 69.7552L82.3117 70.3058C82.4958 70.3058 82.68 70.3058 82.68 70.3058L83.7848 69.7552C83.969 69.5716 83.969 69.5716 83.7848 69.5716ZM56.3477 79.6677L55.427 79.117C55.2428 79.117 55.0587 79.117 55.0587 79.117L53.4014 80.0348C53.2173 80.0348 53.2173 80.2184 53.4014 80.2184L54.3221 80.7691C54.5063 80.7691 54.6904 80.7691 54.6904 80.7691L56.3477 79.8512C56.5318 79.8512 56.5318 79.6677 56.3477 79.6677ZM58.1891 78.5663L57.2684 78.0156C57.0842 78.0156 56.9001 78.0156 56.9001 78.0156L55.7952 78.5663C55.6111 78.5663 55.6111 78.7499 55.7952 78.7499L56.716 79.3006C56.9001 79.3006 57.0842 79.3006 57.0842 79.3006L58.1891 78.7499C58.1891 78.7499 58.1891 78.7499 58.1891 78.5663ZM60.0305 77.6485L58.9257 77.0978C58.7415 77.0978 58.5574 77.0978 58.5574 77.0978L57.4525 77.6485C57.2684 77.6485 57.2684 77.832 57.4525 77.832L58.3732 78.3827C58.5574 78.3827 58.7415 78.3827 58.7415 78.3827L59.8464 77.832C60.0305 77.6485 60.0305 77.6485 60.0305 77.6485ZM61.6878 76.5471L60.7671 75.9964C60.5829 75.9964 60.3988 75.9964 60.3988 75.9964L59.2939 76.5471C59.1098 76.5471 59.1098 76.7306 59.2939 76.7306L60.2147 77.2813C60.3988 77.2813 60.5829 77.2813 60.5829 77.2813L61.6878 76.7306C61.8719 76.7306 61.8719 76.5471 61.6878 76.5471ZM63.5292 75.4457L62.6085 74.895C62.4244 74.895 62.2402 74.895 62.2402 74.895L61.1354 75.4457C60.9512 75.4457 60.9512 75.6292 61.1354 75.6292L62.0561 76.1799C62.2402 76.1799 62.4244 76.1799 62.4244 76.1799L63.5292 75.6292C63.7133 75.6292 63.7133 75.6292 63.5292 75.4457ZM65.3706 74.5278L64.4499 73.9772C64.2658 73.9772 64.0816 73.9772 64.0816 73.9772L62.9768 74.5278C62.7926 74.5278 62.7926 74.7114 62.9768 74.7114L63.8975 75.2621C64.0816 75.2621 64.2658 75.2621 64.2658 75.2621L65.3706 74.7114V74.5278ZM67.212 73.4265L66.2913 72.8758C66.1072 72.8758 65.923 72.8758 65.923 72.8758L64.8182 73.4265C64.6341 73.4265 64.6341 73.61 64.8182 73.61L65.7389 74.1607C65.923 74.1607 66.1072 74.1607 66.1072 74.1607L67.212 73.61V73.4265ZM68.8693 72.3251L67.9486 71.7744C67.7645 71.7744 67.5803 71.7744 67.5803 71.7744L66.4755 72.3251C66.2913 72.3251 66.2913 72.5086 66.4755 72.5086L67.3962 73.0593C67.5803 73.0593 67.7645 73.0593 67.7645 73.0593L68.8693 72.5086C69.0535 72.5086 69.0535 72.5086 68.8693 72.3251ZM70.7107 71.4072L69.79 70.8565C69.6059 70.8565 69.4217 70.8565 69.4217 70.8565L68.3169 71.4072C68.1327 71.5908 68.1327 71.5908 68.3169 71.5908L69.2376 72.1415C69.4217 72.1415 69.6059 72.1415 69.6059 72.1415L70.7107 71.5908C70.8949 71.5908 70.8949 71.4072 70.7107 71.4072ZM72.5522 70.3058L71.6314 69.7552C71.4473 69.7552 71.2632 69.7552 71.2632 69.7552L70.1583 70.3058C69.9742 70.3058 69.9742 70.4894 70.1583 70.4894L71.079 71.0401C71.2632 71.0401 71.4473 71.0401 71.4473 71.0401L72.5522 70.4894C72.7363 70.4894 72.7363 70.3058 72.5522 70.3058ZM57.4525 80.9526L56.5318 80.4019C56.3477 80.4019 56.1635 80.4019 56.1635 80.4019L55.0587 80.9526C54.8745 80.9526 54.8745 81.1362 55.0587 81.1362L55.9794 81.6869C56.1635 81.6869 56.3477 81.6869 56.3477 81.6869L57.4525 81.1362V80.9526ZM59.1098 79.8512L58.1891 79.3006C58.0049 79.3006 57.8208 79.3006 57.8208 79.3006L56.716 79.8512C56.5318 79.8512 56.5318 80.0348 56.716 80.0348L57.6367 80.5855C57.8208 80.5855 58.0049 80.5855 58.0049 80.5855L59.1098 80.0348C59.2939 80.0348 59.2939 79.8512 59.1098 79.8512ZM60.9512 78.9334L60.0305 78.3827C59.8464 78.3827 59.6622 78.3827 59.6622 78.3827L58.5574 78.9334C58.3732 78.9334 58.3732 79.117 58.5574 79.117L59.4781 79.6677C59.6622 79.6677 59.8464 79.6677 59.8464 79.6677L60.9512 79.117C61.1354 78.9334 61.1354 78.9334 60.9512 78.9334ZM62.7926 77.832L61.8719 77.2813C61.6878 77.2813 61.5036 77.2813 61.5036 77.2813L60.3988 77.832C60.2146 77.832 60.2146 78.0156 60.3988 78.0156L61.3195 78.5663C61.5036 78.5663 61.6878 78.5663 61.6878 78.5663L62.7926 78.0156V77.832ZM60.5829 82.7883L59.6622 82.2376C59.4781 82.2376 59.2939 82.2376 59.2939 82.2376L58.1891 82.7883C58.0049 82.7883 58.0049 82.9719 58.1891 82.9719L59.1098 83.5226C59.2939 83.5226 59.4781 83.5226 59.4781 83.5226L60.5829 82.9719C60.7671 82.9719 60.7671 82.7883 60.5829 82.7883ZM62.4244 81.6869L61.5036 81.1362C61.3195 81.1362 61.1354 81.1362 61.1354 81.1362L60.0305 81.6869C59.8464 81.6869 59.8464 81.8705 60.0305 81.8705L60.9512 82.4212C61.1354 82.4212 61.3195 82.4212 61.3195 82.4212L62.4244 81.8705C62.6085 81.8705 62.6085 81.8705 62.4244 81.6869ZM64.2658 80.7691L63.3451 80.2184C63.1609 80.2184 62.9768 80.2184 62.9768 80.2184L61.8719 80.7691C61.6878 80.7691 61.6878 80.9526 61.8719 80.9526L62.7926 81.5033C62.9768 81.5033 63.1609 81.5033 63.1609 81.5033L64.2658 80.9526V80.7691ZM66.1072 79.6677L65.1865 79.117C65.0023 79.117 64.8182 79.117 64.8182 79.117L63.7133 79.6677C63.5292 79.6677 63.5292 79.8512 63.7133 79.8512L64.6341 80.4019C64.8182 80.4019 65.0023 80.4019 65.0023 80.4019L66.1072 79.8512V79.6677ZM77.3398 73.0593L76.4191 72.5086C76.235 72.5086 76.0508 72.5086 76.0508 72.5086L74.3936 73.4265C74.2094 73.4265 74.2094 73.61 74.3936 73.61L75.3143 74.1607C75.4984 74.1607 75.6826 74.1607 75.6826 74.1607L77.3398 73.4265C77.524 73.2429 77.524 73.2429 77.3398 73.0593ZM64.6341 76.7306L63.7133 76.1799C63.5292 76.1799 63.3451 76.1799 63.3451 76.1799L62.2402 76.7306C62.0561 76.7306 62.0561 76.9142 62.2402 76.9142L63.1609 77.4649C63.3451 77.4649 63.5292 77.4649 63.5292 77.4649L64.6341 76.9142C64.6341 76.9142 64.6341 76.9142 64.6341 76.7306ZM66.2913 75.8128L65.3706 75.2621C65.1865 75.2621 65.0023 75.2621 65.0023 75.2621L63.8975 75.8128C63.7133 75.8128 63.7133 75.9964 63.8975 75.9964L64.8182 76.5471C65.0023 76.5471 65.1865 76.5471 65.1865 76.5471L66.2913 75.9964C66.4755 75.8128 66.4755 75.8128 66.2913 75.8128ZM68.1328 74.7114L67.212 74.1607C67.0279 74.1607 66.8438 74.1607 66.8438 74.1607L65.7389 74.7114C65.5548 74.7114 65.5548 74.895 65.7389 74.895L66.6596 75.4457C66.8438 75.4457 67.0279 75.4457 67.0279 75.4457L68.1328 74.895C68.3169 74.895 68.3169 74.7114 68.1328 74.7114ZM69.9742 73.61L69.0535 73.0593C68.8693 73.0593 68.6852 73.0593 68.6852 73.0593L67.5803 73.61C67.3962 73.61 67.3962 73.7936 67.5803 73.7936L68.501 74.3443C68.6852 74.3443 68.8693 74.3443 68.8693 74.3443L69.9742 73.7936C69.9742 73.7936 69.9742 73.7936 69.9742 73.61ZM71.8156 72.6922L70.8949 72.1415C70.7107 72.1415 70.5266 72.1415 70.5266 72.1415L69.4217 72.6922C69.2376 72.6922 69.2376 72.8758 69.4217 72.8758L70.3425 73.4265C70.5266 73.4265 70.7107 73.4265 70.7107 73.4265L71.8156 72.8758V72.6922ZM74.2094 71.2237L73.2887 70.673C73.1046 70.673 72.9204 70.673 72.9204 70.673L71.2632 71.5908C71.079 71.5908 71.079 71.7744 71.2632 71.7744L72.1839 72.3251C72.368 72.3251 72.5522 72.3251 72.5522 72.3251L74.2094 71.4072C74.2094 71.4072 74.2094 71.4072 74.2094 71.2237ZM59.6622 81.5033L58.7415 80.9526C58.5574 80.9526 58.3732 80.9526 58.3732 80.9526L56.716 81.8705C56.5318 81.8705 56.5318 82.054 56.716 82.054L57.6367 82.6047C57.8208 82.6047 58.0049 82.6047 58.0049 82.6047L59.6622 81.6869V81.5033ZM61.5036 80.4019L60.5829 79.8512C60.3988 79.8512 60.2147 79.8512 60.2147 79.8512L58.9257 80.5855V80.7691L59.8464 81.3198C60.0305 81.3198 60.2147 81.3198 60.2147 81.3198L61.3195 80.7691C61.5036 80.5855 61.5036 80.5855 61.5036 80.4019ZM63.1609 79.4841L62.2402 78.9334C62.0561 78.9334 61.8719 78.9334 61.8719 78.9334L60.7671 79.4841C60.5829 79.4841 60.5829 79.6677 60.7671 79.6677L61.6878 80.2184C61.8719 80.2184 62.0561 80.2184 62.0561 80.2184L63.1609 79.6677C63.3451 79.6677 63.3451 79.4841 63.1609 79.4841ZM65.0023 78.3827L64.0816 77.832C63.8975 77.832 63.7133 77.832 63.7133 77.832L62.6085 78.5663C62.4244 78.5663 62.4244 78.7499 62.6085 78.7499L63.5292 79.3006C63.7133 79.3006 63.8975 79.3006 63.8975 79.3006L65.0023 78.7499C65.1865 78.5663 65.1865 78.3827 65.0023 78.3827ZM66.8438 77.4649L65.923 76.9142C65.7389 76.9142 65.5548 76.9142 65.5548 76.9142L64.4499 77.4649C64.2658 77.4649 64.2658 77.6485 64.4499 77.6485L65.3706 78.1992C65.5548 78.1992 65.7389 78.1992 65.7389 78.1992L66.8438 77.6485C66.8438 77.4649 66.8438 77.4649 66.8438 77.4649ZM75.1301 74.5278L74.2094 73.9772C74.0253 73.9772 73.8411 73.9772 73.8411 73.9772L65.5548 78.7499C65.3706 78.7499 65.3706 78.9334 65.5548 78.9334L66.4755 79.4841C66.6596 79.4841 66.8438 79.4841 66.8438 79.4841L75.1301 74.7114V74.5278ZM68.6852 76.3635L67.7645 75.8128C67.5803 75.8128 67.3962 75.8128 67.3962 75.8128L66.2913 76.3635C66.1072 76.3635 66.1072 76.5471 66.2913 76.5471L67.212 77.0978C67.3962 77.0978 67.5803 77.0978 67.5803 77.0978L68.6852 76.5471V76.3635ZM70.3425 75.2621L69.4217 74.7114C69.2376 74.7114 69.0535 74.7114 69.0535 74.7114L67.9486 75.2621C67.7645 75.2621 67.7645 75.4457 67.9486 75.4457L68.8693 75.9964C69.0535 75.9964 69.2376 75.9964 69.2376 75.9964L70.3425 75.4457C70.5266 75.4457 70.5266 75.4457 70.3425 75.2621ZM72.1839 74.3443L71.2632 73.7936C71.079 73.7936 70.8949 73.7936 70.8949 73.7936L69.79 74.3443C69.6059 74.3443 69.6059 74.5278 69.79 74.5278L70.7107 75.0786C70.8949 75.0786 71.079 75.0786 71.079 75.0786L72.1839 74.5278C72.368 74.3443 72.368 74.3443 72.1839 74.3443ZM74.0253 73.2429L73.1046 72.6922C72.9204 72.6922 72.7363 72.6922 72.7363 72.6922L71.6314 73.2429C71.4473 73.2429 71.4473 73.4265 71.6314 73.4265L72.5522 73.9772C72.7363 73.9772 72.9204 73.9772 72.9204 73.9772L74.0253 73.4265C74.2094 73.4265 74.2094 73.2429 74.0253 73.2429ZM75.8667 72.1415L74.946 71.5908C74.7619 71.5908 74.5777 71.5908 74.5777 71.5908L73.4729 72.1415C73.2887 72.1415 73.2887 72.3251 73.4729 72.3251L74.3936 72.8758C74.5777 72.8758 74.7619 72.8758 74.7619 72.8758L75.8667 72.3251C75.8667 72.3251 75.8667 72.3251 75.8667 72.1415ZM73.657 67.7359L72.7363 67.1852C72.5522 67.1852 72.368 67.1852 72.368 67.1852L71.2632 67.9195C71.079 67.9195 71.079 68.1031 71.2632 68.1031L72.1839 68.6538C72.368 68.6538 72.5522 68.6538 72.5522 68.6538L73.657 67.9195C73.8411 67.9195 73.8411 67.9195 73.657 67.7359ZM75.4984 66.8181L74.5777 66.2674C74.3936 66.2674 74.2094 66.2674 74.2094 66.2674L73.1046 66.8181C72.9204 66.8181 72.9204 67.0017 73.1046 67.0017L74.0253 67.5524C74.2094 67.5524 74.3936 67.5524 74.3936 67.5524L75.4984 67.0017C75.4984 66.8181 75.4984 66.8181 75.4984 66.8181ZM77.3398 65.7167L76.4191 65.166C76.235 65.166 76.0508 65.166 76.0508 65.166L74.946 65.7167C74.7619 65.7167 74.7619 65.9003 74.946 65.9003L75.8667 66.451C76.0509 66.451 76.235 66.451 76.235 66.451L77.3398 65.9003V65.7167ZM78.9971 66.6345L77.8923 66.0838C77.7081 66.0838 77.524 66.0838 77.524 66.0838L76.4191 66.6345C76.235 66.6345 76.235 66.8181 76.4191 66.8181L77.3398 67.3688C77.524 67.3688 77.7081 67.3688 77.7081 67.3688L78.813 66.8181C78.9971 66.8181 78.9971 66.6345 78.9971 66.6345ZM80.4703 67.5524L79.5495 67.0017C79.5495 67.0017 79.3654 67.0017 79.1813 67.0017L77.7081 67.9195H77.524L76.235 67.1852C76.0509 67.1852 75.8667 67.1852 75.6826 67.1852L72.9204 68.8373C72.7363 68.8373 72.7363 69.0209 72.9204 69.2045L75.3143 70.673C75.4984 70.673 75.6826 70.673 75.8667 70.673L80.4703 67.9195C80.6544 67.7359 80.6544 67.5524 80.4703 67.5524Z" fill="#364157"/>
<path d="M104.041 142.263L72.1841 160.986L91.3348 172L123.376 153.46L104.041 142.263Z" fill="#F9F9FB"/>
<path d="M123.743 153.828C123.743 153.645 123.559 153.645 123.559 153.645C123.559 153.645 123.559 153.645 123.375 153.461L91.3345 172.001L91.5186 175.489L123.559 156.949C124.112 156.582 124.112 154.562 123.743 153.828Z" fill="#DDDDDF"/>
<path d="M103.304 141.529C102.935 141.161 102.567 140.611 102.383 139.877C102.015 139.142 101.831 138.224 101.831 137.49V110.69C101.831 109.588 102.199 109.038 102.751 108.67L69.7899 125.558C69.2375 125.926 68.6851 128.128 68.6851 129.23L68.9527 157.052C68.9527 157.786 69.1368 158.704 69.5051 159.438C69.6892 159.989 70.0575 160.539 70.4258 161.09C70.7941 161.457 70.9782 161.641 71.3465 161.824L104.409 142.263C103.856 142.079 103.488 141.896 103.304 141.529Z" fill="#DDDDE1"/>
<path d="M104.224 105.55C102.935 104.815 101.831 104.815 100.91 105.366L68.8691 124.744C69.7898 124.193 70.8947 124.193 72.1837 124.928L89.3089 134.84L121.35 115.279L104.224 105.55Z" fill="white"/>
<path d="M109.749 58.9245C108.276 60.0259 110.117 69.3878 103.12 71.7741C102.383 71.9577 101.094 71.407 100.542 71.2234C99.253 70.8563 87.8362 66.6343 87.8362 66.6343C87.2838 66.2671 85.8106 64.6151 84.5216 63.8808C83.6009 63.3301 82.6802 62.963 81.7595 62.7794C81.5754 62.7794 81.0229 62.7794 80.6547 62.7794C78.0767 63.8808 75.867 66.0836 75.4987 66.4507C75.3146 66.6343 75.1304 66.8178 75.3146 67.0014C75.3146 67.185 75.4987 67.185 75.6828 67.185C75.4987 67.7357 76.0511 67.9192 76.2353 67.9192C76.6035 67.9192 77.3401 67.5521 77.3401 67.5521C77.5243 67.5521 77.7084 67.5521 77.8925 67.5521C79.5498 67.9192 81.3912 68.2864 81.7595 68.6535C82.3119 69.0206 81.023 69.7549 81.023 69.7549C81.023 69.7549 79.3657 69.5713 79.1815 69.5713C78.6291 69.5713 77.8925 69.9385 78.0767 70.3056C78.0767 70.6727 78.445 70.6727 78.6291 70.8563C79.1815 71.0398 80.8388 71.407 80.8388 71.407C81.3912 71.2234 85.0741 70.6727 85.0741 70.6727C85.0741 70.6727 112.695 78.9332 113.064 78.9332C113.984 79.1167 116.931 74.7112 117.299 70.8563C117.851 67.0014 114.721 55.4368 109.749 58.9245Z" fill="#FFCCAA"/>
<path d="M113.248 72.8755C114.905 72.692 116.93 72.1413 118.035 71.407C118.035 68.2864 118.035 61.1273 117.483 58.1903C116.01 51.5819 108.276 49.1956 106.803 58.5574C106.25 61.4945 105.882 71.0399 105.882 71.0399C107.907 72.692 110.67 73.0591 113.248 72.8755Z" fill="#0B00AE"/>
<path d="M112.879 104.448C112.879 104.448 84.8896 98.9414 82.3116 98.0236C74.3935 95.6372 70.3424 104.265 70.7107 105.733C65.5547 104.815 58.7414 106.1 56.5317 117.298L59.2939 115.646C62.9767 118.032 79.9178 124.641 85.6262 127.394C92.4394 130.515 111.958 122.621 112.695 114.912C112.695 114.912 112.879 105.55 112.879 104.448Z" fill="#1E2940"/>
<path d="M112.511 52.8666C105.882 52.683 92.0713 61.4942 88.7567 64.0641C88.7567 64.0641 88.9409 73.6095 88.0202 83.7056C87.6519 89.029 85.0739 106.651 84.5215 110.506C84.5215 111.057 84.5215 111.791 85.0739 112.158C91.5189 118.216 109.012 115.462 113.063 105.733C113.063 95.8209 117.299 53.4173 112.511 52.8666Z" fill="#0B00AE"/>
<path d="M107.907 54.7024C107.723 54.5188 107.723 54.3353 107.723 53.9681C107.723 53.4174 107.723 52.8667 107.723 52.316C107.723 51.5818 107.723 50.664 107.539 49.9297C107.355 48.8283 106.066 49.1954 105.145 49.0119C103.672 48.4612 102.199 48.4612 100.542 48.2776C100.358 48.2776 99.9893 48.2776 99.8051 48.094C99.4369 47.9105 99.2527 47.7269 98.8844 47.7269C98.7003 47.7269 98.332 47.7269 97.9637 47.5433C97.7796 47.5433 95.9382 46.9926 95.9382 46.8091C96.4906 49.379 97.043 55.4367 97.043 58.5573C97.043 58.5573 94.2809 60.5765 93.9126 60.7601C96.6747 63.1464 103.304 61.1272 106.987 58.1901C107.539 57.6394 108.276 57.0887 108.46 56.3545C108.644 55.6202 108.092 55.2531 107.907 54.7024Z" fill="#FFCCAA"/>
<path d="M94.281 69.9385C92.8078 66.2671 88.7567 65.3493 86.1787 69.2042C85.0739 70.8563 84.1532 75.9961 81.391 83.8894L80.2862 83.3387C70.1584 77.8318 69.606 78.0153 69.2377 76.7304C68.8694 75.8125 68.317 73.9769 67.9487 73.6098C67.9487 73.6098 66.4755 72.1412 66.1073 71.9577C65.9231 71.7741 65.5548 71.7741 65.1866 71.9577C65.0024 72.1412 65.0024 72.3248 65.0024 72.5084C64.8183 72.5084 64.45 72.3248 64.2658 72.3248C61.3196 72.5084 59.6623 74.7112 59.4781 74.8947C59.1099 75.0783 59.1099 75.0783 59.1099 75.4454C59.1099 75.629 59.294 75.629 59.4781 75.8125C59.1099 76.1797 59.4781 76.5468 59.8464 76.5468C60.2147 76.5468 60.9513 76.5468 60.9513 76.5468C61.1354 76.5468 61.3196 76.5468 61.5037 76.7304C62.9768 77.6482 63.5293 77.8318 63.7134 78.3825C68.5011 83.7059 82.68 94.1691 85.6263 92.3334C90.2298 89.3964 96.1224 74.7112 94.281 69.9385Z" fill="#FFCCAA"/>
<path d="M87.8361 84.4396C89.4934 84.6232 91.519 84.6232 92.808 84.0725C93.5445 81.1355 95.2018 73.9764 95.2018 70.6722C95.386 63.6967 88.3886 59.6583 84.8899 68.653C83.785 71.4065 81.207 80.7683 81.207 80.7683C82.6802 82.9711 85.2582 84.0725 87.8361 84.4396Z" fill="#0B00AE"/>
<path d="M91.8869 98.024L91.3345 110.69L91.7028 137.123C91.7028 137.674 91.5186 138.041 91.3345 138.225L123.375 119.501C123.559 119.318 123.743 118.95 123.743 118.4V79.4839L91.8869 98.024Z" fill="#DDDDDF"/>
<path d="M123.928 79.3001C123.928 79.1165 123.744 79.1165 123.744 78.9329C123.559 78.5658 123.191 78.3822 122.823 78.1987C122.27 78.0151 121.902 77.8315 121.718 77.8315L89.4932 96.3717L91.887 98.0237L123.928 79.4836V79.3001Z" fill="white"/>
<path d="M91.3346 172.001L72.1838 160.987C70.8948 160.252 69.6058 158.05 69.6058 156.214V129.413C69.6058 127.578 70.7107 126.66 72.1838 127.578L90.598 138.224C91.3346 138.592 91.887 138.224 91.887 137.307V98.3908C91.887 97.8401 91.1504 97.2894 90.598 96.9223C89.8614 96.5551 89.309 96.3716 89.309 96.9223V134.186L72.1838 124.274C69.4217 122.621 67.0278 124.274 67.0278 128.128V154.929C67.0278 158.6 69.2375 163.006 72.1838 164.658L91.3346 175.672C92.0711 175.855 92.0711 172.368 91.3346 172.001Z" fill="#EBECF3"/>
<path d="M91.7028 44.0555C91.8869 46.0748 92.2552 47.9104 92.4393 49.9296C92.8076 51.7653 93.1759 53.6009 93.5442 55.253C93.5442 55.6202 93.7283 55.9873 93.9125 56.3544C94.0966 56.7216 94.4649 56.9051 94.8332 57.2723C96.6746 58.3736 98.1477 58.0065 100.173 57.823C101.831 57.6394 103.304 57.0887 104.777 56.3544C105.698 55.9873 106.434 55.4366 106.987 54.5188C107.355 53.7845 107.539 53.0502 107.539 52.1324C107.539 48.2775 105.882 44.7898 104.04 41.4856C103.488 40.5678 103.12 39.65 102.383 38.9157C100.91 37.2636 98.516 36.7129 96.1222 36.3458C94.8332 36.1622 93.1759 35.9787 92.2552 37.0801C91.5186 37.8143 91.3345 38.9157 91.3345 39.8335C91.3345 40.9349 91.5186 42.587 91.7028 44.0555Z" fill="#FFCCAA"/>
<path d="M90.5976 38.5489C90.7817 40.201 91.3342 41.853 91.5183 42.5873C91.5183 42.7709 91.7024 43.138 91.8866 43.3216C92.2549 44.0558 92.8073 44.7901 92.9914 45.5243C93.1756 46.4422 92.9914 47.5436 93.728 48.2778C93.9122 48.4614 94.0963 48.645 94.2804 48.4614C94.4646 48.4614 94.6487 48.0943 94.6487 47.9107C94.8329 47.36 95.017 46.2586 95.5694 46.075C96.306 45.8915 97.2267 46.9929 97.4108 47.5436C97.7791 48.4614 97.4108 49.3792 97.595 50.2971C97.7791 52.3163 98.3316 53.9684 100.357 54.1519C101.646 54.3355 103.119 54.3355 104.408 53.9684C108.091 53.0505 110.485 50.1135 110.853 46.6257C111.406 42.9544 111.221 38.3653 109.012 35.0611C107.539 32.6748 104.408 31.9405 101.462 32.3076C98.884 32.6748 97.0426 32.6748 93.3597 34.694C92.0707 35.4283 90.4135 37.2639 90.5976 38.5489Z" fill="#2E2C34"/>
<path d="M90.5976 38.5487C90.7817 40.2008 91.3341 41.8529 91.5183 42.5872C91.5183 42.7707 91.7024 43.1379 91.8866 43.3214C95.3853 40.7515 96.6743 37.8145 93.5438 34.6938C92.0707 35.4281 90.4134 37.2638 90.5976 38.5487Z" fill="#2E2C34"/>
<path d="M55.7948 62.2285L42.5366 69.9383L48.0609 73.0589L61.3191 65.5327L55.7948 62.2285Z" fill="#1E2A3D"/>
<path d="M61.3188 65.5332L48.0605 73.0594C48.0605 73.243 48.0605 73.6101 48.0605 73.7937L61.3188 66.0839C61.5029 66.2675 61.5029 65.7168 61.3188 65.5332Z" fill="#1D293C"/>
<path d="M54.6898 60.9439C54.5056 60.3932 54.3215 59.8425 54.5056 59.4753L58.1885 51.582L44.9303 59.2918L41.2474 67.1851C41.0633 67.5522 41.0633 68.1029 41.4316 68.6536C41.6157 69.0207 41.6925 69.271 41.8767 69.4546C42.0608 69.6382 42.3874 69.9653 42.5364 69.9386L55.7946 62.2288C55.6105 62.0453 55.4263 61.8617 55.2422 61.6781C55.0581 61.4946 54.8739 61.311 54.6898 60.9439Z" fill="#172030"/>
<path d="M48.0608 73.0594L42.5366 69.9388C42.1683 69.7553 41.8 69.2046 41.4317 68.6539C41.2476 68.1032 41.0635 67.5525 41.2476 67.1853L44.9304 59.292V59.1085V51.3987C44.9304 51.2151 44.7463 50.848 44.5622 50.848C44.378 50.6644 44.1939 50.848 44.1939 51.0316V58.7413L40.6952 66.6346C40.511 67.1853 40.511 67.9196 40.8793 68.8374C41.2476 69.7553 41.8 70.4895 42.5366 70.8566L48.0608 73.7839C48.245 73.7839 48.245 73.243 48.0608 73.0594Z" fill="#1D293C"/>
<path d="M58.1886 43.5053C58.1886 43.5053 58.1886 43.3217 58.0044 43.3217L57.8203 43.1382H57.6361L44.3779 50.8479H44.5621C44.5621 50.8479 44.7462 50.8479 44.7462 51.0315L44.9304 51.2151V51.3986V59.1084V59.2919L58.1886 51.5822V51.3986V43.6889V43.5053Z" fill="#B2B9BB"/>
<path d="M80.6541 0.733887L80.8383 41.8525L20.4398 76.5464L19.8873 69.5709L19.519 34.8771L80.6541 0.733887Z" fill="#1E2A3D"/>
<path d="M20.4399 76.5468L19.335 75.9961L19.1509 34.6938L20.4399 35.4281V76.5468Z" fill="#1D293C"/>
<path d="M20.4399 35.4281L19.1509 34.6939L79.5494 0L80.6543 0.734262L20.4399 35.4281Z" fill="#34455F"/>
<path opacity="0.1" d="M20.8081 35.6114L80.2859 1.46826V35.0607L20.8081 69.2039V35.6114Z" fill="#A39DAB"/>
<path opacity="0.8" d="M26.1482 35.2444C26.8848 34.8773 27.2531 35.9787 26.7007 36.8965C26.3324 37.8144 25.5958 37.9979 25.5958 36.8965C25.2275 37.6308 24.491 39.0993 24.491 38.1815C24.491 37.6308 24.6751 36.5294 24.6751 35.9787C24.6751 35.7951 24.6751 35.7951 24.8592 35.7951C24.8592 35.7951 24.8592 35.7951 24.8592 35.9787C24.6751 36.713 24.6751 37.4472 24.6751 37.9979C24.8592 37.6308 25.0434 37.4472 25.2275 37.0801C25.5958 36.5294 25.7799 36.3458 25.7799 36.8965C25.7799 37.0801 25.9641 37.2637 26.1482 37.2637C26.8848 36.8965 26.8848 34.8773 26.1482 35.2444C26.1482 35.6116 25.9641 35.6116 26.1482 35.2444C25.9641 35.428 25.9641 35.428 26.1482 35.2444ZM30.0152 34.5102C30.0152 34.5102 28.1738 35.9787 28.1738 35.7951C27.9896 35.7951 30.0152 34.3266 30.0152 34.5102ZM30.0152 33.7759L29.6469 33.9595C27.0689 35.9787 28.3579 34.6937 30.0152 33.7759C30.1993 33.7759 30.0152 33.5923 30.0152 33.7759ZM31.4883 35.428C31.3042 35.6116 31.1201 35.9787 31.1201 35.6116C31.1201 35.428 31.4883 34.143 31.4883 34.143C30.9359 35.2444 30.0152 35.428 30.5676 34.143C31.1201 32.6745 31.8566 32.491 31.8566 32.8581C31.8566 33.0416 31.8566 33.0416 31.6725 32.8581C31.1201 32.6745 30.1994 35.0609 30.7518 34.6937C31.1201 34.5102 31.4883 33.9595 31.6725 33.2252C31.6725 33.2252 31.8566 33.0417 31.8566 33.2252C31.8566 33.4088 31.3042 35.2444 31.3042 35.428C31.8566 34.8773 32.0408 34.6937 31.4883 35.428ZM32.5932 31.5731C32.7773 31.7567 32.5932 32.3074 32.4091 32.491C31.8566 35.0609 33.5139 33.0417 33.5139 31.5731C33.5139 31.3896 33.5139 30.8389 33.698 31.0224C33.8822 31.206 33.5139 32.6745 33.5139 33.0416C32.9615 34.3266 32.2249 34.3266 32.2249 33.7759C32.2249 33.5923 32.5932 31.5731 32.5932 31.5731ZM34.987 32.8581C34.987 32.6745 36.276 28.8196 36.276 29.0032C36.4602 29.1868 35.1712 32.491 34.987 32.6745C35.1712 32.8581 35.1712 33.0416 34.987 32.8581ZM37.3809 29.1868L37.1967 29.3703C37.0126 29.3703 37.7492 28.2689 38.1175 28.4525C38.6699 28.6361 37.7492 30.1046 37.3809 30.4717C37.1967 30.6553 37.0126 31.0224 36.8285 31.206C37.0126 31.206 38.1175 30.1046 38.1175 30.2882C38.1175 30.4717 37.0126 31.206 36.8285 31.206C36.6443 31.206 36.6443 31.206 36.6443 31.206C36.6443 31.0224 37.0126 30.6553 37.1967 30.4717C38.3016 29.0032 38.1175 28.2689 37.7492 28.6361C37.565 28.8196 37.3809 29.0032 37.3809 29.1868ZM40.5113 28.2689C40.6954 28.2689 40.6954 28.2689 40.6954 28.2689L39.7747 29.0032C38.1175 30.2882 38.854 29.3703 40.5113 28.2689ZM40.143 28.0854C38.6699 29.1868 38.4857 29.0032 39.7747 28.2689C40.8796 27.3511 41.432 27.1676 40.143 28.0854ZM41.432 29.7375C41.432 29.7375 41.2479 30.1046 41.0637 30.1046C40.8796 30.2882 41.2479 28.8196 41.432 28.4525C41.2479 28.8196 40.6954 29.3703 40.5113 29.3703C39.9589 29.1868 41.0637 27.3511 41.432 27.1676C41.8003 26.984 41.9844 27.5347 41.6161 27.3511C41.432 27.3511 41.2479 27.5347 41.0637 27.9018C39.7747 30.1046 41.2479 29.5539 41.6161 27.9018C41.6161 27.9018 41.8003 27.7183 41.8003 27.9018C41.8003 28.0854 41.2479 29.921 41.2479 30.1046C41.8003 29.1868 42.1686 29.0032 41.432 29.7375ZM43.0893 26.4333C43.2734 26.4333 42.5369 26.984 42.5369 26.984C42.1686 27.1676 42.3527 26.8004 42.721 26.4333C43.2734 25.699 43.0893 25.3319 42.721 25.699C42.5369 25.8826 42.3527 25.8826 42.721 25.5155C43.0893 24.9648 43.4576 25.3319 43.0893 26.0662C42.9051 26.2497 42.721 26.4333 42.5369 26.8004C43.0893 26.2497 43.0893 26.4333 43.0893 26.4333ZM43.4576 28.0854C43.2734 28.0854 44.7466 24.0469 44.7466 24.2305C45.1148 24.0469 44.5624 25.3319 44.3783 25.699C44.01 26.6169 44.01 26.984 43.6417 27.9018C43.4576 27.9018 43.4576 28.0854 43.4576 28.0854ZM45.6673 24.4141C45.4831 24.5976 45.299 24.5976 45.6673 24.2305C46.588 23.1291 47.5087 23.8634 45.299 26.6169C45.4831 26.6169 46.588 25.5155 46.588 25.699C46.588 25.8826 45.4831 26.6169 45.299 26.6169C45.1148 26.6169 45.1148 26.6169 45.1148 26.6169C45.1148 26.4333 45.4831 26.0662 45.6673 25.8826C46.9563 23.8634 46.4038 23.4962 45.6673 24.4141ZM49.3501 21.8442V22.762C48.9818 21.8442 48.0611 22.5784 47.6928 23.4962C47.1404 25.3319 48.4294 25.5155 49.3501 23.8634C49.166 24.2305 48.9818 24.4141 48.9818 24.5976C47.1404 26.8004 46.2197 23.6798 48.4294 22.3949C48.7977 22.2113 49.166 22.2113 49.166 22.2113C49.166 22.0277 49.166 22.0277 49.3501 21.8442ZM51.744 22.0277C51.744 22.0277 49.9025 23.4962 49.9025 23.3127C49.7184 23.3127 51.744 21.8442 51.744 22.0277ZM51.744 21.2935L51.3757 21.477C48.7977 23.4962 50.0867 22.0277 51.744 21.2935C51.744 21.2935 51.744 21.1099 51.744 21.2935ZM52.8488 20.1921C52.2964 20.1921 51.5598 21.8442 51.5598 22.3949C51.5598 22.762 51.9281 22.762 52.4805 22.0277C53.0329 21.2935 52.8488 21.8442 52.2964 22.3949C51.5598 23.1291 50.8232 22.9456 51.3757 21.6606C51.7439 21.1099 52.2964 20.1921 52.8488 20.1921C53.2171 20.1921 53.0329 19.8249 52.8488 20.1921ZM53.9537 19.4578C54.1378 19.6414 53.5854 21.2935 53.7695 21.6606C53.9537 21.8442 55.0585 20.5592 54.8744 19.0907C54.8744 18.9071 54.8744 18.9071 54.8744 18.9071C54.8744 18.9071 55.0585 18.9071 55.0585 19.0907C55.0585 21.477 53.0329 23.4962 53.5854 20.7428C53.7695 19.8249 53.7695 19.4578 53.9537 19.4578C53.7695 19.4578 53.7695 19.2742 53.9537 19.4578ZM57.4524 18.1728C57.4524 17.9893 57.4524 17.9893 57.4524 18.1728C57.6365 17.9893 57.6365 17.9893 57.4524 18.1728C57.4524 18.3564 56.8999 18.7235 56.8999 18.7235H56.7158L57.0841 18.1728C57.2682 17.9893 57.4524 17.6222 57.4524 17.4386C57.4524 17.255 57.2682 17.255 57.0841 17.4386L56.8999 17.6222C56.7158 17.6222 56.8999 17.4386 56.8999 17.4386C57.0841 17.255 57.2682 17.0715 57.4524 17.255C57.6365 17.4386 57.4524 17.8057 57.4524 17.9893C57.2682 18.1729 57.0841 18.3564 56.8999 18.7235C57.4524 17.9893 57.4524 18.1728 57.4524 18.1728ZM57.8206 19.8249C57.6365 19.8249 58.9255 16.1536 59.1096 16.1536V15.9701C59.1096 15.9701 59.2938 15.9701 59.2938 16.1536C59.2938 16.3372 58.9255 17.255 58.9255 17.4386C58.5572 18.3564 58.5572 18.7235 58.1889 19.6414C58.0048 19.6414 58.0048 19.8249 57.8206 19.8249ZM60.2145 16.1536C60.0303 16.1536 60.0303 16.1536 60.2145 16.1536C60.0303 16.3372 59.8462 16.3372 60.2145 15.9701C60.3986 15.7865 60.7669 15.4194 60.951 15.6029C61.1352 15.7865 61.1352 16.1536 60.951 16.5208C60.7669 17.0715 60.0303 17.9893 59.6621 18.54C59.6621 18.54 60.0303 18.3564 60.2145 18.1728C60.951 17.6222 60.951 17.6222 60.951 17.6222C60.951 17.8057 59.8462 18.7235 59.4779 18.7235C59.4779 18.7235 59.4779 18.54 59.6621 18.54C59.6621 18.3564 59.8462 18.1728 60.0303 18.1728C61.5035 15.6029 60.7669 15.0522 60.2145 16.1536ZM25.0434 41.3021C25.0434 41.1185 25.0434 41.3021 25.0434 41.3021C25.4117 41.4857 24.6751 43.872 24.6751 43.872C24.491 44.0556 24.6751 42.9542 24.8592 42.5871C25.0434 41.4857 25.0434 41.3021 25.0434 41.3021ZM26.1482 43.6884L26.3324 41.3021C26.3324 41.1185 26.5165 41.1185 26.5165 41.3021C26.5165 41.4857 26.3324 43.872 26.1482 43.6884ZM29.0945 40.3843C29.0945 40.3843 27.2531 41.8528 27.2531 41.6692C26.8848 41.6692 29.0945 40.2007 29.0945 40.3843ZM29.0945 39.65L28.7262 39.8336C26.1482 41.8528 27.2531 40.5678 29.0945 39.65C29.0945 39.65 29.0945 39.4664 29.0945 39.65ZM29.8311 38.5486C29.8311 38.5486 30.0152 38.365 29.8311 38.5486C30.0152 38.7322 29.4628 41.3021 29.4628 41.1185C29.2786 41.1185 29.8311 38.365 29.8311 38.5486ZM31.3042 38.5486L31.1201 38.7322C30.9359 38.7322 31.6725 37.6308 32.0408 37.8144C32.7773 38.1815 31.3042 40.0171 30.7518 40.5678C30.9359 40.3843 31.8566 39.8336 32.0408 39.65C32.5932 39.4664 30.5676 41.1185 30.7518 40.5678C30.7518 40.3843 31.4883 39.4664 31.6725 39.2829C32.4091 38.1815 32.0408 37.8144 31.8566 37.8144C31.6725 38.365 31.4883 38.5486 31.3042 38.5486ZM33.8822 37.6308C33.8822 37.6308 32.0408 39.0993 32.0408 38.9157C31.8566 38.9157 33.8822 37.4472 33.8822 37.6308ZM33.8822 36.8965L33.5139 37.0801C30.9359 39.0993 32.0408 37.8144 33.8822 36.8965C34.0663 36.713 33.8822 36.713 33.8822 36.8965ZM34.6188 35.7951C34.6188 35.6116 34.8029 35.6116 34.6188 35.7951C34.987 35.9787 34.2505 38.365 34.2505 38.365C34.0663 38.5486 34.2505 37.4472 34.4346 37.0801C34.6188 35.9787 34.6188 35.7951 34.6188 35.7951ZM35.3553 38.1815C35.7236 37.8144 35.5395 37.6308 35.5395 37.6308C35.3553 37.6308 35.5395 37.2637 35.7236 37.2637C35.9077 37.2637 35.7236 37.8144 35.5395 37.9979C35.1712 38.5486 34.987 38.7322 35.3553 38.1815ZM37.9333 33.9595C38.1175 34.143 37.9333 34.6937 37.7492 34.8773C37.1967 37.4472 38.854 35.428 38.854 33.9595C38.854 33.7759 38.854 33.2252 39.0382 33.4088C39.4064 33.5923 38.854 35.7951 37.9333 36.3458C37.565 36.5294 37.3809 36.3458 37.3809 35.9787C37.3809 35.9787 37.7492 33.9595 37.9333 33.9595C37.7492 33.9595 37.7492 33.9595 37.9333 33.9595ZM40.5113 35.2444C40.5113 35.2444 40.6954 34.143 40.6954 33.0416C40.6954 32.8581 40.8796 32.8581 40.8796 33.0416C40.8796 35.2444 40.5113 35.6116 40.5113 35.2444ZM42.5369 32.491C42.5369 32.6745 42.3527 33.7759 42.3527 33.4088C42.3527 33.4088 42.3527 32.6745 42.5369 32.491C42.3527 32.6745 41.8003 33.0416 41.6161 33.0416C41.2479 32.8581 42.1686 32.491 42.5369 32.491C42.3527 32.3074 42.5369 31.5731 42.5369 31.5731C42.5369 31.5731 42.721 31.5731 42.721 31.7567C42.721 31.7567 42.721 32.1238 42.5369 32.491C42.721 32.3074 43.2734 31.9403 43.4576 31.9403C43.6417 31.5731 43.8259 31.7567 42.5369 32.491ZM44.3783 30.2882C44.5624 30.4717 44.3783 31.0224 44.1941 31.206C43.6417 33.7759 45.4831 31.7567 45.299 29.921C45.299 29.7375 45.299 29.7375 45.299 29.7375C45.299 29.7375 45.4831 29.7375 45.4831 29.921C45.4831 32.491 43.4576 34.143 44.01 31.5731C44.1941 30.6553 44.1941 30.2882 44.3783 30.2882C44.1941 30.2882 44.1941 30.1046 44.3783 30.2882ZM47.5087 29.3703L47.3245 29.5539C47.1404 29.5539 47.877 28.4525 48.2453 28.6361C48.9818 29.0032 47.5087 30.8389 46.9563 31.3896C47.1404 31.206 48.0611 30.6553 48.2453 30.4717C48.7977 30.1046 47.6928 31.206 47.1404 31.3896C46.9563 31.3896 46.9563 31.3896 46.9563 31.3896C46.9563 31.206 47.3245 30.8389 47.5087 30.6553C47.877 30.2882 48.6135 29.0032 48.2453 28.6361H48.0611C47.6928 29.0032 47.5087 29.1868 47.5087 29.3703ZM48.7977 29.0032C51.1915 27.3511 49.3501 29.0032 48.0611 29.7375C47.877 29.5539 48.6135 29.1868 48.7977 29.0032ZM49.9025 27.5347C49.9025 27.5347 49.3501 27.9018 49.166 28.0854C48.9818 28.0854 48.0611 28.8196 48.0611 28.8196H47.877C48.0611 28.6361 49.7184 27.7183 49.9025 27.5347C50.0867 27.5347 50.0867 27.5347 49.9025 27.5347ZM50.8232 26.6169C51.0074 26.8004 50.8232 27.3511 50.6391 27.5347C50.0867 30.1046 51.744 28.0854 51.744 26.2497C51.744 26.0662 51.744 26.0662 51.744 26.0662C52.1122 25.8826 51.9281 28.4525 50.8232 29.0032C50.455 29.1868 50.2708 29.0032 50.2708 28.6361C50.2708 28.4525 50.6391 26.6169 50.8232 26.6169C50.6391 26.6169 50.6391 26.4333 50.8232 26.6169ZM52.8488 28.2689C52.8488 28.2689 53.2171 27.7183 53.2171 27.5347C53.2171 27.3511 53.2171 27.3511 53.0329 27.3511C52.8488 27.3511 52.8488 27.3511 53.0329 27.1676C53.2171 26.8004 53.7695 26.984 53.2171 27.7183C53.2171 27.9018 52.8488 28.4525 52.8488 28.2689ZM54.6902 26.4333L55.0585 24.2305C54.6902 24.2305 55.6109 23.4962 56.1634 23.4962C56.7158 23.4962 56.1634 24.4141 55.7951 24.7812C55.2426 25.3319 54.8744 25.3319 55.9792 25.699C55.9792 25.699 56.1634 25.699 56.1634 25.8826C56.1634 26.2497 55.0585 25.8826 54.8744 25.699C54.8744 25.8826 54.6902 26.2497 54.6902 26.6169C54.8744 26.4333 54.8744 26.6169 54.6902 26.4333ZM55.2426 25.1483C55.4268 24.7812 56.3475 24.2305 56.3475 23.6798C56.3475 23.3127 55.7951 23.6798 55.4268 24.0469C55.4268 24.2305 55.2426 25.1483 55.2426 25.1483ZM57.6365 25.3319C57.6365 25.3319 57.8206 24.2305 57.8206 23.1291C57.8206 22.9456 58.0048 22.9456 58.0048 23.1291C58.0048 25.5155 57.6365 25.8826 57.6365 25.3319ZM59.6621 22.5784C59.6621 22.5784 59.4779 23.4962 59.4779 23.6798C59.2938 23.6798 59.4779 22.9456 59.6621 22.5784C59.4779 22.762 58.7413 23.1291 58.7413 23.1291C58.7413 23.1291 58.5572 22.9456 58.7413 22.9456C59.1096 22.762 59.1096 22.762 59.6621 22.5784C59.4779 22.3949 59.6621 21.6606 59.6621 21.6606C59.8462 21.477 59.6621 22.2113 59.6621 22.3949C59.8462 22.2113 60.3986 21.8442 60.5828 21.8442C60.7669 21.6606 60.7669 21.8442 59.6621 22.5784ZM60.951 22.9456C60.7669 22.9456 61.1352 22.0277 61.1352 21.8442C61.3193 21.2935 61.3193 20.9263 61.3193 20.7428C60.951 20.7428 61.8718 20.0085 62.4242 20.0085C62.6083 20.0085 62.6083 20.0085 62.6083 20.1921C62.6083 20.5592 62.24 20.9263 62.0559 21.1099C61.5035 21.6606 61.1352 21.6606 62.24 22.0277C62.24 22.0277 62.4242 22.0277 62.4242 22.2113C62.4242 22.3949 61.8718 22.3949 61.6876 22.2113C61.3193 22.2113 61.1352 22.0277 61.1352 21.8442C61.1352 22.0277 60.951 22.2113 60.951 22.5784V22.762C60.951 22.762 60.951 23.1291 60.951 22.9456ZM61.3193 21.6606C61.6876 21.2935 61.8718 21.1099 62.24 20.5592C62.6083 20.0085 62.24 19.8249 61.5035 20.5592C61.5035 20.7428 61.3193 21.477 61.3193 21.6606ZM64.2656 19.8249L64.0815 20.0085C63.8973 20.0085 64.6339 18.9071 65.0022 19.0907C65.5546 19.2742 64.6339 20.7428 64.2656 21.1099C64.0815 21.2935 63.8973 21.6606 63.7132 21.8442C63.7132 21.8442 64.0815 21.6606 64.2656 21.477C65.3705 20.7428 65.1863 20.9263 64.4497 21.477C64.2656 21.6606 63.529 22.2113 63.529 22.0277C63.529 21.8442 64.2656 20.9263 64.4497 20.7428C65.1863 19.6414 64.818 19.2742 64.6339 19.2742C64.4497 19.4578 64.2656 19.6414 64.2656 19.8249ZM65.5546 19.4578C67.2119 18.3564 67.2119 18.54 65.3704 19.8249C64.6339 20.1921 64.4497 20.1921 65.5546 19.4578ZM66.6594 17.9893L66.2912 18.1728C63.7132 20.1921 64.818 18.9071 66.6594 17.9893C66.8436 17.9893 66.8436 17.8057 66.6594 17.9893ZM67.0277 19.4578L67.396 17.255C67.0277 17.255 67.9484 16.5208 68.5009 16.5208C68.8691 16.5208 68.685 17.0715 68.5009 17.255C67.9484 18.1728 67.0277 17.9893 68.1326 18.3564C69.2374 18.7235 67.5802 18.7235 67.396 18.1728C67.396 18.3564 67.2119 18.7235 67.2119 19.0907C67.2119 19.2742 67.0277 19.4578 67.0277 19.4578ZM67.396 18.1728C67.5802 17.8057 68.5009 17.255 68.5009 16.7043C68.5009 16.3372 67.9484 16.7043 67.5802 17.0715C67.5802 17.255 67.396 17.9893 67.396 18.1728ZM26.3324 47.9104L26.7007 48.4611C26.7007 48.6447 26.5165 48.6447 26.3324 48.094C24.8592 50.1132 25.2275 46.4419 26.5165 45.7077C26.8848 45.3405 27.4372 46.2584 26.3324 47.9104ZM26.1482 47.9104C25.9641 47.5433 25.7799 46.8091 25.9641 46.4419C25.0434 47.7269 25.2275 49.1954 26.1482 47.9104ZM26.3324 47.7269C26.5165 47.3598 27.0689 46.2584 26.7007 45.8912C26.3324 45.5241 25.7799 46.4419 26.3324 47.7269ZM29.4628 45.3405C29.4628 45.3405 27.6214 46.8091 27.6214 46.6255C27.4372 46.6255 29.4628 45.157 29.4628 45.3405ZM29.4628 44.6063L29.0945 44.7898C26.5165 46.8091 27.6214 45.5241 29.4628 44.6063C29.6469 44.6063 29.6469 44.4227 29.4628 44.6063ZM30.3835 43.5049C30.3835 43.3213 30.3835 43.3213 30.3835 43.5049C30.7518 43.6884 30.0152 46.0748 30.0152 46.0748C29.8311 46.2584 30.0152 45.157 30.1993 44.7898C30.3835 43.6884 30.3835 43.5049 30.3835 43.5049ZM31.4883 43.1377C31.3042 43.1377 31.3042 43.1377 31.6725 42.7706C31.8566 42.5871 32.2249 42.2199 32.4091 42.4035C33.1456 42.7706 31.6725 44.6063 31.1201 45.157C31.3042 45.157 32.4091 44.0556 32.4091 44.2391C32.4091 44.4227 31.3042 45.157 31.1201 45.157C30.9359 45.157 30.9359 45.157 30.9359 45.157C30.9359 44.9734 31.3042 44.6063 31.4883 44.4227C32.5932 42.9542 32.4091 42.2199 32.0408 42.5871C31.8566 42.7706 31.6725 43.1377 31.4883 43.1377ZM33.1456 44.2391L33.5139 42.0364C33.3298 42.0364 33.5139 41.8528 33.698 41.6692C34.8029 40.7514 35.5395 41.3021 33.8822 42.7706C33.698 42.9542 33.5139 42.9542 34.2505 43.1377C35.3553 43.5049 33.698 43.5049 33.5139 42.9542C33.5139 43.1377 33.3298 44.2391 33.1456 44.2391ZM33.698 42.7706L33.8822 42.5871C35.1712 41.3021 34.8029 40.935 33.8822 41.8528L33.698 42.7706ZM35.7236 41.1185C35.7236 41.4857 35.1712 42.7706 35.5395 42.5871C35.9077 42.4035 36.0919 42.0364 36.0919 42.0364C36.4602 41.8528 35.5395 42.9542 35.3553 42.7706C35.1712 42.7706 35.5395 41.4857 35.5395 41.1185C35.1712 41.6692 34.987 41.4857 35.7236 41.1185C35.5395 40.7514 35.5395 40.7514 35.7236 40.5678V40.3843C35.9077 40.2007 35.9077 40.7514 35.7236 40.935C36.4602 40.3843 36.8285 40.3843 35.7236 41.1185ZM68.685 12.8495H69.2374C69.2374 13.033 68.685 13.2166 68.3167 13.033C67.396 12.6659 68.3167 10.6467 68.8691 9.72884C69.0533 9.54528 69.6057 8.62745 69.6057 8.99458C69.6057 8.99458 68.8691 10.096 68.685 10.2795C68.3167 11.1974 67.7643 12.6659 68.685 12.8495ZM69.7899 12.1152L70.1581 9.91241C69.974 9.72884 70.5264 9.17814 70.7106 9.17814C71.0789 8.99458 71.4471 8.99458 71.4471 9.36171C71.4471 9.72884 71.0788 10.096 70.8947 10.2795C70.3423 10.8302 69.974 10.8302 71.0788 11.0138C71.4471 11.1974 71.263 11.3809 70.7106 11.1974C70.3423 11.1974 70.1581 11.0138 70.1581 10.8302C70.1581 11.0138 69.974 12.1152 69.7899 12.1152ZM70.1581 10.8302C70.3423 10.4631 71.263 9.91241 71.263 9.36171C71.263 8.99458 70.7106 9.36171 70.3423 9.72884C70.3423 9.72884 70.1581 10.6467 70.1581 10.8302ZM73.4727 8.99458C73.6568 8.99458 73.6568 8.99458 73.6568 8.99458C73.6568 8.99458 73.1044 9.54527 72.9203 9.54527C70.7106 11.0138 71.8154 9.91241 73.4727 8.99458ZM73.6568 8.07675L73.2886 8.26032C70.7106 10.4631 71.9996 8.99458 73.6568 8.07675C73.841 8.07675 73.841 7.89319 73.6568 8.07675ZM74.7617 7.15892C75.13 6.42466 75.4983 6.42466 75.4983 7.34249C75.4983 7.70962 75.4983 8.07675 75.3141 8.44388C74.5775 10.096 73.6568 8.81101 74.7617 7.15892ZM75.3141 7.34249C75.3141 6.60823 75.13 6.60823 74.7617 7.15892C74.5775 7.34249 74.5775 7.52606 74.5775 7.89319C74.0251 9.72884 75.3141 8.99458 75.3141 7.34249ZM75.8665 8.99458C75.6824 9.17814 75.4983 9.17814 75.4983 9.17814L76.0507 8.44388C76.6031 7.70962 76.7873 7.34249 76.7873 6.97536C76.9714 6.60823 76.9714 6.42466 76.9714 6.2411C76.9714 6.05753 76.9714 5.87397 76.9714 5.87397C76.9714 5.6904 76.7873 5.6904 76.7873 5.6904H76.6031H76.419C76.419 5.6904 76.419 5.6904 76.6031 5.50684C76.7872 5.50684 76.9714 5.50684 77.1555 5.50684C77.3397 5.6904 77.3397 5.87397 77.3397 6.2411C77.3397 6.79179 77.1555 7.34249 76.9714 7.70962C76.7872 7.89319 76.7872 8.07675 76.6031 8.44388C76.2348 8.26032 76.0507 8.62745 75.8665 8.99458ZM69.0533 22.2113C68.8691 22.3949 68.5009 22.5784 68.1326 22.762C68.1326 22.9456 67.7643 24.2305 67.7643 24.0469C67.7643 24.0469 67.7643 23.4962 67.9484 23.3127C68.1326 22.3949 68.3167 21.477 68.3167 21.477C68.5009 21.2935 69.6057 20.5592 69.6057 20.7428C69.6057 20.7428 69.4216 20.9263 69.2374 20.9263C69.0533 21.1099 68.8691 21.1099 68.685 21.2935C68.5009 21.2935 68.5009 21.477 68.3167 21.6606C68.3167 21.8442 68.1326 22.3949 68.1326 22.5784C68.685 22.3949 69.4216 21.8442 69.0533 22.2113ZM70.8947 21.8442C70.1581 23.4962 68.8691 23.3127 70.3423 21.1099C71.0788 20.0085 71.4471 20.5592 71.263 21.1099C71.263 21.1099 71.0788 21.6606 70.8947 21.8442C71.0788 21.8442 71.0788 22.2113 71.0788 22.2113C71.0788 22.2113 71.0788 22.2113 70.8947 22.2113C70.8947 22.3949 70.8947 22.0277 70.8947 21.8442ZM71.0788 21.1099C71.0788 20.9263 71.0788 20.9263 71.0788 20.7428C70.8947 20.5592 70.5264 20.9263 70.5264 21.2935C69.0533 23.3127 70.5264 23.1291 71.0788 21.1099ZM72.552 20.5592C73.841 19.6414 74.2093 19.6414 73.1044 20.3756C73.1044 20.3756 71.9996 21.2935 71.8154 21.1099C71.6313 21.1099 72.3678 20.7428 72.552 20.5592ZM73.6568 19.0907C73.4727 19.2742 71.9996 20.1921 71.8154 20.3756H71.6313C71.8154 20.1921 73.4727 19.0907 73.6568 19.0907C73.841 19.0907 73.841 18.9071 73.6568 19.0907ZM74.5775 17.9893C74.5775 17.8057 74.5775 17.9893 74.5775 17.9893C74.7617 18.1729 74.5775 19.2742 74.5775 19.4578C74.5775 19.4578 74.3934 20.5592 74.2093 20.5592C74.0251 20.7428 74.2093 19.6414 74.3934 19.2742C74.5775 18.1729 74.5775 17.9893 74.5775 17.9893ZM75.13 20.0085C74.9458 20.0085 74.9458 19.8249 74.9458 19.8249C74.9458 19.8249 75.13 19.8249 75.3141 19.8249C75.3141 19.8249 75.3141 19.8249 75.3141 19.6414C75.3141 19.6414 75.6824 17.9893 75.6824 17.6222C75.6824 17.6222 75.4983 17.8057 75.4983 17.6222C75.3141 17.6222 75.4983 17.4386 75.6824 17.4386C76.9714 16.3372 77.708 17.0715 76.2348 18.3564C76.6031 18.1729 76.7872 18.1728 76.9714 18.1728C77.5238 17.9893 75.8665 20.0085 75.13 20.0085ZM75.8665 18.54C75.6824 18.54 75.6824 18.54 75.8665 18.54C75.6824 18.7235 75.4983 19.6414 75.4983 19.8249C76.6031 18.9071 77.3397 17.6222 75.8665 18.54ZM76.6031 17.0715C76.419 17.0715 76.0507 17.255 75.8665 17.4386C76.0507 17.4386 75.8665 18.1729 75.6824 18.3564C75.6824 18.3564 75.8665 18.1728 76.0507 18.1728C76.2348 17.9893 76.419 17.8057 76.6031 17.6222C76.6031 17.4386 76.7872 17.0715 76.6031 17.0715ZM23.5702 53.9681C23.3861 54.1517 23.0178 54.3352 22.6495 54.5188C22.6495 54.7024 22.2812 55.9873 22.2812 55.8038L22.8337 53.2338C23.0178 53.0503 24.1227 52.316 24.1227 52.4996L23.3861 53.0503C23.202 53.0503 23.202 53.2338 23.0178 53.4174C23.0178 53.601 22.8337 54.1517 22.8337 54.3352C23.202 54.1517 23.9385 53.601 23.5702 53.9681ZM25.0434 53.4174C26.7007 52.316 26.7007 52.4996 24.8592 53.7845C24.1227 54.1517 23.9385 54.1517 25.0434 53.4174ZM26.1482 51.9489L25.7799 52.1325C23.3861 54.1517 24.3068 52.8667 26.1482 51.9489C26.3324 51.9489 26.3324 51.7653 26.1482 51.9489ZM26.5165 53.4174C26.3324 53.4174 26.3324 53.2338 26.3324 53.2338C26.3324 53.2338 26.5165 53.2338 26.7007 53.2338C26.5165 53.0503 26.7007 52.8667 26.7007 52.6832C27.0689 51.3982 27.0689 51.0311 27.0689 51.0311C26.8848 51.2146 26.7007 51.0311 26.8848 50.8475C28.1738 49.7461 28.9104 50.4804 27.4372 51.7653C29.4628 50.4804 27.6214 53.4174 26.5165 53.4174ZM27.2531 51.9489C27.0689 52.1325 26.8848 53.0503 26.8848 53.2338C28.1738 52.4996 28.9104 51.0311 27.2531 51.9489ZM27.2531 50.8475C27.4372 50.8475 27.2531 51.5818 27.0689 51.7653C27.2531 51.5818 27.6214 51.2146 27.8055 51.0311C28.3579 50.6639 28.1738 50.2968 27.2531 50.8475ZM30.0152 52.316C29.2786 53.2338 29.6469 52.316 30.0152 51.0311C29.4628 52.1325 28.5421 52.316 29.0945 51.0311C29.2786 50.6639 29.6469 49.9297 30.0152 49.7461C30.3835 49.5625 30.5676 50.1132 30.1993 49.9297C29.6469 49.7461 28.7262 52.1325 29.2786 51.7653C29.8311 51.3982 30.1993 50.2968 30.1993 50.2968C30.3835 50.1132 30.1993 50.8475 30.0152 51.2146C29.8311 51.7653 29.6469 52.316 29.6469 52.4996C30.3835 51.7653 30.5676 51.5818 30.0152 52.316ZM32.2249 48.4611C32.5932 48.8283 32.4091 50.2968 31.4883 50.8475C30.7518 51.2146 30.7518 50.6639 30.7518 49.9297C30.7518 49.5625 30.7518 49.379 30.7518 49.379L31.1201 49.1954C31.1201 49.1954 31.1201 50.1132 31.1201 50.2968C31.1201 51.0311 32.0408 50.6639 32.0408 49.379C32.0408 49.0118 32.0408 48.8283 31.8566 48.6447L32.2249 48.4611ZM33.8822 47.7269C33.698 47.7269 33.5139 47.9104 33.3298 48.094C32.9615 48.4611 33.1456 48.6447 33.5139 48.6447C34.2505 48.6447 33.8822 49.379 33.3298 49.7461C33.1456 49.9297 32.5932 49.9297 32.5932 49.7461C32.5932 49.7461 32.5932 49.5625 32.7773 49.5625C33.3298 49.7461 34.2505 48.6447 33.3298 48.8283C33.1456 48.8283 32.9615 48.8283 32.9615 48.6447C32.9615 48.2776 33.5139 47.7269 33.698 47.5433C34.0663 47.3598 34.0663 47.9104 33.8822 47.7269ZM34.8029 46.9926C34.987 46.9926 33.8822 51.2146 34.4346 47.9104C34.4346 47.7269 34.6188 46.8091 34.8029 46.9926ZM34.987 46.4419C34.8029 46.4419 34.6188 46.4419 34.8029 46.2584C34.987 45.8912 35.1712 46.2584 34.987 46.4419ZM36.8285 45.8912C37.0126 46.0748 36.8285 46.6255 36.8285 46.8091C36.4602 48.094 36.276 47.9104 36.4602 47.5433C36.4602 47.1762 36.8285 46.4419 36.8285 46.0748C36.8285 45.3405 36.0919 46.8091 35.9077 47.3598C34.8029 49.5625 35.7236 47.5433 35.7236 46.4419C35.7236 46.2584 35.9077 46.2584 35.9077 46.4419C35.9077 46.8091 35.7236 47.5433 35.5395 47.7269C35.5395 47.5433 36.276 45.7077 36.8285 45.8912ZM40.143 43.872C40.143 44.0556 40.143 44.7898 40.143 45.157C40.143 45.3405 40.143 45.5241 40.3272 45.3405V45.5241C40.143 45.7077 39.9589 45.7077 39.9589 45.3405C39.5906 46.2584 38.4857 46.6255 38.4857 45.5241C38.4857 44.4227 39.5906 43.6884 39.9589 44.0556C39.9589 43.872 39.9589 43.872 39.9589 43.6884L40.143 43.872ZM39.7747 45.3405C39.7747 45.157 39.7747 44.9734 39.7747 44.7898C39.5906 44.2391 38.854 44.7898 38.854 45.7077C38.6699 46.4419 39.5906 46.0748 39.7747 45.3405ZM27.0689 56.9052C28.3579 55.9873 28.5421 55.9873 27.6214 56.7216C25.9641 57.823 25.9641 57.6394 27.0689 56.9052ZM27.8055 55.8038C25.2275 57.6394 26.7007 56.1709 28.1738 55.4366C28.3579 55.2531 28.5421 55.2531 27.8055 55.8038ZM28.5421 56.9052C28.3579 56.9052 28.3579 56.7216 28.3579 56.7216C28.3579 56.7216 28.5421 56.7216 28.7262 56.7216C28.5421 56.538 28.7262 56.3545 28.7262 56.1709C29.0945 54.8859 29.0945 54.5188 29.0945 54.5188C28.9104 54.7024 28.7262 54.5188 28.9104 54.3352C30.1993 53.2338 30.9359 53.9681 29.4628 55.2531C31.4883 53.9681 29.6469 56.9052 28.5421 56.9052ZM29.2786 55.4366C29.0945 55.6202 28.9104 56.538 28.9104 56.7216C30.1993 55.9873 30.9359 54.5188 29.2786 55.4366ZM29.2786 54.3352C29.4628 54.3352 29.2786 55.0695 29.0945 55.2531C29.2786 55.0695 29.6469 54.7024 29.8311 54.5188C30.3835 54.1517 30.1993 53.7845 29.2786 54.3352ZM30.7518 55.2531C30.7518 55.0695 30.7518 55.2531 30.7518 55.2531C31.4883 55.4366 32.7773 54.3352 31.6725 53.9681C31.3042 53.7845 31.1201 53.601 31.3042 53.4174C31.4883 53.0503 32.4091 52.316 32.4091 52.4996L31.8566 53.0503C31.3042 53.601 31.4883 53.601 31.8566 53.7845C32.0408 53.7845 32.2249 53.9681 32.2249 54.1517C32.4091 55.0695 30.7518 55.9873 30.7518 55.2531ZM34.2505 53.7845C33.698 54.5188 32.7773 54.7024 32.7773 53.7845C32.7773 52.8667 33.698 52.1325 34.2505 51.9489V52.316C32.9615 52.316 32.7773 55.0695 34.2505 53.601V53.7845ZM34.6188 53.4174C34.0663 52.8667 35.3553 50.8475 35.7236 51.2146C36.276 51.7653 34.987 53.7845 34.6188 53.4174ZM34.8029 53.2338C35.3553 52.8667 35.9078 51.2146 35.3553 51.3982C34.6188 51.9489 34.4346 53.2338 34.8029 53.2338ZM37.3809 50.4804C37.1967 50.4804 37.0126 50.6639 36.8285 50.8475C36.4602 51.2146 36.6443 51.3982 37.0126 51.3982C37.7492 51.3982 37.3809 52.1325 36.8285 52.4996C36.6443 52.6832 36.0919 52.6832 36.0919 52.4996C36.0919 52.4996 36.0919 52.316 36.276 52.316C36.8285 52.316 37.565 51.3982 36.8285 51.3982C36.6443 51.3982 36.4602 51.3982 36.4602 51.2146C36.4602 50.8475 37.0126 50.2968 37.1967 50.1132C37.565 49.9297 37.565 50.4804 37.3809 50.4804ZM40.6954 48.2776C40.6954 48.4611 40.6954 49.1954 40.6954 49.5625C40.6954 49.7461 40.6954 49.9297 40.8796 49.7461V49.9297C40.6954 50.1132 40.5113 50.1132 40.5113 49.7461C40.3272 50.1132 40.143 50.2968 39.9589 50.4804C38.854 51.0311 39.0382 49.0118 39.9589 48.4611C40.143 48.2776 40.5113 48.2776 40.5113 48.4611C40.5113 48.2776 40.5113 48.2776 40.5113 48.094L40.6954 48.2776ZM39.7747 50.4804C39.9589 50.2968 40.143 49.9297 40.3272 49.7461C40.5113 49.1954 40.3272 48.8283 39.7747 49.0118C39.0382 49.379 39.0382 50.8475 39.7747 50.4804ZM49.3501 42.5871C49.9025 42.4035 50.455 42.5871 50.455 43.1377C50.455 43.6884 50.2708 44.0556 49.9025 44.4227C49.7184 44.6063 49.5342 44.7898 49.3501 44.9734C49.166 45.157 49.3501 45.5241 49.166 45.7077C49.166 45.7077 49.166 45.7077 49.166 45.5241C49.166 45.157 49.166 44.9734 48.7977 45.157C48.6135 45.3405 48.4294 45.3405 48.0611 45.157C47.877 44.9734 47.877 44.7898 47.877 44.4227C47.877 44.0556 48.0611 43.6884 48.2453 43.3213C48.4294 43.1377 48.6135 42.9542 48.7977 42.7706C48.9818 42.7706 49.166 42.5871 49.3501 42.5871ZM48.9818 43.3213C48.7977 43.3213 48.6135 43.5049 48.4294 43.6884C48.2453 43.872 48.2453 44.2391 48.2453 44.4227C48.2453 45.157 48.9818 44.9734 48.9818 44.4227C48.9818 44.2391 49.166 43.5049 48.9818 43.3213ZM49.5342 44.4227C49.7184 44.4227 49.9025 44.2391 50.0867 43.872C50.0867 43.6884 50.2708 43.1377 50.0867 42.9542C49.9025 42.7706 49.5342 42.7706 49.3501 42.9542C49.166 43.1377 49.166 43.872 49.3501 44.0556C49.3501 44.2391 49.3501 44.4227 49.5342 44.4227ZM25.0434 56.538C25.5958 56.3545 26.1482 56.538 26.1482 57.0887C26.1482 57.6394 25.9641 58.0065 25.5958 58.3737C25.4117 58.5572 25.2275 58.7408 25.0434 58.9244C24.8592 59.1079 25.0434 59.4751 24.8592 59.6586C24.8592 59.6586 24.8592 59.6586 24.8592 59.4751C24.8592 59.1079 24.8592 58.9244 24.491 59.1079C24.3068 59.2915 24.1227 59.2915 23.7544 59.1079C23.5702 58.9244 23.5702 58.5572 23.5702 58.3737C23.5702 58.0065 23.7544 57.6394 23.9385 57.2723C24.1227 57.0887 24.3068 56.9052 24.491 56.7216C24.6751 56.7216 24.8592 56.7216 25.0434 56.538ZM24.491 57.4558C24.3068 57.4558 24.1227 57.6394 23.9385 57.823C23.9385 58.0065 23.9385 58.1901 23.9385 58.5572C23.9385 59.2915 24.6751 59.1079 24.6751 58.5572C24.6751 58.1901 24.6751 57.4558 24.491 57.4558C24.6751 57.4558 24.491 57.4558 24.491 57.4558ZM25.0434 58.3737C25.2275 58.3737 25.4117 58.1901 25.5958 57.823C25.5958 57.6394 25.7799 57.0887 25.5958 56.9052C25.4117 56.7216 25.0434 56.7216 24.8592 56.9052C24.6751 57.0887 24.6751 57.823 24.8592 58.0065C24.8592 58.3737 25.0434 58.3737 25.0434 58.3737ZM51.5598 42.7706C53.0329 41.8528 52.8488 42.0364 52.4805 42.4035C50.2708 43.872 50.6391 43.5049 51.5598 42.7706ZM51.0074 42.5871C50.8232 42.5871 51.0074 42.5871 51.0074 42.5871C50.8232 42.4035 52.4805 41.3021 52.6647 41.3021C53.4012 40.935 51.744 42.2199 51.0074 42.5871ZM53.4012 42.4035C53.9537 42.0364 54.5061 41.4857 54.5061 41.4857C55.0585 41.1185 53.0329 43.1377 53.0329 42.4035C53.0329 42.2199 53.4012 40.3843 53.4012 40.2007C53.4012 40.0171 53.4012 40.0171 53.4012 40.0171C54.1378 40.5678 53.0329 42.7706 53.4012 42.4035ZM55.6109 39.0993C55.6109 38.9157 55.6109 39.0993 55.6109 39.0993C55.7951 39.0993 55.7951 39.0993 55.6109 39.0993C55.7951 40.3843 54.6902 43.5049 55.4268 40.5678C55.6109 39.2829 55.6109 39.0993 55.6109 39.0993ZM67.0277 29.0032C67.0277 29.1868 66.2912 29.5539 66.107 29.7375C66.107 29.921 66.107 30.1046 65.9229 30.2882C65.7387 30.8389 65.5546 31.206 66.8436 30.1046C67.2119 29.7375 67.2119 29.921 66.6594 30.4717C64.6339 32.1238 65.9229 29.921 65.9229 28.8196C65.9229 28.6361 66.2912 28.2689 66.6594 28.2689C67.9484 27.5347 67.396 28.0854 66.107 28.8196C66.107 29.0032 65.9229 29.5539 65.9229 29.7375C66.107 29.3703 67.0277 28.8196 67.0277 29.0032ZM68.1326 27.7183C68.3167 27.7183 67.7643 30.1046 67.5802 29.7375L67.9484 28.0854C67.9484 28.0854 67.9484 27.7183 68.1326 27.7183ZM68.3167 27.1676C68.1326 27.1676 67.9484 27.1676 68.1326 26.984C68.3167 26.8004 68.5009 27.1676 68.3167 27.1676ZM70.3423 27.3511C70.5264 27.1676 70.5264 27.1676 70.3423 27.3511C70.3423 27.5347 68.685 28.6361 68.685 28.6361C68.5009 28.4525 70.1581 27.3511 70.3423 27.3511ZM70.1581 26.8004C67.5802 28.6361 69.0533 27.1676 70.5264 26.4333C70.7106 26.2497 70.7106 26.2497 70.1581 26.8004ZM71.0788 26.984C71.9996 24.0469 72.1837 24.5976 72.552 25.699C72.9203 26.6169 72.9203 26.6169 72.1837 27.1676C70.5264 28.4525 70.8947 27.9018 71.0788 26.984ZM71.9996 25.1483C71.6313 25.8826 71.263 26.984 71.0788 27.7183C71.4471 27.5347 72.1837 26.984 72.552 26.6169C72.3678 26.0662 72.1837 25.5155 71.9996 25.1483ZM75.4983 22.762V22.9456C76.9714 22.2113 76.9714 24.4141 75.4983 25.3319V25.5155L75.13 25.699V25.5155C73.6568 26.2497 73.6568 24.0469 75.13 23.1291V22.9456L75.4983 22.762ZM75.13 23.3127C74.2093 23.8634 74.0251 25.699 75.13 25.1483V23.3127ZM75.4983 25.1483C76.419 24.4141 76.6031 22.762 75.4983 23.3127V25.1483ZM67.9484 33.0416C68.1326 32.8581 68.1326 33.0417 67.9484 33.2252C67.7643 33.4088 67.396 33.5923 67.2119 33.7759C67.2119 34.143 66.8436 34.8773 67.0277 34.8773C67.5802 34.5102 68.1326 33.9595 68.1326 33.9595C68.5009 33.7759 67.2119 35.0609 66.8436 35.0609C66.6594 35.0609 66.8436 34.5102 66.8436 34.3266C67.396 32.491 66.8436 32.491 68.5009 31.7567C68.685 31.5731 68.8691 31.7567 68.1326 32.1238C67.9484 32.3074 67.7643 32.3074 67.7643 32.491C67.5802 32.491 67.5802 32.6745 67.5802 32.6745C67.5802 32.8581 67.396 33.4088 67.396 33.5923C67.396 33.4088 67.7643 33.2252 67.9484 33.0416ZM69.2374 31.7567C69.4216 31.7567 68.8691 33.7759 68.685 33.9595C68.685 33.9595 68.5009 33.9595 68.685 33.7759C68.8691 32.6745 68.8691 32.8581 69.0533 32.3074C69.0533 32.1238 69.0533 31.7567 69.2374 31.7567ZM69.4216 31.0224C69.6057 31.3896 69.0533 31.3896 69.2374 31.0224C69.4216 30.8389 69.4216 30.8389 69.4216 31.0224ZM71.6313 31.206C71.6313 31.206 71.0788 31.7567 70.8947 31.7567C70.8947 31.7567 69.7899 32.6745 69.6057 32.491C69.6057 32.491 71.6313 31.0224 71.6313 31.206ZM71.6313 30.4717L71.263 30.6553C68.8691 32.6745 69.7899 31.3896 71.6313 30.4717C71.8154 30.4717 71.8154 30.2882 71.6313 30.4717ZM72.1837 29.3703C73.841 28.0854 74.0251 29.1868 73.2886 29.921C74.2093 29.5539 74.0251 31.206 72.1837 31.9403V29.3703ZM72.552 30.2882C73.841 29.5539 73.6568 28.6361 72.552 29.3703V30.2882ZM72.552 31.5731C72.9203 31.3896 73.4727 31.0224 73.4727 30.4717C73.4727 29.921 72.9203 30.2882 72.552 30.4717V31.5731ZM74.0251 30.8389C74.0251 30.6553 74.0251 30.8389 74.0251 30.8389C74.5775 28.4525 74.5775 27.7183 74.5775 27.7183C74.5775 27.7183 74.7617 27.7183 74.7617 27.9018C74.7617 28.4525 74.5775 29.3703 74.3934 30.6553C74.2093 30.4717 74.2093 30.8389 74.0251 30.8389ZM76.6031 27.5347C76.9714 27.9018 76.7873 29.3703 75.8665 29.921C75.4983 30.1046 75.13 30.1046 75.13 29.5539C75.13 29.3703 75.13 28.6361 75.13 28.4525L75.4983 28.2689C75.4983 28.2689 75.4983 29.1868 75.4983 29.3703C75.4983 29.7375 75.6824 29.7375 75.8665 29.7375C76.419 29.3703 76.419 28.2689 76.2348 27.9018L76.6031 27.5347ZM26.1482 61.1272C26.1482 61.1272 25.9641 61.3107 25.9641 61.4943C25.7799 61.6779 25.4117 62.5957 25.2275 62.7793C25.4117 62.9628 26.1482 63.3299 25.9641 63.5135C25.7799 63.6971 25.2275 63.1464 25.2275 62.9628C24.8592 63.6971 24.6751 64.0642 24.6751 64.2478C24.491 64.6149 24.3068 64.4313 24.491 64.4313C24.491 64.4313 24.6751 64.0642 25.2275 62.9628C25.0434 62.7792 24.491 62.045 24.6751 61.8614H24.8592C24.8592 62.045 25.0434 62.2285 25.2275 62.5957C25.4117 62.2285 25.7799 61.4943 25.9641 61.3107C25.9641 60.9436 26.1482 60.9436 26.1482 61.1272ZM26.7007 62.7793C26.7007 62.9628 27.6214 62.2286 27.8055 62.2286C28.3579 61.6779 27.8055 62.5957 26.8848 63.1464C26.7007 63.3299 26.5165 63.3299 26.5165 63.1464L27.0689 60.76C27.4372 60.2093 26.7007 62.4121 26.7007 62.7793ZM29.0945 60.76C30.5676 59.8422 30.3835 60.0258 30.0152 60.3929C27.8055 61.8614 28.1738 61.3107 29.0945 60.76ZM30.3835 59.2915L30.0152 59.4751C27.2531 61.4943 28.7262 60.0258 30.3835 59.2915C30.3835 59.1079 30.3835 59.1079 30.3835 59.2915ZM32.2249 59.6586C32.5932 59.4751 32.7773 58.1901 32.2249 58.0065L32.5932 57.823C32.7773 57.823 32.9615 58.1901 32.9615 58.5572C32.9615 59.8422 32.0408 60.3929 31.8566 59.8422C31.8566 60.0258 31.6725 60.3929 31.3042 60.3929C30.5676 60.9436 30.3835 59.4751 30.9359 58.7408L31.3042 58.5572C30.9359 59.1079 30.9359 60.3929 31.3042 60.2093C31.6725 60.0258 31.6725 59.2915 31.6725 58.9244L32.0408 58.7408C32.0408 59.1079 31.8566 59.8422 32.2249 59.6586ZM33.698 58.7408C34.2505 58.3737 34.8029 57.823 34.8029 57.823C34.987 57.6394 34.6188 58.0065 34.4346 58.3737C34.0663 58.7408 33.3298 59.2915 33.3298 58.9244C33.3298 58.9244 33.8822 56.1709 33.698 56.538C33.698 56.538 33.698 56.3545 33.8822 56.538C34.2505 56.7216 33.3298 59.1079 33.698 58.7408ZM37.1967 55.9873C37.1967 55.9873 36.6443 56.538 36.4602 56.538C36.4602 56.538 35.3553 57.4559 35.1712 57.2723C35.1712 57.2723 37.1967 55.8038 37.1967 55.9873ZM35.5395 56.538C35.3553 56.538 35.3553 56.538 35.5395 56.538C35.3553 56.3545 37.0126 55.2531 37.1967 55.2531C37.9333 54.7024 36.0919 56.1709 35.5395 56.538ZM38.3016 54.3352L38.1175 54.5188C37.9333 54.5188 38.6699 53.4174 39.0382 53.601C39.7747 53.9681 38.3016 55.8038 37.7492 56.3545C37.9333 56.1709 38.854 55.6202 39.0382 55.4366H39.2223C39.2223 55.6202 38.1175 56.3545 37.9333 56.3545H37.7492C37.7492 56.3545 37.7492 56.1709 37.9333 56.1709C38.3016 55.8038 38.3016 55.6202 38.6699 55.2531C39.4064 53.9681 39.0382 53.2338 38.3016 54.3352ZM40.3272 53.4174C39.0382 54.1517 40.5113 52.8667 41.8003 52.316C41.9844 52.1325 42.1686 52.316 41.432 52.6832V52.8667C41.2479 53.2338 41.2479 53.9681 41.432 54.3352C41.6161 54.5188 41.2479 54.7024 41.2479 54.5188C41.0637 54.1517 41.2479 53.2338 41.432 52.8667C41.2479 53.0503 40.8796 53.2338 40.5113 53.4174C40.5113 53.601 40.5113 53.9681 40.5113 54.5188C40.3272 55.8038 39.7747 55.8038 40.143 55.2531C40.3272 54.8859 40.5113 54.3352 40.5113 53.7845C40.3272 53.601 40.3272 53.4174 40.3272 53.4174ZM42.5369 53.7845C43.0893 53.4174 43.6417 52.8667 43.6417 52.8667C44.1941 52.4996 42.1686 54.5188 42.1686 53.7845C42.1686 53.7845 42.721 51.0311 42.5369 51.3982C42.5369 51.3982 42.5369 51.2146 42.721 51.3982C43.0893 51.7653 42.1686 53.9681 42.5369 53.7845ZM44.1941 51.2146C44.9307 53.0503 44.3783 51.7653 44.7466 52.4996C44.9307 51.9489 45.299 51.2146 45.299 50.6639L45.6673 50.4804C45.6673 51.0311 45.299 52.1325 44.9307 52.6832L44.5624 52.8667L43.8258 51.3982L44.1941 51.2146ZM46.2197 35.428C46.2197 35.428 46.2197 35.2444 45.299 37.0801C45.299 37.0801 45.4831 37.2637 45.6673 37.2637C46.4038 37.8144 46.0356 37.9979 45.1148 37.2637C44.9307 37.6308 44.1941 39.0993 44.1941 38.7322C44.1941 38.7322 44.5624 37.9979 44.9307 37.2637C44.5624 36.8965 44.3783 36.5294 44.3783 36.3458C44.3783 36.1623 44.5624 36.1623 44.5624 36.3458C44.5624 36.5294 44.7466 36.713 44.9307 37.0801C45.1148 36.713 45.4831 35.9787 45.6673 35.7951C46.0356 35.2444 46.2197 35.428 46.2197 35.428ZM47.5087 35.0609C47.6928 34.8773 47.877 35.0609 47.877 35.0609C47.877 35.2444 47.877 35.2444 47.6928 35.0609C47.1404 34.8773 46.0356 37.8144 47.3245 36.5294L47.6928 36.1623C48.0611 35.9787 47.1404 37.0801 46.588 37.0801C46.4038 37.0801 46.4038 36.8965 46.4038 36.713C46.4038 36.5294 47.1404 35.428 47.5087 35.0609ZM49.9025 34.5102C50.0867 34.3266 50.2708 34.5102 49.9025 34.6937C46.7721 36.8965 48.4294 35.428 49.9025 34.5102ZM50.0867 33.7759L49.7184 33.9595C48.9818 34.5102 48.4294 34.8773 48.2453 34.8773H48.0611C48.2453 34.8773 49.9025 33.7759 50.0867 33.7759C50.2708 33.7759 50.2708 33.5923 50.0867 33.7759ZM50.8232 34.5102C50.8232 33.9595 51.0074 33.2252 51.0074 32.6745C51.0074 32.491 51.1915 32.491 51.1915 32.6745C51.0074 34.8773 50.6391 35.7951 50.8232 34.5102ZM51.5598 34.8773C51.3757 34.8773 52.8488 30.8389 52.8488 31.0224C52.8488 30.8389 53.0329 31.0224 53.0329 31.206L51.744 34.6937C51.744 34.8773 51.744 35.0609 51.5598 34.8773ZM54.8744 32.6745C55.2426 32.491 55.4268 31.206 54.8744 31.0224L55.2426 30.8389C55.4268 30.8389 55.6109 31.206 55.6109 31.5731C55.6109 32.8581 54.6902 33.4088 54.5061 32.8581C54.5061 33.0416 54.3219 33.4088 53.9537 33.4088C53.2171 33.9595 53.0329 32.491 53.5854 31.7567L53.9537 31.5731C53.7695 31.9403 53.5854 32.3074 53.5854 32.6745C53.5854 33.5923 54.3219 33.2252 54.3219 32.491V31.7567L54.6902 31.5731C54.5061 32.1238 54.3219 32.8581 54.8744 32.6745ZM57.6365 29.0032C57.4523 29.0032 57.0841 29.3703 57.0841 29.5539C55.7951 31.3896 56.5316 32.1238 57.4524 31.0224C58.1889 30.1046 57.6365 31.3896 56.8999 31.7567C55.4268 32.491 56.3475 29.5539 57.6365 29.0032C57.8206 29.0032 57.6365 28.8196 57.6365 29.0032ZM44.7466 40.7514C45.1148 40.5678 44.3783 43.5049 44.3783 43.3213C44.1941 43.3213 44.5624 42.2199 44.5624 42.0364C44.7466 40.935 44.7466 40.7514 44.7466 40.7514ZM47.6928 40.5678C47.5087 41.6692 47.1404 41.8528 47.3245 41.3021C47.6928 40.2007 47.6928 39.0993 46.9563 40.7514C46.2197 42.0364 46.0356 43.1377 46.4038 41.3021C46.588 40.5678 46.4038 40.2007 46.0356 41.1185C45.8514 41.4857 45.1148 42.9542 45.1148 42.9542C44.9307 43.1377 45.299 41.6692 45.299 41.4857C45.299 40.7514 45.6673 40.7514 45.299 42.5871C45.4831 42.2199 46.0356 40.7514 46.4038 40.3843C46.588 40.3843 46.7721 40.3843 46.7721 40.7514C46.7721 40.935 46.7721 41.1185 46.588 41.3021C46.7721 40.7514 46.9563 40.3843 47.1404 40.2007C47.6928 39.2829 48.0611 39.2829 47.6928 40.5678ZM49.7184 39.65C48.9818 41.3021 47.6928 40.935 49.166 38.9157C49.9025 37.8144 50.2708 38.365 50.0867 38.9157C50.0867 39.4664 49.9025 39.0993 49.9025 39.8336C49.9025 40.0171 49.9025 40.0171 49.7184 40.0171C49.7184 40.2007 49.7184 39.65 49.7184 39.65ZM49.9025 38.9157C49.9025 38.7322 49.9025 38.7322 49.9025 38.5486C49.7184 38.365 49.3501 38.7322 49.3501 39.0993C47.877 41.1185 49.166 40.935 49.9025 38.9157ZM51.5598 39.0993C51.5598 39.0993 51.3757 39.0993 51.0074 38.7322C50.8232 39.0993 50.2708 40.2007 50.2708 39.8336L51.0074 38.7322C50.8232 38.5486 50.455 38.1815 50.6391 37.9979C50.6391 37.9979 50.8232 37.8144 50.8232 37.9979C50.8232 38.1815 51.0074 38.365 51.1915 38.5486C51.1915 38.365 51.744 37.2637 51.9281 37.2637C52.2964 37.0801 51.744 37.8144 51.5598 38.1815C51.3757 38.365 51.3757 38.7322 51.1915 38.7322C51.9281 39.2829 50.8232 38.1815 51.5598 39.0993C51.744 39.0993 51.744 38.9157 51.5598 39.0993ZM51.9281 39.0993C51.9281 39.0993 53.2171 35.0609 53.2171 35.2444C53.4012 35.428 52.8488 36.5294 52.8488 36.713C52.4805 37.6308 52.4805 37.9979 52.1122 38.9157C52.1122 39.0993 52.1122 39.2829 51.9281 39.0993ZM55.7951 34.6937C55.4268 35.428 55.4268 35.7951 55.0585 36.5294C55.0585 36.713 54.6902 37.6308 54.5061 37.8144H54.3219C54.1378 37.6308 54.1378 37.0801 54.1378 36.713L53.9537 36.8965C53.5854 37.4472 53.5854 37.2637 53.7695 36.8965C53.9537 36.5294 54.1378 36.3458 54.1378 36.713C54.1378 36.8965 54.1378 36.8965 54.1378 37.0801C54.1378 37.2637 54.1378 37.2637 54.1378 37.4472C54.1378 37.6308 54.1378 37.6308 54.3219 37.8144C54.6902 36.8965 54.8744 36.1623 55.2426 35.0609C55.9792 33.9595 55.9792 34.143 55.7951 34.6937ZM55.9792 34.5102L55.7951 34.6937C55.6109 34.6937 55.7951 34.3266 55.9792 34.3266C56.7158 33.4088 57.4524 33.9595 56.5316 35.2444C56.1634 35.7951 55.9792 36.1623 55.6109 36.713C55.6109 36.713 55.9792 36.5294 56.1634 36.3458C57.2682 35.6116 57.0841 35.7951 56.3475 36.3458C55.2426 37.0801 55.0585 37.0801 55.7951 36.1623C57.2682 34.143 56.7158 33.5923 55.9792 34.5102ZM57.4524 36.1623C57.4524 35.9787 57.8206 35.6116 57.6365 35.6116H57.4524C57.4524 35.428 57.8206 35.2444 57.8206 35.6116C57.8206 35.7951 57.8206 35.9787 57.6365 36.1623C57.2682 36.5294 57.0841 36.713 57.4524 36.1623ZM50.6391 49.379C50.6391 49.5625 49.3501 50.4804 49.166 50.4804C48.6135 50.2968 50.6391 48.2776 50.6391 47.7269L50.0867 47.9104C49.9025 48.094 49.3501 48.4611 49.3501 48.2776C49.3501 47.9104 51.3757 46.8091 50.8232 48.094C50.8232 48.2776 49.3501 50.2968 49.3501 50.2968C49.3501 50.4804 50.6391 49.1954 50.6391 49.379ZM51.744 47.9104C54.1378 46.2584 52.4805 47.7269 51.0074 48.6447C51.0074 48.4611 51.744 48.094 51.744 47.9104ZM53.0329 46.6255L52.6647 46.8091C50.0867 48.6447 51.1915 47.5433 53.0329 46.6255C53.0329 46.4419 53.0329 46.4419 53.0329 46.6255ZM55.6109 44.7898C55.0585 46.0748 54.5061 47.5433 54.5061 47.5433C54.5061 47.7269 54.3219 47.9104 54.1378 47.9104C53.9537 47.9104 53.7695 46.9926 53.7695 46.8091C53.5854 46.9926 53.5854 47.1762 53.5854 47.1762C53.4012 47.5433 53.4012 46.8091 53.9537 46.6255C54.1378 46.4419 54.1378 46.8091 54.1378 46.9926C54.1378 47.1762 54.1378 47.5433 54.3219 47.7269C54.6902 46.8091 54.8744 46.0748 55.2426 44.9734C55.6109 44.2391 55.7951 44.2391 55.6109 44.7898ZM55.7951 46.6255H56.3475C56.3475 46.8091 55.7951 46.9926 55.4268 46.8091C54.6902 46.4419 55.2426 44.9734 55.6109 44.2391C56.5316 42.4035 56.8999 42.5871 56.7158 42.9542C56.3475 43.3213 56.1634 43.6884 55.7951 44.0556C55.4268 45.157 54.8744 46.6255 55.7951 46.6255ZM58.7413 42.5871C58.7413 42.5871 58.7413 42.4035 57.8206 44.2391C57.8206 44.2391 58.0048 44.4227 58.1889 44.4227C58.9255 44.9734 58.5572 45.157 57.6365 44.4227C57.4523 44.7898 56.7158 46.2584 56.7158 45.8912C56.7158 45.8912 57.0841 45.157 57.4524 44.4227C57.2682 44.0556 57.0841 43.872 57.0841 43.5049C57.0841 43.3213 57.2682 43.3213 57.2682 43.5049C57.2682 43.6884 57.4523 43.872 57.6365 44.2391C57.8206 43.872 58.1889 43.1377 58.3731 42.9542C58.7413 42.4035 58.9255 42.5871 58.7413 42.5871ZM60.2145 42.2199C60.5828 42.0364 60.7669 42.4035 60.3986 42.4035C59.8462 42.2199 58.5572 45.5241 60.2145 43.6884C60.3986 43.5049 60.5828 43.5049 60.2145 43.872C59.8462 44.2391 59.2938 44.6063 59.2938 44.0556C59.1096 43.6884 59.8462 42.5871 60.2145 42.2199ZM60.951 42.7706C60.7669 42.7706 62.0559 41.6692 62.0559 41.8528C62.0559 42.0364 60.951 42.7706 60.951 42.7706ZM64.2656 39.4664C64.2656 39.4664 64.0815 39.65 64.0815 39.8336C63.8973 40.0171 63.529 40.935 63.3449 41.1185C63.3449 41.1185 63.529 41.3021 63.7132 41.3021C64.4497 41.8528 64.0815 41.8528 63.7132 41.6692C63.529 41.6692 63.3449 41.4857 63.1607 41.3021C62.24 43.1377 62.24 42.7706 62.24 42.5871C62.4242 42.2199 62.7925 41.4857 62.9766 41.1185C62.7925 40.935 62.6083 40.7514 62.6083 40.3843C62.6083 40.2007 62.7925 40.2007 62.7925 40.3843C62.7925 40.5678 62.9766 40.7514 63.1607 41.1185C63.3449 40.7514 63.7132 40.0171 63.8973 39.8336C64.2656 39.2829 64.4497 39.4664 64.2656 39.4664ZM65.0022 41.1185C65.5546 40.7514 66.107 40.2007 66.107 40.2007C66.6594 39.8336 64.6339 41.8528 64.6339 41.1185C64.6339 41.1185 65.1863 38.365 65.0022 38.7322C65.0022 38.7322 65.0022 38.5486 65.1863 38.7322C65.5546 39.0993 64.6339 41.4857 65.0022 41.1185ZM66.2912 40.935C66.2912 40.935 67.396 39.4664 67.5802 38.5486C67.7643 38.1815 67.9484 37.2637 67.5802 37.0801C67.5802 37.0801 67.396 37.0801 67.2119 36.8965C67.0277 36.8965 67.2119 36.713 67.2119 36.713C67.7643 36.3458 68.5009 37.4472 67.2119 39.65C66.4753 40.935 66.2912 40.935 66.2912 40.935ZM69.2374 36.8965L69.0533 37.0801C68.8691 37.0801 69.0533 36.713 69.2374 36.713C69.974 35.7951 70.8947 36.3458 69.4216 38.365C69.2374 38.5486 69.0533 38.9157 68.8691 39.0993C69.0533 39.0993 70.1581 37.9979 70.1581 38.1815C70.1581 38.365 69.0533 39.0993 68.8691 39.0993C68.685 39.0993 68.685 39.0993 68.685 39.0993C68.685 38.9157 69.0533 38.5486 69.2374 38.365C70.5264 36.5294 69.7899 35.9787 69.2374 36.8965ZM71.8154 36.3458C71.8154 36.5294 71.8154 36.713 71.6313 36.8965C71.6313 36.8965 71.6313 37.2637 71.4471 37.2637C71.4471 37.2637 71.4471 37.2637 71.4471 37.0801C71.4471 37.2637 71.4471 37.0801 71.8154 36.3458C71.6313 36.5294 70.8947 36.8965 70.8947 36.8965C70.8947 36.8965 70.7106 36.713 70.8947 36.713C71.8154 36.1623 71.6313 36.3458 71.8154 35.428C71.8154 35.2444 71.8154 35.2444 71.9996 35.2444C72.1837 35.2444 71.9996 35.7951 71.9996 35.9787C72.1837 35.7951 72.7361 35.428 72.9203 35.428C72.7361 35.428 72.9203 35.6116 71.8154 36.3458ZM72.9203 36.713C72.7361 36.713 73.1044 35.7951 73.1044 35.6116C73.2886 35.0609 73.2886 34.6937 73.2886 34.5102C72.9203 34.5102 73.841 33.7759 74.3934 33.7759C74.7617 33.7759 74.5775 34.3266 74.3934 34.5102C74.2093 34.8773 74.0251 35.0609 73.6568 35.428C73.4727 35.6116 73.2886 35.6116 74.0251 35.7951C74.0251 35.7951 74.2093 35.7951 74.3934 35.7951C74.5775 35.7951 74.5775 35.9787 74.3934 35.9787C74.2093 36.1623 73.4727 35.7951 73.2886 35.6116C73.2886 35.7951 73.2886 35.7951 73.2886 35.9787C73.2886 36.1623 73.2886 36.3458 73.1044 36.5294C73.1044 36.5294 73.1044 36.713 72.9203 36.713ZM73.4727 35.428C73.6568 35.0609 74.5775 34.5102 74.5775 33.9595C74.5775 33.5923 74.0251 33.9595 73.6568 34.3266C73.6568 34.5102 73.4727 35.2444 73.4727 35.428ZM75.6824 33.0416L75.4983 33.2252C75.3141 33.2252 76.0507 32.1238 76.419 32.3074C76.6031 32.491 76.6031 32.8581 76.419 33.2252C76.2348 33.5923 75.8665 34.143 75.6824 34.5102C75.4983 34.6937 75.3141 35.0609 75.13 35.2444C75.3141 35.0609 76.2348 34.5102 76.419 34.3266H76.6031C76.6031 34.5102 75.4983 35.428 75.13 35.428C74.9458 35.428 75.3141 34.8773 75.4983 34.6937C75.8665 34.3266 76.0507 33.9595 76.2348 33.5923C76.419 33.2252 76.419 32.6745 76.0507 32.8581C76.0507 32.8581 75.8665 33.0416 75.6824 33.0416Z" fill="white"/>
<path d="M41.432 98.2079L24.1226 88.2953C24.1226 88.1118 23.9385 88.1118 23.9385 87.7446L41.2478 97.6572C41.2478 98.0243 41.432 98.2079 41.432 98.2079Z" fill="#8B84F1"/>
<path d="M41.2478 97.8404L23.9385 87.7443V85.5415L41.2478 95.454V97.8404Z" fill="#D3AB34"/>
<path d="M41.9846 94.3528L24.6753 84.4403L37.1969 77.0977L54.5063 87.1938L41.9846 94.3528Z" fill="#FFCD39"/>
<path d="M41.2478 95.4539L23.9385 85.5413C23.9385 85.1742 24.3068 84.6235 24.675 84.4399L41.9844 94.3525C41.6161 94.536 41.2478 95.0867 41.2478 95.4539Z" fill="#EEC23E"/>
<path d="M41.9846 98.2078C41.6163 98.3913 41.248 98.2078 41.248 97.8406V95.4543C41.248 95.0872 41.6163 94.5365 41.9846 94.3529L54.5063 87.1938V87.561L54.138 87.7445L53.4014 89.2131L54.138 90.498L54.5063 90.6816V90.8652L41.9846 98.2078Z" fill="#8B84F1"/>
<path d="M41.4322 97.8407C41.4322 98.0243 41.4322 98.0243 41.4322 98.0243H41.6163L54.138 90.8652L53.7697 90.6817L53.0331 89.5803L53.7697 87.7446L41.8005 94.7201C41.6163 94.7201 41.4322 94.9037 41.4322 95.0872C41.248 95.2708 41.248 95.4544 41.248 95.6379L41.4322 97.8407Z" fill="#8B84F1"/>
<path d="M54.1379 87.561L42.1686 94.5365C41.9845 94.5365 41.8004 94.7201 41.8004 94.9037C41.6162 95.0872 41.6162 95.2708 41.6162 95.4543V97.6571L54.1379 90.4981V87.561Z" fill="#FFFFFA"/>
<path d="M32.4093 83.8898L36.6446 81.5034L36.2763 81.3198L32.041 83.7062L32.4093 83.8898Z" fill="#090547"/>
<path d="M32.2252 85.1747L39.0385 81.3198L38.6702 81.1362L31.8569 84.9911L32.2252 85.1747Z" fill="#090547"/>
<path d="M33.3302 85.909L39.9593 82.0542L39.591 81.8706L32.9619 85.7255L33.3302 85.909Z" fill="#090547"/>
</svg>
