<svg width="107" height="154" viewBox="0 0 107 154" fill="none" xmlns="http://www.w3.org/2000/svg">
<g clip-path="url(#clip0_4_4563)">
<path d="M16.1161 122.108C16.1161 139.711 34.4444 153.982 57.0534 153.982C79.6623 153.982 97.9904 139.711 97.9904 122.108C97.9904 104.504 79.6623 90.2334 57.0534 90.2334C34.4444 90.2334 16.1161 104.504 16.1161 122.108Z" fill="#AFAFAF" fill-opacity="0.3"/>
<path d="M2.21691 91.4848C-0.959897 95.171 -0.546798 100.735 3.13943 103.911C6.82567 107.088 12.3891 106.675 15.5661 102.989C18.7429 99.3027 18.3296 93.7391 14.6433 90.5622C10.9571 87.3854 5.39371 87.7985 2.21691 91.4848Z" fill="#BFBFBF"/>
<path d="M24.0757 112.975C22.7563 113.274 21.4446 112.446 21.1457 111.127L18.9587 101.474L20.9774 101.016C22.5016 100.671 24.017 101.627 24.3621 103.151L25.9237 110.044C26.2226 111.364 25.3952 112.676 24.0757 112.975Z" fill="#AFAFAF"/>
<path d="M19.2977 114.057C17.9783 114.356 16.6663 113.529 16.3674 112.209L14.1808 102.556L18.9588 101.474L21.1457 111.127C21.4446 112.446 20.6172 113.758 19.2977 114.057Z" fill="#AFAFAF"/>
<path d="M14.5197 115.139C13.2 115.438 11.8883 114.611 11.5894 113.291L9.40274 103.639L14.1807 102.556L16.3674 112.209C16.6663 113.529 15.8392 114.84 14.5197 115.139Z" fill="#AFAFAF"/>
<path d="M9.74149 116.221C8.42205 116.52 7.11032 115.693 6.81143 114.374L4.62451 104.721L9.40251 103.638L11.5894 113.291C11.8883 114.611 11.0609 115.922 9.74149 116.221Z" fill="#AFAFAF"/>
<path d="M4.96323 117.304C3.64379 117.603 2.33183 116.776 2.03293 115.456L0.471571 108.563C0.126318 107.039 1.08192 105.523 2.60586 105.178L4.6245 104.721L6.81117 114.374C7.11007 115.693 6.28268 117.005 4.96323 117.304Z" fill="#AFAFAF"/>
<path d="M14.8664 105.576C13.4977 105.576 12.3881 104.467 12.3881 103.098V99.5756H17.345V103.098C17.345 104.467 16.2354 105.576 14.8664 105.576Z" fill="#BFBFBF"/>
<path d="M8.76583 100.601C11.7785 103.197 14.8865 101.522 16.3302 100.589C17.8988 99.4829 23.5337 97.2602 26.1129 95.2578C28.8069 89.854 32.4895 77.7363 27.8163 78.5234C20.8171 82.6198 8.52343 87.8843 7.56107 89.0012C6.35776 90.3972 2.66718 95.3454 8.76583 100.601Z" fill="#D4D4D4"/>
<path d="M66.1446 125.118C65.6987 121.861 62.6959 119.582 59.4383 120.028C56.1806 120.474 53.9014 123.476 54.3476 126.734L55.2788 133.535C55.7247 136.792 58.7272 139.072 61.9849 138.626C65.2426 138.179 67.522 135.177 67.0758 131.919L66.1446 125.118Z" fill="#959595"/>
<path d="M39.2818 115.108C41.9294 113.378 45.4785 114.121 47.2086 116.769C48.9389 119.417 48.1953 122.966 45.5477 124.696L39.4223 128.699C36.7745 130.429 33.2256 129.686 31.4953 127.038C29.7649 124.39 30.5085 120.841 33.1563 119.111L39.2818 115.108Z" fill="#959595"/>
<path d="M19.3697 36.8451C19.3697 48.0892 28.4848 57.2046 39.7289 57.2046C50.9728 57.2046 60.088 48.0892 60.088 36.8451C60.088 25.601 50.9728 16.4856 39.7289 16.4856C28.4848 16.4856 19.3697 25.601 19.3697 36.8451Z" fill="#959595"/>
<path d="M60.7666 43.8468C60.7666 56.3625 70.9127 66.5086 83.4282 66.5086C95.9437 66.5086 106.09 56.3625 106.09 43.8468C106.09 31.331 95.9437 21.1849 83.4282 21.1849C70.9127 21.1849 60.7666 31.331 60.7666 43.8468Z" fill="#959595"/>
<path d="M93.3348 50.6658C93.3348 30.9632 77.3626 14.9908 57.6598 14.9908C37.957 14.9908 21.9846 30.963 21.9846 50.6658V96.5757C21.9846 116.278 37.957 132.251 57.6598 132.251C77.3626 132.251 93.3348 116.278 93.3348 96.5757V50.6658Z" fill="#BFBFBF"/>
<path d="M23.5108 21.1397C23.5108 32.5685 32.7756 41.8333 44.2042 41.8333C55.633 41.8333 64.8978 32.5685 64.8978 21.1397C64.8978 9.71088 55.633 0.446045 44.2042 0.446045C32.7756 0.446045 23.5108 9.71088 23.5108 21.1397Z" fill="#959595"/>
<path d="M76.0147 52.967C76.0147 49.1279 76.3706 46.6436 76.6053 41.9426C76.9609 34.8207 80.4441 24.7167 80.4441 24.7167L95.2962 30.958L98.8448 46.9277L96.697 60.656L91.5605 61.9636C90.7823 63.0221 88.6227 65.1373 85.0376 65.0414C77.6881 64.8444 76.0147 56.8058 76.0147 52.967Z" fill="#959595"/>
<path fill-rule="evenodd" clip-rule="evenodd" d="M92.2599 41.939C92.962 44.7319 93.335 47.6554 93.335 50.6661V74.3343C91.2017 72.8622 90.8434 70.3426 90.7427 67.8493V55.9888L92.2599 41.939Z" fill="#959595"/>
<path d="M86.564 61.1717C86.564 64.3953 89.1773 67.0086 92.4009 67.0086C95.6246 67.0086 98.2379 64.3953 98.2379 61.1717C98.2379 57.948 95.6246 55.335 92.4009 55.335C89.1773 55.335 86.564 57.948 86.564 61.1717Z" fill="#BFBFBF"/>
<path d="M49.115 74.6671C53.4854 74.6671 54.9517 71.1494 55.1385 69.3905C55.1385 69.3905 48.2499 68.2635 45.6388 67.4856C43.0277 66.708 39.6826 64.7209 39.6826 64.7209C38.1883 71.0248 43.6515 74.6671 49.115 74.6671Z" fill="white"/>
<path fill-rule="evenodd" clip-rule="evenodd" d="M47.3436 67.9184C46.6842 67.7687 46.0958 67.6219 45.6388 67.4857C44.3688 67.1074 42.9251 66.4429 41.777 65.8604C41.7531 65.9842 41.7348 66.1105 41.7227 66.2392C41.5501 68.0881 42.7319 69.7105 44.3623 69.8626C45.6385 69.9819 46.8112 69.1654 47.3436 67.9184Z" fill="#959595"/>
<path d="M34.7793 68.6431C36.4604 68.6431 36.7559 65.25 36.6939 63.6466C30.9035 61.2559 26.9034 58.1366 25.6272 56.7826C25.6272 65.8881 32.3512 68.6431 34.7793 68.6431Z" fill="white"/>
<path fill-rule="evenodd" clip-rule="evenodd" d="M21.9849 79.755V96.5745C21.9849 116.277 37.9573 132.25 57.6601 132.25C77.3629 132.25 93.335 116.277 93.335 96.5745V79.3913L93.3348 79.3911C92.3386 87.5473 83.398 103.859 55.6052 103.859C30.1097 103.859 21.7357 87.5473 22.1715 79.3911L21.9849 79.755Z" fill="#D4D4D4"/>
<path fill-rule="evenodd" clip-rule="evenodd" d="M21.9849 79.755V96.5745C21.9849 116.277 37.9573 132.25 57.6601 132.25C77.3629 132.25 93.335 116.277 93.335 96.5745V79.3913L93.3348 79.3911C92.3386 87.5473 83.398 103.859 55.6052 103.859C30.1097 103.859 21.7357 87.5473 22.1715 79.3911L21.9849 79.755Z" fill="#D4D4D4"/>
<path d="M58.6401 87.6945C58.6401 80.5967 46.3126 73.9817 40.149 71.3512L35.8998 72.4717L34.2186 69.2032C32.3041 67.6623 28.1016 67.1486 26.7474 67.1486C25.3932 67.1486 19.9766 67.8024 19.9766 75.974C19.9766 84.1456 29.549 85.5464 32.5844 85.5464C35.6194 85.5464 44.3048 94.7922 49.8615 94.7922C50.9822 94.7922 58.6401 94.7922 58.6401 87.6945Z" fill="#959595"/>
<path fill-rule="evenodd" clip-rule="evenodd" d="M24.3954 52.1814C23.075 53.3258 22.9323 55.3239 24.0767 56.6443C25.711 58.5299 30.1857 62.5358 35.8216 64.1672C37.5 64.6532 39.2545 63.6865 39.7405 62.008C40.2263 60.3296 39.2596 58.5748 37.5811 58.089C33.4948 56.9063 29.996 53.8125 28.8586 52.5001C27.7142 51.1797 25.716 51.037 24.3954 52.1814Z" fill="#959595"/>
<path d="M30.1032 61.3727C29.9305 63.2216 31.1124 64.8438 32.7428 64.9962C34.3734 65.1485 35.8351 63.7731 36.0079 61.9242C36.1806 60.0753 34.9987 58.4528 33.3683 58.3005C31.7377 58.1481 30.276 59.5236 30.1032 61.3727Z" fill="#959595"/>
<path fill-rule="evenodd" clip-rule="evenodd" d="M24.0166 38.7681C28.9155 24.9153 42.1286 14.9908 57.6594 14.9908C59.6524 14.9908 61.6071 15.1543 63.511 15.4684C63.0731 19.2662 62.5487 24.508 62.2358 27.7852L47.4802 25.608C42.0214 24.3815 29.8069 27.7391 24.0166 38.7681Z" fill="#959595"/>
<path d="M79.7642 37.7017C78.5932 34.2325 71.9106 26.1674 61.4378 26.3897L51.3033 8.17007C56.55 7.01287 64.4688 6.11521 71.85 10.8908C78.9274 15.4701 82.9195 21.8191 85.0502 32.1789L79.7642 37.7017Z" fill="#959595"/>
<path fill-rule="evenodd" clip-rule="evenodd" d="M22.3338 101.585C24.7694 118.916 39.6575 132.25 57.6598 132.25C77.0275 132.25 92.7906 116.816 93.321 97.5769L92.0277 98.8164L82.3152 112.265L56.7262 121.043L36.3672 114.693L22.3338 101.585Z" fill="#BFBFBF"/>
<path d="M38.2813 107.128L44.5386 102.272L40.5694 98.0695L32.5846 96.0149L38.2813 107.128Z" fill="#BFBFBF"/>
<path fill-rule="evenodd" clip-rule="evenodd" d="M93.0004 101.482C93.2211 99.878 93.335 98.2399 93.335 96.5749V93.6316C86.4505 108.946 77.535 116.467 55.0451 116.467C38.2055 116.467 26.4939 104.501 21.9958 97.4593C22.0547 99.8867 22.3562 102.254 22.877 104.538C27.1214 111.966 41.8058 123.378 55.0451 123.378C71.9644 123.378 88.4549 115.312 93.0004 101.482Z" fill="#959595"/>
<path d="M31.5573 71.9116C31.5573 74.542 33.6899 76.6744 36.3203 76.6744C38.9508 76.6744 41.0831 74.542 41.0831 71.9116C41.0831 69.2809 38.9508 67.1486 36.3203 67.1486C33.6899 67.1486 31.5573 69.2809 31.5573 71.9116Z" fill="#BFBFBF"/>
<path d="M56.915 116.127L56.7774 123.774L50.5201 124.428L50.7454 116.093C50.7562 115.69 51.0861 115.369 51.489 115.369H56.1712C56.5872 115.369 56.9225 115.71 56.915 116.127Z" fill="#BFBFBF"/>
<path fill-rule="evenodd" clip-rule="evenodd" d="M52.0405 50.9591C49.6913 50.1412 47.325 49.771 45.7856 49.6769C44.0424 49.5704 42.5431 50.8971 42.4366 52.6403C42.3302 54.3834 43.6569 55.8827 45.4 55.9892C46.438 56.0527 48.2253 56.3272 49.9607 56.9315C51.7732 57.5629 53.0311 58.3809 53.6156 59.2114C54.6209 60.6392 56.5935 60.9818 58.0215 59.9765C59.4494 58.9712 59.792 56.9986 58.7869 55.5708C57.0703 53.1328 54.3126 51.7506 52.0405 50.9591Z" fill="#959595"/>
<path d="M85.0055 115.696C84.7204 120.554 88.4276 124.723 93.2858 125.008C98.1437 125.293 102.313 121.586 102.598 116.728C102.883 111.87 99.1756 107.7 94.3174 107.415C89.4595 107.131 85.2904 110.838 85.0055 115.696Z" fill="#BFBFBF"/>
<path d="M100.604 111.301C100.69 109.83 94.9737 96.5994 92.2157 90.0572C89.4081 86.2392 84.0888 97.5695 82.2614 103.325C82.7196 106.558 85.2187 112.076 85.5743 113.962C85.9621 115.637 87.0278 119.003 90.9977 119.236C99.0348 119.707 100.496 113.141 100.604 111.301Z" fill="#D4D4D4"/>
<path d="M34.4767 17.7912C43.0371 15.7347 47.2059 12.6774 52.32 8.5083L53.9318 20.5151L37.8675 22.6274C37.1634 21.5156 35.4995 18.9919 34.4767 17.7912Z" fill="#959595"/>
<path fill-rule="evenodd" clip-rule="evenodd" d="M26.8177 32.7245C23.745 37.9953 21.9849 44.1248 21.9849 50.6656V51.907C24.4229 47.5561 26.6132 40.591 27.9756 32.5852L26.8177 32.7245Z" fill="#959595"/>
</g>
<defs>
<clipPath id="clip0_4_4563">
<rect width="107" height="154" fill="white"/>
</clipPath>
</defs>
</svg>
