<svg width="139" height="175" viewBox="0 0 139 175" fill="none" xmlns="http://www.w3.org/2000/svg">
<g clip-path="url(#clip0_4_4510)">
<path d="M30.9907 42.5499C30.1503 39.6819 29.1092 37.9715 26.8185 38.5442C26.0927 38.7255 24.6663 39.7676 25.0939 41.6039C25.4471 43.1221 27.4131 45.2436 31.2812 46.74C31.6102 46.8672 31.941 46.6004 31.8807 46.2528C31.7532 45.5207 31.4936 44.2653 30.9907 42.5499Z" fill="#E7E7E7"/>
<path d="M32.0789 42.5499C32.9195 39.6819 33.738 37.8602 36.0288 38.4329C36.7545 38.6145 38.4035 39.7676 37.9759 41.6042C37.6227 43.1221 35.6567 45.2436 31.7887 46.74C31.4596 46.8672 31.1286 46.6004 31.1892 46.2528C31.3167 45.5207 31.5762 44.2653 32.0789 42.5499Z" fill="#E7E7E7"/>
<path d="M67.0034 4.3985C66.1628 1.53073 65.1217 -0.179592 62.831 0.393092C62.1052 0.57441 60.6788 1.61645 61.1064 3.4528C61.4596 4.97095 63.4256 7.09244 67.2937 8.58885C67.6227 8.71609 67.9537 8.4493 67.8931 8.10164C67.7657 7.36961 67.5061 6.1139 67.0034 4.3985Z" fill="#E7E7E7"/>
<path d="M68.0916 4.39875C68.932 1.53074 69.7505 -0.290885 72.0412 0.281799C72.7672 0.463359 74.416 1.61646 73.9884 3.45305C73.6352 4.97096 71.6692 7.09244 67.8012 8.58886C67.4721 8.7161 67.1413 8.44931 67.2017 8.10165C67.3291 7.36961 67.5887 6.11415 68.0916 4.39875Z" fill="#E7E7E7"/>
<path d="M53.7921 97.2839C83.0825 97.2839 138.306 65.7098 138.306 114.766C138.306 148.947 91.053 174.747 58.8108 174.747C21.2459 174.747 0.757004 161.384 0.757004 138.578C0.757004 115.772 24.5017 97.2839 53.7921 97.2839Z" fill="#AFAFAF" fill-opacity="0.3"/>
<path fill-rule="evenodd" clip-rule="evenodd" d="M55.41 5.39878C55.4595 5.10157 55.7405 4.9007 56.0377 4.95043L55.9481 5.48859C56.0377 4.95043 56.0384 4.95043 56.0384 4.95043L56.0391 4.95067L56.0406 4.95091L56.0447 4.95164L56.0565 4.95357C56.0659 4.9555 56.0785 4.95791 56.0939 4.96105C56.1249 4.96733 56.1676 4.97651 56.2205 4.98955C56.3262 5.01562 56.4737 5.05642 56.6512 5.11799C57.0054 5.24064 57.4836 5.4473 57.9899 5.78483C59.0119 6.46616 60.131 7.67189 60.574 9.7393C60.637 10.0341 60.4494 10.3241 60.1546 10.3873C59.8601 10.4503 59.5699 10.2627 59.5069 9.96794C59.1314 8.21608 58.2043 7.23924 57.3847 6.69287C56.9701 6.41667 56.579 6.2479 56.2936 6.14916C56.1514 6.09966 56.0367 6.06804 55.9602 6.04945C55.922 6.04003 55.8936 6.03375 55.8759 6.03037C55.8672 6.02844 55.8614 6.02747 55.8583 6.02675L55.8561 6.02651C55.5601 5.97581 55.3605 5.6955 55.41 5.39878Z" fill="#404040"/>
<path fill-rule="evenodd" clip-rule="evenodd" d="M55.41 5.39878C55.4595 5.10157 55.7405 4.9007 56.0377 4.95043L55.9481 5.48859C56.0377 4.95043 56.0384 4.95043 56.0384 4.95043L56.0391 4.95067L56.0406 4.95091L56.0447 4.95164L56.0565 4.95357C56.0659 4.9555 56.0785 4.95791 56.0939 4.96105C56.1249 4.96733 56.1676 4.97651 56.2205 4.98955C56.3262 5.01562 56.4737 5.05642 56.6512 5.11799C57.0054 5.24064 57.4836 5.4473 57.9899 5.78483C59.0119 6.46616 60.131 7.67189 60.574 9.7393C60.637 10.0341 60.4494 10.3241 60.1546 10.3873C59.8601 10.4503 59.5699 10.2627 59.5069 9.96794C59.1314 8.21608 58.2043 7.23924 57.3847 6.69287C56.9701 6.41667 56.579 6.2479 56.2936 6.14916C56.1514 6.09966 56.0367 6.06804 55.9602 6.04945C55.922 6.04003 55.8936 6.03375 55.8759 6.03037C55.8672 6.02844 55.8614 6.02747 55.8583 6.02675L55.8561 6.02651C55.5601 5.97581 55.3605 5.6955 55.41 5.39878Z" fill="#959595"/>
<path fill-rule="evenodd" clip-rule="evenodd" d="M77.3646 13.9461C77.3646 13.6448 77.609 13.4005 77.9103 13.4005H79.138C79.4393 13.4005 79.6836 13.6448 79.6836 13.9461C79.6836 14.2474 79.4393 14.4917 79.138 14.4917H77.9103C77.609 14.4917 77.3646 14.2474 77.3646 13.9461Z" fill="#959595"/>
<path d="M72.181 19.8117H62.9051C59.7408 19.8117 57.1758 17.2465 57.1758 14.0825C57.1758 10.9182 59.7408 8.35321 62.9051 8.35321H72.181C75.3453 8.35321 77.9103 10.9182 77.9103 14.0825C77.9103 17.2465 75.3453 19.8117 72.181 19.8117Z" fill="#D4D4D4"/>
<path d="M67.973 8.35321H66.8798C66.8818 8.38339 66.8834 8.41647 66.8854 8.45268C66.8977 8.68132 66.9143 9.03164 66.9308 9.51427C66.9641 10.4795 66.9972 11.9738 66.9972 14.0825C66.9972 16.1909 66.9641 17.6852 66.9308 18.6504C66.9143 19.133 66.8977 19.4834 66.8854 19.712C66.8834 19.7482 66.8818 19.7815 66.8798 19.8117H67.973C67.9738 19.7984 67.9745 19.7847 67.9752 19.7707C67.9878 19.5346 68.0047 19.1772 68.0216 18.6878C68.0551 17.7093 68.0884 16.2025 68.0884 14.0825C68.0884 11.9622 68.0551 10.4554 68.0216 9.47685C68.0047 8.98746 67.9878 8.63014 67.9752 8.39401C67.9745 8.38001 67.9738 8.36625 67.973 8.35321Z" fill="#959595"/>
<path d="M71.7925 19.8117H70.6996C70.7012 19.7815 70.7032 19.7482 70.7051 19.712C70.7174 19.4834 70.7338 19.133 70.7505 18.6504C70.7836 17.6852 70.8169 16.1909 70.8169 14.0825C70.8169 11.9738 70.7836 10.4795 70.7505 9.51427C70.7338 9.03164 70.7174 8.68132 70.7051 8.45268C70.7032 8.41647 70.7012 8.38339 70.6996 8.35321H71.7925C71.7933 8.36625 71.794 8.38001 71.7947 8.39401C71.8075 8.63014 71.8242 8.98746 71.8411 9.47685C71.8746 10.4554 71.9082 11.9622 71.9082 14.0825C71.9082 16.2025 71.8746 17.7093 71.8411 18.6878C71.8242 19.1772 71.8075 19.5346 71.7947 19.7707C71.794 19.7847 71.7933 19.7984 71.7925 19.8117Z" fill="#959595"/>
<path fill-rule="evenodd" clip-rule="evenodd" d="M43.6637 43.4574C43.6142 43.1602 43.3331 42.9593 43.0359 43.0088L43.1255 43.5472C43.0359 43.0088 43.0352 43.0091 43.0352 43.0091H43.0345L43.033 43.0093L43.0289 43.01L43.0171 43.0122C43.0077 43.0139 42.9951 43.0163 42.9797 43.0195C42.9488 43.026 42.906 43.0352 42.8532 43.0482C42.7474 43.0743 42.5999 43.1151 42.4224 43.1766C42.0683 43.2993 41.59 43.506 41.0837 43.8435C40.0617 44.5248 38.9426 45.7303 38.4996 47.7979C38.4366 48.0927 38.6242 48.3827 38.919 48.446C39.2135 48.509 39.5037 48.3214 39.5667 48.0266C39.9422 46.2747 40.8693 45.2979 41.689 44.7515C42.1035 44.4751 42.4946 44.3066 42.78 44.2076C42.9222 44.1583 43.0369 44.1267 43.1134 44.1079C43.1516 44.0987 43.1801 44.0924 43.1977 44.0888C43.2064 44.0871 43.2122 44.0859 43.2153 44.0854L43.2172 44.0849C43.5135 44.0345 43.7132 43.7539 43.6637 43.4574Z" fill="#959595"/>
<path fill-rule="evenodd" clip-rule="evenodd" d="M21.709 52.0047C21.709 51.7031 21.4647 51.459 21.1633 51.459H19.9356C19.6343 51.459 19.39 51.7031 19.39 52.0047C19.39 52.306 19.6343 52.5503 19.9356 52.5503H21.1633C21.4647 52.5503 21.709 52.306 21.709 52.0047Z" fill="#959595"/>
<path d="M26.8926 57.8701H36.1685C39.3328 57.8701 41.8978 55.3051 41.8978 52.1409C41.8978 48.9769 39.3328 46.4116 36.1685 46.4116H26.8926C23.7284 46.4116 21.1633 48.9769 21.1633 52.1409C21.1633 55.3051 23.7284 57.8701 26.8926 57.8701Z" fill="#D4D4D4"/>
<path d="M27.2808 57.8701C27.2801 57.8569 27.2794 57.8433 27.2787 57.8291C27.2659 57.5932 27.2492 57.2359 27.2323 56.7465C27.1987 55.7677 27.1652 54.2609 27.1652 52.1409C27.1652 50.0208 27.1987 48.514 27.2323 47.5355C27.2492 47.0461 27.2659 46.6888 27.2787 46.4527C27.2794 46.4387 27.2801 46.4249 27.2808 46.4116H28.3738C28.3721 46.4418 28.3702 46.4751 28.3683 46.5113C28.3559 46.74 28.3395 47.0903 28.3229 47.5729C28.2898 48.5379 28.2565 50.0322 28.2565 52.1409C28.2565 54.2496 28.2898 55.7438 28.3229 56.7091C28.3395 57.1917 28.3559 57.542 28.3683 57.7704C28.3702 57.8069 28.3721 57.84 28.3738 57.8701H27.2808Z" fill="#959595"/>
<path d="M32.1933 57.8701H31.1003C31.0996 57.8569 31.0989 57.8433 31.0982 57.8291C31.0856 57.5932 31.0687 57.2359 31.0518 56.7465C31.0182 55.7677 30.9849 54.2609 30.9849 52.1409C30.9849 50.0208 31.0182 48.514 31.0518 47.5355C31.0687 47.0461 31.0856 46.6888 31.0982 46.4527C31.0989 46.4387 31.0996 46.4249 31.1003 46.4116H32.1933C32.1916 46.4418 32.1899 46.4751 32.188 46.5113C32.1757 46.74 32.159 47.0903 32.1426 47.5729C32.1093 48.5379 32.0762 50.0322 32.0762 52.1409C32.0762 54.2496 32.1093 55.7438 32.1426 56.7091C32.159 57.1917 32.1757 57.542 32.188 57.7704C32.1899 57.8069 32.1916 57.84 32.1933 57.8701Z" fill="#959595"/>
<path d="M75.3185 40.0496C84.4356 40.0496 91.8261 47.4401 91.8261 56.5572C91.8261 65.674 84.4356 73.0649 75.3185 73.0649C66.2016 73.0649 58.8111 65.674 58.8111 56.5572C58.8111 47.4401 66.2016 40.0496 75.3185 40.0496Z" fill="#959595"/>
<path d="M84.1352 53.372C84.1352 53.372 78.5677 33.9951 95.9394 30.1819C108.129 27.506 114.967 34.9391 116.899 42.2425C118.565 48.5375 121.796 50.7227 126.116 52.6286C131.17 54.8585 136.374 58.8723 135.779 65.7105C135.184 72.5484 131.022 75.5212 124.63 76.7105C118.237 77.8998 84.1352 53.372 84.1352 53.372Z" fill="#959595"/>
<path fill-rule="evenodd" clip-rule="evenodd" d="M123.111 92.8077C127.028 92.872 130.151 96.0994 130.087 100.016L129.802 117.412C129.753 120.379 127.862 123.002 125.063 123.987L101.533 132.264C97.8378 133.564 93.7883 131.622 92.4881 127.927C91.188 124.231 93.1301 120.181 96.8255 118.881L115.698 112.243L115.902 99.784C115.966 95.867 119.194 92.7437 123.111 92.8077Z" fill="#D4D4D4"/>
<path d="M135.283 91.3031C135.283 96.7079 130.901 101.089 125.497 101.089C120.092 101.089 115.71 96.7079 115.71 91.3031C115.71 85.8983 120.092 81.5168 125.497 81.5168C130.901 81.5168 135.283 85.8983 135.283 91.3031Z" fill="#BFBFBF"/>
<path d="M66.0423 150.63C48.3091 150.63 35.5835 141.706 29.4844 128.804C22.391 113.799 25.7615 93.4674 43.1255 88.4262C51.583 85.9708 62.2206 80.4267 66.0027 69.01C71.7718 51.5953 89.5052 44.5019 106.966 47.7758C124.737 51.108 130.4 67.1854 128.792 84.8795C127.427 99.8847 121.425 114.071 106.693 129.895C93.5449 144.017 77.501 150.63 66.0423 150.63Z" fill="#BFBFBF"/>
<path d="M97.1724 47.0283C83.2617 47.5331 70.6872 54.8686 66.0027 69.0102C65.4017 70.8236 64.628 72.489 63.7175 74.0173C64.4797 74.0876 65.2825 74.1636 66.0425 74.2397C68.7707 74.5125 72.5902 74.5125 74.7728 70.9658C76.9554 67.4192 78.0467 63.8725 78.0467 63.8725C78.0467 63.8725 79.6981 64.0806 81.0477 64.4181C87.5954 66.055 93.3247 61.6899 94.9616 56.2335C95.9245 53.0245 96.6983 49.4383 97.1724 47.0283Z" fill="#959595"/>
<path d="M29.4844 128.804C35.5835 141.706 48.3091 150.629 66.0423 150.629C77.501 150.629 93.5449 144.017 106.693 129.895C108.422 128.037 110.032 126.202 111.527 124.386C104.25 104.358 84.3527 87.8194 58.8422 79.9858C54.1347 84.3341 48.2326 86.943 43.1255 88.4259C25.7615 93.4671 22.391 113.798 29.4844 128.804Z" fill="#D4D4D4"/>
<path d="M29.4844 128.804C35.5835 141.706 48.3091 150.629 66.0423 150.629C73.3744 150.629 82.584 147.922 91.711 142.272C91.681 118.095 79.7715 94.7163 55.5746 82.6155C51.5702 85.4302 47.1063 87.2702 43.1255 88.4259C25.7615 93.4671 22.391 113.798 29.4844 128.804Z" fill="#959595"/>
<path d="M98.5083 98.7929L96.3257 117.072H112.968L98.5083 98.7929Z" fill="#BFBFBF"/>
<path d="M29.4844 128.804C35.5835 141.706 48.3091 150.629 66.0423 150.629C71.4951 150.629 77.9861 149.132 84.7093 146.041C86.0396 121.514 74.1137 98.0541 50.0165 85.8303C47.678 86.9377 45.3279 87.7866 43.1255 88.4259C25.7615 93.4671 22.391 113.798 29.4844 128.804Z" fill="#BFBFBF"/>
<path d="M77.501 117.072L85.1782 112.634C85.1782 112.634 84.8098 111.644 83.7759 109.706C82.5002 107.315 81.8886 106.546 81.8886 106.546L74.5 110.524L77.501 117.072Z" fill="#BFBFBF"/>
<path d="M84.2581 141.945L91.5789 138.426C91.5789 138.426 91.7481 137.686 91.6037 135.676C91.4594 133.667 91.0583 132.641 91.0583 132.641L84.0488 135.624L84.2581 141.945Z" fill="#BFBFBF"/>
<path d="M117.42 73.7635L125.819 77.6765C125.819 77.6765 123.742 83.2247 119.13 81.0955C114.298 78.8658 117.42 73.7635 117.42 73.7635Z" fill="white"/>
<path d="M100.771 66.0067L112.916 71.6652C112.916 71.6652 109.556 76.3382 103.892 73.7635C98.5363 71.3282 100.771 66.0067 100.771 66.0067Z" fill="white"/>
<path d="M123.306 76.0072C123.306 77.6328 121.989 78.9506 120.363 78.9506C118.737 78.9506 117.42 77.6328 117.42 76.0072C117.42 74.3819 118.737 73.0644 120.363 73.0644C121.989 73.0644 123.306 74.3819 123.306 76.0072Z" fill="#959595"/>
<path d="M103.46 67.2598L108.714 69.7074C108.38 70.966 107.233 71.8931 105.869 71.8931C104.244 71.8931 102.926 70.5756 102.926 68.95C102.926 68.3211 103.124 67.738 103.46 67.2598Z" fill="#959595"/>
<path d="M85.6517 80.6314C85.7439 76.8655 88.8714 73.8876 92.6373 73.9799C96.0575 74.0636 100.002 74.5035 103.262 74.9792C106.365 75.4321 109.472 76.0077 111.021 76.4925C115.065 77.7581 117.793 80.529 119.37 83.2459L119.37 83.2461C120.238 84.7435 121.148 87.0826 121.884 89.206C122.676 91.4938 123.481 94.1655 124.06 96.6325C124.92 100.3 122.645 103.97 118.978 104.831C115.311 105.691 111.64 103.416 110.78 99.7487C110.328 97.8243 109.665 95.6088 108.994 93.6706C108.66 92.708 108.341 91.8594 108.063 91.186C107.925 90.8502 107.806 90.5805 107.711 90.3757C106.607 88.0157 98.2877 84.8056 92.19 82.7261C90.9657 83.3731 89.3198 84.1515 87.1645 85.0844C86.1828 83.8703 85.6106 82.3145 85.6517 80.6314Z" fill="#959595"/>
<path d="M113.805 75.3879C116.028 75.3879 117.829 77.1893 117.829 79.4117C117.829 81.6341 116.028 83.4357 113.805 83.4357C111.583 83.4357 109.782 81.6341 109.782 79.4117C109.782 77.1893 111.583 75.3879 113.805 75.3879Z" fill="#BFBFBF"/>
<path fill-rule="evenodd" clip-rule="evenodd" d="M109.228 60.6114C108.222 60.292 107.188 60.2806 106.418 60.5078C104.612 61.0409 102.715 60.0085 102.182 58.2021C101.649 56.3957 102.682 54.4992 104.488 53.9661C106.741 53.3015 109.176 53.4389 111.291 54.1105C113.393 54.7776 115.519 56.0845 116.872 58.1333C117.909 59.7051 117.476 61.8205 115.904 62.858C114.332 63.8956 112.217 63.4625 111.179 61.8905C110.896 61.4617 110.248 60.9354 109.228 60.6114Z" fill="#959595"/>
<path fill-rule="evenodd" clip-rule="evenodd" d="M116.375 69.1329C117.522 67.6391 119.663 67.3581 121.157 68.5051C123.357 70.1944 125.955 71.1276 128.844 71.1276C130.728 71.1276 132.255 72.6544 132.255 74.5379C132.255 76.4213 130.728 77.9481 128.844 77.9481C124.401 77.9481 120.353 76.4867 117.003 73.9147C115.509 72.7677 115.228 70.6269 116.375 69.1329Z" fill="#959595"/>
<path d="M108.154 86.0452C112.083 89.9743 113.998 96.564 112.942 102.088C112.477 104.523 111.434 106.751 109.732 108.453C105.708 112.477 100.48 104.882 101.743 101.766C100.382 103.955 96.0628 106.263 91.9992 102.2C88.4883 98.6889 90.737 94.9015 93.7501 92.8954C89.9675 92.9488 86.5944 92.6528 84.1091 88.7473C83.0137 87.0261 83.7419 85.2904 85.5613 83.913C90.0907 80.4839 101.385 79.276 108.154 86.0452Z" fill="#FFC200"/>
<path d="M87.7775 104.034C87.7775 104.034 92.3276 105.275 93.8723 109.178C95.417 113.08 92.6229 113.945 91.6525 113.823C89.6959 113.576 88.5356 111.065 88.8309 109.393C89.151 107.581 87.7775 104.034 87.7775 104.034Z" fill="#959595"/>
<path d="M108.154 86.0452C112.083 89.9743 113.998 96.564 112.942 102.088C112.477 104.523 111.434 106.751 109.732 108.453C105.708 112.477 100.48 104.882 101.743 101.766C100.382 103.955 96.0628 106.263 91.9992 102.2C88.4883 98.6889 90.737 94.9015 93.7501 92.8954C89.9675 92.9488 86.5944 92.6528 84.1091 88.7473C83.0137 87.0261 83.7419 85.2904 85.5613 83.913C90.0907 80.4839 101.385 79.276 108.154 86.0452Z" fill="#AFAFAF"/>
<path fill-rule="evenodd" clip-rule="evenodd" d="M103.794 91.4504C104.046 91.6773 104.067 92.066 103.84 92.3181C96.7154 100.234 83.3351 110.289 65.2728 110.216C64.9336 110.214 64.6596 109.938 64.661 109.599C64.6625 109.26 64.9387 108.986 65.2779 108.987C82.8643 109.059 95.9363 99.2623 102.927 91.496C103.154 91.244 103.542 91.2234 103.794 91.4504Z" fill="#959595"/>
<path d="M108.576 103.216C107.942 102.543 107.383 101.95 107.225 100.576C106.924 97.9563 107.1 95.9032 107.225 95.4201C106.527 97.1019 104.085 100.186 100.557 99.3446C97.0281 98.5029 94.4824 96.0082 94.8045 91.8215C95.0621 88.472 97.6546 86.6185 98.7819 86.0637C96.9257 86.4804 92.2665 87.5032 89.4634 85.4198C88.0547 84.3727 86.7166 83.9898 85.5705 83.906C90.1059 80.4822 101.39 79.2806 108.154 86.0451C112.083 89.9742 113.998 96.564 112.942 102.088C112.563 104.071 111.801 105.916 110.612 107.452C110.202 104.941 109.336 104.022 108.576 103.216Z" fill="#C4C4C4"/>
<path d="M46.8501 87.1768C56.5459 91.3029 64.4469 102.03 68.2374 108.467C69.9748 111.417 74.5229 115.525 80.2783 113.075C85.9013 110.681 85.2581 104.831 83.846 102.03C81.0214 96.4256 70.3707 82.8048 61.1544 78.494C56.8175 76.4655 52.2925 74.0016 50.6001 75.5207C46.8137 78.9187 45.8428 83.5149 46.8501 87.1768Z" fill="#D4D4D4"/>
<path d="M73.4927 88.6024C73.4927 88.6024 71.7088 77.2972 65.0196 73.0644C58.3301 68.8315 52.384 73.5885 50.6001 75.521C48.8161 77.4532 51.9376 85.0347 56.8434 84.2916C61.7488 83.5484 73.4927 88.6024 73.4927 88.6024Z" fill="#D4D4D4"/>
<path fill-rule="evenodd" clip-rule="evenodd" d="M62.4615 79.0938C62.6371 78.849 62.9782 78.7929 63.223 78.9685L62.9048 79.4117C63.223 78.9685 63.223 78.9685 63.223 78.9685L63.2298 78.9735L63.2484 78.987C63.2648 78.9989 63.2885 79.016 63.3198 79.039C63.3821 79.0846 63.4736 79.1522 63.5922 79.2408C63.829 79.418 64.1731 79.6795 64.6048 80.0182C65.4681 80.6957 66.6823 81.6822 68.0892 82.9225C70.9009 85.401 74.494 88.9016 77.5971 92.9777C77.7796 93.2175 77.7333 93.5598 77.4935 93.7424C77.2538 93.9249 76.9114 93.8785 76.7289 93.6388C73.6842 89.6397 70.1481 86.192 67.3678 83.7412C65.9785 82.5166 64.7808 81.5434 63.9312 80.8768C63.5065 80.5436 63.169 80.2872 62.9384 80.1146C62.823 80.0284 62.7344 79.9629 62.675 79.9195C62.6453 79.8975 62.6228 79.8813 62.6079 79.8705L62.5914 79.8586L62.5866 79.8553" fill="#BFBFBF"/>
<path d="M77.276 92.5453C72.1757 94.4975 67.8253 99.1384 64.9066 103.349C66.2246 105.198 67.3448 106.951 68.2374 108.467C69.9745 111.417 74.5229 115.525 80.2783 113.075C85.9011 110.681 85.2581 104.831 83.846 102.03C82.7141 99.784 80.3254 96.2508 77.276 92.5453Z" fill="#BFBFBF"/>
<path d="M38.3222 150.677C37.1577 147.456 33.6026 145.789 30.3816 146.953L18.9858 151.084C15.7649 152.249 14.0978 155.804 15.262 159.025V159.025C16.4264 162.246 19.9815 163.913 23.2025 162.749L34.5983 158.618C37.8192 157.453 39.4864 153.898 38.3222 150.677Z" fill="#959595"/>
<path d="M35.1176 127.386C32.2476 125.516 28.4057 126.327 26.5365 129.197L19.9291 139.36C18.0599 142.23 18.8707 146.071 21.7404 147.941C24.6103 149.81 28.452 148.999 30.3215 146.129L36.9288 135.967C38.798 133.097 37.9873 129.255 35.1176 127.386Z" fill="#959595"/>
<path d="M79.3176 59.7219C81.978 59.7219 84.1352 61.8789 84.1352 64.5395C84.1352 67.2001 81.978 69.3571 79.3176 69.3571C76.657 69.3571 74.5 67.2001 74.5 64.5395C74.5 61.8789 76.657 59.7219 79.3176 59.7219Z" fill="#BFBFBF"/>
<path d="M36.5577 53.2645C37.1783 53.2645 37.6813 52.7614 37.6813 52.1409C37.6813 51.5203 37.1783 51.0173 36.5577 51.0173C35.9372 51.0173 35.4341 51.5203 35.4341 52.1409C35.4341 52.7614 35.9372 53.2645 36.5577 53.2645Z" fill="#959595"/>
<path d="M62.1931 15.2061C62.8136 15.2061 63.3167 14.703 63.3167 14.0825C63.3167 13.4619 62.8136 12.9589 62.1931 12.9589C61.5725 12.9589 61.0695 13.4619 61.0695 14.0825C61.0695 14.703 61.5725 15.2061 62.1931 15.2061Z" fill="#959595"/>
<path d="M96.5928 48.1852L97.5617 44.6008C97.5617 44.6008 86.3509 44.0228 80.1245 46.9259C70.9304 51.2128 63.8501 67.1721 63.8501 67.1721L66.1748 70.2722C67.2082 70.2075 70.0303 69.9622 73.4404 62.9098C76.8501 55.8575 90.3285 49.606 96.5928 48.1852Z" fill="#959595"/>
</g>
<defs>
<clipPath id="clip0_4_4510">
<rect width="139" height="175" fill="white"/>
</clipPath>
</defs>
</svg>
