<svg width="113" height="172" viewBox="0 0 113 172" fill="none" xmlns="http://www.w3.org/2000/svg">
<g clip-path="url(#clip0_4_4776)">
<path d="M89.9239 149.669C89.9239 161.561 77.5423 171.201 62.2689 171.201C46.9955 171.201 34.6137 161.561 34.6137 149.669C34.6137 137.777 46.9955 128.137 62.2689 128.137C77.5423 128.137 89.9239 137.777 89.9239 149.669Z" fill="#AFAFAF" fill-opacity="0.3"/>
<path d="M55.3277 143.268C55.9211 140.765 58.4308 139.217 60.9335 139.81C63.4363 140.404 64.9843 142.914 64.3909 145.416L62.6091 152.931C62.0157 155.433 59.5057 156.982 57.003 156.388C54.5003 155.795 52.9524 153.285 53.5459 150.782L55.3277 143.268Z" fill="#959595"/>
<path d="M69.1418 139.728C67.0315 138.258 64.1287 138.777 62.6586 140.887C61.1885 142.998 61.7076 145.901 63.818 147.371L70.1006 151.747C72.211 153.217 75.1138 152.698 76.5839 150.587C78.054 148.477 77.5349 145.574 75.4245 144.104L69.1418 139.728Z" fill="#959595"/>
<path d="M54.4059 100.068L69.7773 102.087C69.7773 102.087 69.7918 114.079 69.7991 120.074C69.8061 125.868 69.8201 137.456 69.8201 137.456C69.8201 141.718 66.3649 145.173 62.1026 145.173C57.8403 145.173 54.3849 141.718 54.3849 137.456C54.3849 137.456 54.3849 126.231 54.3849 120.298C54.3849 114.365 54.4059 100.068 54.4059 100.068Z" fill="#BFBFBF"/>
<path d="M86.4105 104.131C86.4105 113.338 85.1802 116.09 83.4172 116.09C80.7505 116.09 79.5557 110.121 79.3142 104.326C79.0728 98.5318 81.0702 93.7678 83.4172 92.8298C85.0025 92.1963 86.4105 98.3406 86.4105 104.131Z" fill="#959595"/>
<path d="M89.0921 90.7395L79.3142 94.3412L80.752 104.131L92.9551 99.6368L89.0921 90.7395Z" fill="#E5E5E5"/>
<path d="M70.9845 83.7379C74.606 83.4964 77.2618 86.3936 77.9861 89.0494C78.7104 91.7052 79.3142 94.3412 79.3142 94.3412L83.4172 92.8298C83.4172 92.8298 81.6076 96.8111 81.6076 103.777C81.6076 113.221 81.7271 116.09 83.4172 116.09C82.21 116.09 79.8659 116.33 74.3646 102.811C68.4873 88.3683 70.617 84.2941 70.9451 83.7931C70.97 83.7552 70.9845 83.7379 70.9845 83.7379Z" fill="#959595"/>
<path fill-rule="evenodd" clip-rule="evenodd" d="M93.438 100.12C93.7048 100.12 93.9208 100.336 93.9208 100.603V104.063L101.038 113.563C101.168 113.738 101.166 113.979 101.031 114.151C100.896 114.323 100.663 114.382 100.462 114.297L88.9649 109.398C88.8212 109.337 88.7162 109.21 88.6827 109.057C88.6491 108.905 88.6916 108.745 88.7964 108.63L92.9551 104.038V100.603C92.9551 100.336 93.1714 100.12 93.438 100.12ZM93.4027 104.982L89.9673 108.776L99.1875 112.704L93.4027 104.982Z" fill="#959595"/>
<path d="M88.9924 108.1L90.3283 106.936L90.738 107.524C92.0442 109.157 94.2873 109.703 96.1981 108.854L97.1896 108.429L101.096 113.022C102.078 114.227 102.621 115.409 102.642 117.283C102.697 122.206 102.128 134.387 102.128 134.387C98.9707 134.387 90.0149 130.035 87.3205 128.389L88.0139 109.985C88.087 109.245 88.425 108.56 88.9924 108.1Z" fill="#959595"/>
<path d="M88.0139 109.985L86.4535 126.454L85.0445 141.326C85.0087 141.702 85.2021 142.063 85.537 142.238C86.7502 142.874 89.8391 144.181 93.4445 143.328C93.8665 143.228 94.1562 142.839 94.1471 142.405L93.8494 128.268L93.6794 120.195L88.0139 109.985Z" fill="#959595"/>
<path d="M92.9551 123.092L92.0091 134.255L90.5946 150.946C90.5613 151.338 90.7788 151.708 91.1354 151.873C95.8096 154.049 100.706 153.514 102.572 153.189C103.025 153.111 103.35 152.711 103.34 152.252L103.026 137.577L102.612 118.263L92.9551 123.092Z" fill="#959595"/>
<path d="M98.5081 97.0607C98.5081 100.848 95.4375 103.919 91.6497 103.919C87.862 103.919 84.7914 100.848 84.7914 97.0607C84.7914 93.2728 87.862 90.2023 91.6497 90.2023C95.4375 90.2023 98.5081 93.2728 98.5081 97.0607Z" fill="#E5E5E5"/>
<path d="M54.4059 100.067L58.0621 75.5672L73.3283 77.8456L69.7773 102.087C68.3463 103.378 65.5469 104.593 61.2817 103.956C57.3658 103.372 55.3356 101.609 54.4059 100.067Z" fill="#959595"/>
<path d="M23.6632 89.0494C23.6632 95.3267 24.6289 102.087 27.0433 102.087C29.4577 102.087 31.872 83.9795 28.9748 76.9779C23.6632 74.805 23.6632 89.0494 23.6632 89.0494Z" fill="#959595"/>
<path d="M21.2488 69.7346L38.1493 85.4279L33.562 94.1196L16.1787 78.1849L21.2488 69.7346Z" fill="#E5E5E5"/>
<path d="M29.0786 77.0049C29.0786 77.0049 31.1477 97.4997 27.0433 102.087C27.0433 102.087 33.0792 103.053 38.8736 99.6726C44.668 96.2925 49.0139 90.9809 57.4641 90.9809C57.4641 90.9809 62.0514 83.0135 57.4641 83.0135C52.8768 83.0135 38.6322 84.7036 38.6322 84.7036L29.0786 77.0049Z" fill="#959595"/>
<path fill-rule="evenodd" clip-rule="evenodd" d="M16.7987 83.902L7.39362 90.1009L26.4175 96.0858L16.7987 83.902ZM16.4202 82.9949V79.6335H17.3859V83.0874L29.1177 97.9478L5.16614 90.4123L16.4202 82.9949Z" fill="#959595"/>
<path d="M4.48647 90.7211L9.38664 87.6187C9.38664 87.6187 11.1086 90.2563 16.1787 91.705C21.2488 93.1536 24.1953 91.712 24.1953 91.712L32.1994 100.126C32.4591 100.461 32.6233 100.86 32.6743 101.281L37.9897 145.192C38.0754 145.9 37.4998 146.521 36.7878 146.475C30.7686 146.092 25.6876 142.819 24.1441 141.725C23.8411 141.51 23.6632 141.163 23.6632 140.791V117.78C20.5055 117.78 17.4086 116.909 14.7141 115.262L14.4886 115.124L15.2492 137.337C15.2702 137.952 14.8006 138.473 14.1869 138.521C7.31899 139.05 2.46131 134.924 1.10831 133.619C0.865664 133.385 0.737709 133.058 0.758473 132.722L3.35148 92.5888C3.39905 91.8172 3.82373 91.1187 4.48647 90.7211Z" fill="#959595"/>
<path d="M23.6632 74.8847C23.6632 78.6723 20.5926 81.7429 16.8047 81.7429C13.0171 81.7429 9.94653 78.6723 9.94653 74.8847C9.94653 71.0968 13.0171 68.0262 16.8047 68.0262C20.5926 68.0262 23.6632 71.0968 23.6632 74.8847Z" fill="#E5E5E5"/>
<path d="M76.2961 65.63C90.0579 65.63 102.295 74.2333 101.405 83.9791C101.104 87.2744 104.335 87.3591 105.993 83.9791C107.99 79.9065 115.891 63.9399 109.856 33.7605C102.834 -1.34826 62.5343 65.63 76.2961 65.63Z" fill="#BFBFBF"/>
<path d="M110.702 54.5669C110.702 57.7025 108.16 60.2445 105.024 60.2445C101.888 60.2445 99.3464 57.7025 99.3464 54.5669C99.3464 51.4312 101.888 48.8896 105.024 48.8896C108.16 48.8896 110.702 51.4312 110.702 54.5669Z" fill="#E5E5E5"/>
<path d="M105.578 59.7897C105.578 54.5621 104.792 45.1135 104.399 41.0429L93.6869 31.5092L51.9111 24.5862C44.1625 31.085 36.269 46.4207 36.269 59.7897C36.269 76.5008 53.5157 86.1418 71.6195 86.1418C98.0788 86.1418 105.578 67.074 105.578 59.7897Z" fill="#E5E5E5"/>
<path d="M49.8084 50.0615C48.5344 49.3104 43.9981 46.4352 40.9454 44.4568C40.0619 43.8844 38.8758 44.2279 38.4598 45.1951C37.8603 46.5887 37.107 48.3983 36.1968 50.6368C34.4696 54.8856 36.6777 58.3997 41.0632 62.3489C43.3298 64.39 46.0025 65.6532 48.0913 66.4047C49.6286 66.9579 51.2802 66.0723 51.7979 64.523C52.0707 63.7065 52.3416 62.8269 52.5383 62.0169C54.1861 55.2304 51.7339 51.1967 49.8084 50.0615Z" fill="white"/>
<path d="M67.84 57.3039C69.2746 57.6631 74.5239 58.7991 78.087 59.5325C79.1182 59.7448 79.7218 60.822 79.3393 61.803C78.7884 63.2164 78.0547 65.0339 77.1317 67.2674C75.3798 71.5063 71.3406 72.4592 65.445 72.1941C62.3976 72.057 59.6076 71.0809 57.5921 70.1501C56.1089 69.4652 55.5541 67.6752 56.2726 66.2082C56.6514 65.4352 57.0759 64.6184 57.5042 63.9035C61.0939 57.9128 65.6717 56.7611 67.84 57.3039Z" fill="white"/>
<path d="M50.8017 60.7808C50.2029 62.5611 48.2741 63.5191 46.4938 62.9204C44.7134 62.3216 43.7554 60.3928 44.3542 58.6124C44.9529 56.8321 46.8818 55.8741 48.6621 56.4728C50.4424 57.0716 51.4005 59.0004 50.8017 60.7808Z" fill="#959595"/>
<path d="M65.3564 67.0342C64.5686 68.7394 62.5475 69.4833 60.8423 68.6955C59.137 67.9077 58.3934 65.8866 59.1812 64.1814C59.969 62.4761 61.9901 61.7325 63.6953 62.5203C65.4006 63.3081 66.1442 65.3289 65.3564 67.0342Z" fill="#959595"/>
<path fill-rule="evenodd" clip-rule="evenodd" d="M57.7292 63.5365C61.2829 57.8656 65.7169 56.7724 67.84 57.3038C69.2746 57.6631 74.5239 58.799 78.087 59.5325C79.1182 59.7447 79.7218 60.822 79.3393 61.803C78.7884 63.2163 78.0547 65.0339 77.1317 67.2674C76.9854 67.6213 76.8234 67.9521 76.6454 68.2614C73.3218 67.9586 68.0247 66.9699 61.8505 64.9759C60.5142 64.5442 59.1365 64.0655 57.7292 63.5365Z" fill="#BFBFBF"/>
<path fill-rule="evenodd" clip-rule="evenodd" d="M52.6661 61.4594C47.1153 58.9859 41.3208 55.7321 35.8909 51.5207C35.974 51.2296 36.0756 50.935 36.1968 50.6368C37.107 48.3983 37.8603 46.5887 38.4598 45.1951C38.8758 44.2279 40.062 43.8844 40.9454 44.4568C43.9981 46.4352 48.5344 49.3104 49.8085 50.0615C51.6808 51.1653 54.051 55.0092 52.6661 61.4594Z" fill="#BFBFBF"/>
<path d="M54.5976 70.993C54.6326 72.7699 52.2419 73.6722 50.6284 72.9268C49.0149 72.1815 48.0709 70.2134 49.117 68.7766C49.8454 67.7761 51.5509 66.3745 52.8489 65.346C53.4805 64.8455 53.9228 65.2999 54.0005 65.7543C54.3255 67.6522 54.5669 69.4328 54.5976 70.993Z" fill="#BFBFBF"/>
<path fill-rule="evenodd" clip-rule="evenodd" d="M54.6582 79.618C54.0778 77.3374 51.965 76.2591 49.8763 76.3526C49.49 76.3697 49.1629 76.0706 49.1455 75.6843C49.1283 75.298 49.4275 74.9708 49.8138 74.9537C52.3672 74.8395 55.2265 76.1741 56.0153 79.2725C56.1106 79.6472 55.8842 80.0284 55.5095 80.1238C55.1348 80.2192 54.7535 79.9927 54.6582 79.618Z" fill="#BFBFBF"/>
<path d="M45.5633 88.0146C44.4978 79.491 41.7298 48.51 54.3255 27.242C54.3255 27.242 67.9255 -2.07618 54.3255 5.75429C30.4234 19.5161 24.3875 56.9385 29.6991 73.5976C32.8628 83.5201 40.0038 87.8273 43.6468 89.4343C44.6224 89.8647 45.6956 89.0728 45.5633 88.0146Z" fill="#BFBFBF"/>
<path d="M70.9232 60.5521C94.4752 65.896 113.236 50.1783 109.856 33.7608C106.475 17.3432 99.6129 5.43316 82.8148 1.167C67.6044 -2.69596 54.1096 4.9078 47.5781 10.6426C44.9102 12.985 44.6893 20.9178 46.8432 29.8193C49.9625 42.7108 58.0622 57.6339 70.9232 60.5521Z" fill="#BFBFBF"/>
</g>
<defs>
<clipPath id="clip0_4_4776">
<rect width="113" height="172" fill="white"/>
</clipPath>
</defs>
</svg>
