<svg width="76" height="153" viewBox="0 0 76 153" fill="none" xmlns="http://www.w3.org/2000/svg">
<g clip-path="url(#clip0_4_4755)">
<path d="M60.666 132.571C60.666 143.303 49.4925 152.003 35.7092 152.003C21.9259 152.003 10.7524 143.303 10.7524 132.571C10.7524 121.839 21.9259 113.139 35.7092 113.139C49.4925 113.139 60.666 121.839 60.666 132.571Z" fill="#AFAFAF" fill-opacity="0.3"/>
<path d="M32.3454 123.886C34.5243 123.058 36.9615 124.154 37.789 126.333C38.6165 128.512 37.521 130.949 35.3422 131.776L28.7995 134.261C26.6208 135.089 24.1836 133.993 23.3559 131.814C22.5284 129.636 23.6239 127.198 25.8029 126.371L32.3454 123.886Z" fill="#959595"/>
<path d="M43.0489 129.698C43.251 127.376 41.5325 125.33 39.2105 125.128C36.8884 124.926 34.8424 126.644 34.6403 128.966L34.0389 135.878C33.8367 138.2 35.5553 140.246 37.8772 140.448C40.1994 140.65 42.2454 138.932 42.4475 136.61L43.0489 129.698Z" fill="#959595"/>
<path d="M21.3616 108.143C21.3616 105.098 27.1554 83.7669 29.0161 75.1395L32.0612 85.7967C32.9915 94.6498 32.0359 115.671 29.0586 115.671C25.3369 115.671 21.3616 111.949 21.3616 108.143Z" fill="#959595"/>
<path d="M29.1008 68.3731C29.1008 64.2623 32.4334 60.9299 36.5441 60.9299C40.6549 60.9299 43.9873 64.2623 43.9873 68.3731V121.998C43.9873 126.109 40.6549 129.441 36.5441 129.441C32.4334 129.441 29.1008 126.109 29.1008 121.998V68.3731Z" fill="#BFBFBF"/>
<path d="M52.2182 119.333C52.2182 117.411 48.0405 95.8951 44.795 84.731C43.9236 81.7333 41.7178 82.561 41.03 82.6929C39.5895 82.969 39.4343 83.1022 38.7716 89.3255C37.4994 101.27 37.4343 118.728 37.7124 120.813C38.1353 123.985 40.9265 125.339 44.9019 125.339C48.8771 125.339 52.2182 121.955 52.2182 119.333Z" fill="#959595"/>
<path fill-rule="evenodd" clip-rule="evenodd" d="M43.9873 89.4928C38.6522 93.4754 32.7933 91.1971 29.1008 88.4712V68.3724C29.1008 64.2616 32.4334 60.929 36.5441 60.929C40.6549 60.929 43.9873 64.2616 43.9873 68.3724V89.4928Z" fill="#959595"/>
<path d="M70.8311 34.8029C70.8311 53.495 55.6781 68.6481 36.9857 68.6481C18.2936 68.6481 3.14056 53.495 3.14056 34.8029C3.14056 16.1108 18.2936 0.957726 36.9857 0.957726C55.6781 0.957726 70.8311 16.1108 70.8311 34.8029Z" fill="#BFBFBF"/>
<path d="M36.1017 76.771C19.5483 76.771 9.61517 67.9996 6.71784 64.1791L4.64106 34.3338L15.1023 27.0264H52.332L69.2547 41.949L65.6394 60.7948C62.6908 65.7433 52.655 76.771 36.1017 76.771Z" fill="#E5E5E5"/>
<path d="M16.3701 56.185C16.3701 49.3851 11.96 45.4802 9.75487 44.3776L8.33186 46.839V55.5696C8.83173 56.5312 10.2163 58.0313 12.7548 59.5695C15.5046 61.2362 16.3701 58.9158 16.3701 56.185Z" fill="white"/>
<path d="M25.7071 65.472C17.9764 63.6644 18.4765 60.4722 18.4765 58.7798C18.4765 53.3953 21.8611 51.3954 24.0533 51.5877C25.8073 51.7416 31.784 52.9338 34.5532 53.5108V60.3953C34.5532 63.6644 31.8916 66.9182 25.7071 65.472Z" fill="white"/>
<path d="M18.4307 64.3655C18.1415 65.7132 16.8957 66.589 15.6478 66.3212C14.4 66.0535 13.6227 64.744 13.9117 63.3961C14.2009 62.0484 16.2961 59.7974 17.014 59.9513C17.6842 60.0952 18.7197 63.0176 18.4307 64.3655Z" fill="#BFBFBF"/>
<path d="M24.6453 58.7955C24.6453 60.3958 23.6645 61.6928 22.4546 61.6928C21.2448 61.6928 20.2639 60.3958 20.2639 58.7955C20.2639 57.1954 21.2448 55.8982 22.4546 55.8982C23.6645 55.8982 24.6453 57.1954 24.6453 58.7955Z" fill="#959595"/>
<path d="M15.5744 54.6819C15.5744 56.2819 14.5829 57.5792 13.3601 57.5792C12.1373 57.5792 11.146 56.2819 11.146 54.6819C11.146 53.0816 12.1373 51.7846 13.3601 51.7846C14.5829 51.7846 15.5744 53.0816 15.5744 54.6819Z" fill="#959595"/>
<path fill-rule="evenodd" clip-rule="evenodd" d="M34.5049 61.1537C28.7408 61.3464 21.9722 59.1572 18.5237 57.7121C18.9386 53.1294 22.0128 51.4087 24.0538 51.5877C25.8075 51.7416 31.7844 52.9338 34.5534 53.5108V60.3953C34.5534 60.6488 34.5374 60.9024 34.5049 61.1537Z" fill="#BFBFBF"/>
<path fill-rule="evenodd" clip-rule="evenodd" d="M16.3428 56.8575C16.3613 56.5945 16.3701 56.3236 16.3701 56.0486C16.3701 49.2487 11.96 45.3438 9.75487 44.2412L8.33186 46.7026V51.3187C10.8747 54.1307 14.3269 56.0285 16.3428 56.8575Z" fill="#BFBFBF"/>
<path d="M0.489899 58.2024C0.489899 47.8949 2.00394 38.746 3.48021 29.9264L14.5249 21.3414L34.7551 15.7262L69.6679 26.3423C71.6888 33.6473 75.2115 51.8027 75.2115 57.4179C75.2115 70.0713 72.3223 75.9712 69.707 79.2018C67.6147 81.7864 65.1003 80.2559 65.1003 78.2259L64.7927 51.1098L63.0621 41.3408C58.1777 45.2189 48.3738 52.2595 36.4501 52.2595C17.5276 52.2595 13.9277 40.0708 12.4894 32.5002C9.64311 40.154 9.65031 50.9238 9.65031 61.1927C9.65031 63.0931 9.76754 64.7534 9.87733 66.4166C10.2764 70.1613 10.7452 72.2079 10.3316 73.8735C10.0386 75.0531 9.65032 76.4095 8.06053 76.4095C4.13748 76.4095 0.489899 63.433 0.489899 58.2024Z" fill="#BFBFBF"/>
<path d="M67.8696 46.7637C67.8696 49.8438 65.3729 52.3405 62.2928 52.3405C59.2128 52.3405 56.716 49.8438 56.716 46.7637C56.716 43.6837 59.2128 41.1869 62.2928 41.1869C65.3729 41.1869 67.8696 43.6837 67.8696 46.7637Z" fill="#E5E5E5"/>
<path fill-rule="evenodd" clip-rule="evenodd" d="M19.5354 69.0757C21.5299 66.1625 24.6359 66.453 25.9448 66.9649C26.3008 67.1041 26.4768 67.5056 26.3375 67.8616C26.1982 68.2179 25.7968 68.3936 25.4405 68.2543C24.4805 67.8791 22.1754 67.6706 20.678 69.8579C20.4621 70.1733 20.0312 70.254 19.7157 70.0379C19.4001 69.822 19.3196 69.3912 19.5354 69.0757Z" fill="#BFBFBF"/>
</g>
<defs>
<clipPath id="clip0_4_4755">
<rect width="76" height="153" fill="white"/>
</clipPath>
</defs>
</svg>
