<svg width="74" height="74" viewBox="0 0 74 74" fill="none" xmlns="http://www.w3.org/2000/svg">
<mask id="mask0_4_5208" style="mask-type:luminance" maskUnits="userSpaceOnUse" x="1" y="4" width="71" height="42">
<path d="M4.83017 4.74603L67.9565 4.74603C70.033 4.74603 71.7163 6.41205 71.7163 8.46719L71.7163 41.362C71.7163 43.4171 70.033 45.0832 67.9565 45.0832L4.83017 45.0832C2.7537 45.0832 1.07039 43.4171 1.07039 41.362L1.07039 8.46719C1.07039 6.41205 2.7537 4.74603 4.83017 4.74603Z" fill="#AA572A"/>
</mask>
<g mask="url(#mask0_4_5208)">
<path fill-rule="evenodd" clip-rule="evenodd" d="M-4.28157 50.3907L77.0683 50.3907L77.0683 -0.561462L-4.28157 -0.561462L-4.28157 50.3907Z" fill="#AA572A"/>
</g>
<mask id="mask1_4_5208" style="mask-type:luminance" maskUnits="userSpaceOnUse" x="10" y="10" width="53" height="3">
<path d="M10.7039 10.0535L62.0828 10.0535V12.1765L10.7039 12.1765V10.0535Z" fill="#904821"/>
</mask>
<g mask="url(#mask1_4_5208)">
<path fill-rule="evenodd" clip-rule="evenodd" d="M5.35196 17.4841L67.4347 17.4841V4.74603L5.35196 4.74603L5.35196 17.4841Z" fill="#904821"/>
</g>
<mask id="mask2_4_5208" style="mask-type:luminance" maskUnits="userSpaceOnUse" x="10" y="24" width="53" height="4">
<path d="M10.7039 24.9146L62.0828 24.9146V27.0376L10.7039 27.0376V24.9146Z" fill="#904821"/>
</mask>
<g mask="url(#mask2_4_5208)">
<path fill-rule="evenodd" clip-rule="evenodd" d="M5.35196 32.3451L67.4347 32.3451V19.6071L5.35196 19.6071L5.35196 32.3451Z" fill="#904821"/>
</g>
<mask id="mask3_4_5208" style="mask-type:luminance" maskUnits="userSpaceOnUse" x="0" y="0" width="74" height="74">
<path d="M71.3346 73.7437L2.52253 73.7437C1.12938 73.7437 0 72.6237 0 71.2421L0 3.00158C0 1.61999 1.12938 0.5 2.52253 0.5L12.463 0.5C13.8561 0.5 14.9855 1.61999 14.9855 3.00158L14.9855 35.5296L58.8716 35.5296L58.8716 3.00158C58.8716 1.61999 60.001 0.5 61.3941 0.5L71.3346 0.5C72.7277 0.5 73.8571 1.61999 73.8571 3.00158L73.8571 71.2421C73.8571 72.6237 72.7277 73.7437 71.3346 73.7437Z" fill="#FFBC00"/>
</mask>
<g mask="url(#mask3_4_5208)">
<path fill-rule="evenodd" clip-rule="evenodd" d="M-5.35196 79.0513L79.2091 79.0513L79.2091 -4.8075L-5.35196 -4.8075L-5.35196 79.0513Z" fill="#FFBC00"/>
</g>
<mask id="mask4_4_5208" style="mask-type:luminance" maskUnits="userSpaceOnUse" x="14" y="49" width="45" height="18">
<path d="M14.9855 49.3292L58.8716 49.3292L58.8716 66.3132L14.9855 66.3132L14.9855 49.3292Z" fill="#AA572A"/>
</mask>
<g mask="url(#mask4_4_5208)">
<path fill-rule="evenodd" clip-rule="evenodd" d="M9.63354 71.6208L64.2236 71.6208V44.0217L9.63354 44.0217L9.63354 71.6208Z" fill="#AA572A"/>
</g>
<mask id="mask5_4_5208" style="mask-type:luminance" maskUnits="userSpaceOnUse" x="15" y="59" width="46" height="3">
<path d="M15.0121 59.2241L60.5744 59.2241V61.7257L15.0121 61.7257V59.2241Z" fill="#904821"/>
</mask>
<g mask="url(#mask5_4_5208)">
<path fill-rule="evenodd" clip-rule="evenodd" d="M9.6601 67.0332L65.9264 67.0332V53.9166L9.6601 53.9166L9.6601 67.0332Z" fill="#904821"/>
</g>
<mask id="mask6_4_5208" style="mask-type:luminance" maskUnits="userSpaceOnUse" x="0" y="6" width="17" height="46">
<path d="M0 51.9364L0 21.7301L14.9855 6.86902L14.9855 35.5296H16.5442L0 51.9364Z" fill="#FFD300"/>
</mask>
<g mask="url(#mask6_4_5208)">
<path fill-rule="evenodd" clip-rule="evenodd" d="M-5.35196 57.2439L21.8961 57.2439L21.8961 1.56152L-5.35196 1.56152L-5.35196 57.2439Z" fill="#FFD300"/>
</g>
<mask id="mask7_4_5208" style="mask-type:luminance" maskUnits="userSpaceOnUse" x="2" y="10" width="72" height="64">
<path d="M73.8571 10.0535L73.8571 52.9613L55.771 70.8972L55.7703 70.8964L52.8991 73.7437L2.52253 73.7437C2.36206 73.7437 2.20509 73.7289 2.05295 73.7005L14.9855 60.8753L14.9855 66.3132L58.8716 66.3132L58.8716 49.3292L30.5915 49.3292L39.0267 40.964L40.8572 42.7793L48.1677 35.5296H58.8716V24.9146L73.8571 10.0535Z" fill="#FFD300"/>
</mask>
<g mask="url(#mask7_4_5208)">
<path fill-rule="evenodd" clip-rule="evenodd" d="M-3.29901 79.0513L79.2091 79.0513L79.2091 4.74603L-3.29901 4.74603L-3.29901 79.0513Z" fill="#FFD300"/>
</g>
<mask id="mask8_4_5208" style="mask-type:luminance" maskUnits="userSpaceOnUse" x="26" y="31" width="22" height="25">
<path d="M29.2824 31.2836L44.5748 31.2836C45.9679 31.2836 47.0973 32.4036 47.0973 33.7852L47.0973 53.1966C47.0973 54.5782 45.9679 55.6981 44.5748 55.6981H29.2824C27.8892 55.6981 26.7598 54.5782 26.7598 53.1966L26.7598 33.7852C26.7598 32.4036 27.8892 31.2836 29.2824 31.2836Z" fill="#FFBC00"/>
</mask>
<g mask="url(#mask8_4_5208)">
<path fill-rule="evenodd" clip-rule="evenodd" d="M21.4079 61.0057L52.4493 61.0057L52.4493 25.9761L21.4079 25.9761L21.4079 61.0057Z" fill="#FFBC00"/>
</g>
<mask id="mask9_4_5208" style="mask-type:luminance" maskUnits="userSpaceOnUse" x="32" y="35" width="10" height="11">
<path d="M36.9286 45.437C34.2683 45.437 32.1118 43.2191 32.1118 40.4833C32.1118 37.7474 34.2683 35.5296 36.9286 35.5296C39.5888 35.5296 41.7453 37.7474 41.7453 40.4833C41.7453 43.2191 39.5888 45.437 36.9286 45.437Z" fill="#DB8500"/>
</mask>
<g mask="url(#mask9_4_5208)">
<path fill-rule="evenodd" clip-rule="evenodd" d="M26.7598 50.7445H47.0973V30.2221L26.7598 30.2221L26.7598 50.7445Z" fill="#DB8500"/>
</g>
<mask id="mask10_4_5208" style="mask-type:luminance" maskUnits="userSpaceOnUse" x="32" y="41" width="10" height="10">
<path d="M39.3519 43.4132L40.9725 47.9936C41.3045 48.9321 40.8065 49.9598 39.8602 50.2891C39.667 50.3563 39.4637 50.3906 39.259 50.3906H34.5077C33.5048 50.3906 32.6918 49.5844 32.6918 48.5898C32.6918 48.3868 32.7264 48.1852 32.7942 47.9936L34.4147 43.4132C34.8931 42.0611 36.3861 41.3496 37.7495 41.824C38.4993 42.0849 39.0889 42.6696 39.3519 43.4132Z" fill="#DB8500"/>
</mask>
<g mask="url(#mask10_4_5208)">
<path fill-rule="evenodd" clip-rule="evenodd" d="M27.3398 55.6982H46.4274V36.3695L27.3398 36.3695L27.3398 55.6982Z" fill="#DB8500"/>
</g>
<mask id="mask11_4_5208" style="mask-type:luminance" maskUnits="userSpaceOnUse" x="4" y="38" width="6" height="7">
<path d="M6.95755 44.0216C5.47965 44.0216 4.28157 42.8335 4.28157 41.3679C4.28157 39.9022 5.47965 38.7141 6.95755 38.7141C8.43546 38.7141 9.63353 39.9022 9.63353 41.3679C9.63353 42.8335 8.43546 44.0216 6.95755 44.0216Z" fill="#F8A201"/>
</mask>
<g mask="url(#mask11_4_5208)">
<path fill-rule="evenodd" clip-rule="evenodd" d="M-1.07039 49.3292H14.9855L14.9855 33.4066L-1.07039 33.4066L-1.07039 49.3292Z" fill="#F8A201"/>
</g>
<mask id="mask12_4_5208" style="mask-type:luminance" maskUnits="userSpaceOnUse" x="4" y="63" width="6" height="6">
<path d="M6.95755 68.4362C5.47965 68.4362 4.28157 67.2481 4.28157 65.7824C4.28157 64.3168 5.47965 63.1287 6.95755 63.1287C8.43546 63.1287 9.63353 64.3168 9.63353 65.7824C9.63353 67.2481 8.43546 68.4362 6.95755 68.4362Z" fill="#F8A201"/>
</mask>
<g mask="url(#mask12_4_5208)">
<path fill-rule="evenodd" clip-rule="evenodd" d="M-1.07039 73.7437H14.9855L14.9855 57.8212L-1.07039 57.8212L-1.07039 73.7437Z" fill="#F8A201"/>
</g>
<mask id="mask13_4_5208" style="mask-type:luminance" maskUnits="userSpaceOnUse" x="64" y="63" width="6" height="6">
<path d="M66.8996 68.4362C65.4217 68.4362 64.2236 67.2481 64.2236 65.7824C64.2236 64.3168 65.4217 63.1287 66.8996 63.1287C68.3775 63.1287 69.5755 64.3168 69.5755 65.7824C69.5755 67.2481 68.3775 68.4362 66.8996 68.4362Z" fill="#F8A201"/>
</mask>
<g mask="url(#mask13_4_5208)">
<path fill-rule="evenodd" clip-rule="evenodd" d="M58.8716 73.7437H74.9275V57.8212L58.8716 57.8212L58.8716 73.7437Z" fill="#F8A201"/>
</g>
<mask id="mask14_4_5208" style="mask-type:luminance" maskUnits="userSpaceOnUse" x="64" y="38" width="6" height="7">
<path d="M66.8996 44.0216C65.4217 44.0216 64.2236 42.8335 64.2236 41.3679C64.2236 39.9022 65.4217 38.7141 66.8996 38.7141C68.3775 38.7141 69.5755 39.9022 69.5755 41.3679C69.5755 42.8335 68.3775 44.0216 66.8996 44.0216Z" fill="#F8A201"/>
</mask>
<g mask="url(#mask14_4_5208)">
<path fill-rule="evenodd" clip-rule="evenodd" d="M58.8716 49.3292H74.9275V33.4066L58.8716 33.4066L58.8716 49.3292Z" fill="#F8A201"/>
</g>
<mask id="mask15_4_5208" style="mask-type:luminance" maskUnits="userSpaceOnUse" x="4" y="16" width="6" height="6">
<path d="M6.95755 21.7301C5.47965 21.7301 4.28157 20.5419 4.28157 19.0763C4.28157 17.6107 5.47965 16.4225 6.95755 16.4225C8.43546 16.4225 9.63353 17.6107 9.63353 19.0763C9.63353 20.5419 8.43546 21.7301 6.95755 21.7301Z" fill="#F8A201"/>
</mask>
<g mask="url(#mask15_4_5208)">
<path fill-rule="evenodd" clip-rule="evenodd" d="M-1.07039 27.0376L14.9855 27.0376L14.9855 11.1151L-1.07039 11.1151L-1.07039 27.0376Z" fill="#F8A201"/>
</g>
<mask id="mask16_4_5208" style="mask-type:luminance" maskUnits="userSpaceOnUse" x="64" y="16" width="6" height="6">
<path d="M66.8996 21.7301C65.4217 21.7301 64.2236 20.5419 64.2236 19.0763C64.2236 17.6107 65.4217 16.4225 66.8996 16.4225C68.3775 16.4225 69.5755 17.6107 69.5755 19.0763C69.5755 20.5419 68.3775 21.7301 66.8996 21.7301Z" fill="#F8A201"/>
</mask>
<g mask="url(#mask16_4_5208)">
<path fill-rule="evenodd" clip-rule="evenodd" d="M58.8716 27.0376L74.9275 27.0376V11.1151L58.8716 11.1151L58.8716 27.0376Z" fill="#F8A201"/>
</g>
</svg>
